<svg width="68" height="68" viewBox="0 0 68 68" fill="none" xmlns="http://www.w3.org/2000/svg">
<g clip-path="url(#clip0_64_4489)">
<path d="M46.75 17H21.25V29.75H46.75V17Z" stroke="#032930" stroke-width="2" stroke-linecap="round" stroke-linejoin="round"/>
<path d="M55.25 57.375V10.625C55.25 9.45139 54.2986 8.5 53.125 8.5L14.875 8.5C13.7014 8.5 12.75 9.45139 12.75 10.625V57.375C12.75 58.5486 13.7014 59.5 14.875 59.5H53.125C54.2986 59.5 55.25 58.5486 55.25 57.375Z" stroke="#032930" stroke-width="2" stroke-linecap="round" stroke-linejoin="round"/>
<path d="M23.375 42.5C25.1354 42.5 26.5625 41.0729 26.5625 39.3125C26.5625 37.5521 25.1354 36.125 23.375 36.125C21.6146 36.125 20.1875 37.5521 20.1875 39.3125C20.1875 41.0729 21.6146 42.5 23.375 42.5Z" fill="#032930"/>
<path d="M34 42.5C35.7604 42.5 37.1875 41.0729 37.1875 39.3125C37.1875 37.5521 35.7604 36.125 34 36.125C32.2396 36.125 30.8125 37.5521 30.8125 39.3125C30.8125 41.0729 32.2396 42.5 34 42.5Z" fill="#032930"/>
<path d="M44.625 42.5C46.3854 42.5 47.8125 41.0729 47.8125 39.3125C47.8125 37.5521 46.3854 36.125 44.625 36.125C42.8646 36.125 41.4375 37.5521 41.4375 39.3125C41.4375 41.0729 42.8646 42.5 44.625 42.5Z" fill="#032930"/>
<path d="M23.375 53.125C25.1354 53.125 26.5625 51.6979 26.5625 49.9375C26.5625 48.1771 25.1354 46.75 23.375 46.75C21.6146 46.75 20.1875 48.1771 20.1875 49.9375C20.1875 51.6979 21.6146 53.125 23.375 53.125Z" fill="#032930"/>
<path d="M34 53.125C35.7604 53.125 37.1875 51.6979 37.1875 49.9375C37.1875 48.1771 35.7604 46.75 34 46.75C32.2396 46.75 30.8125 48.1771 30.8125 49.9375C30.8125 51.6979 32.2396 53.125 34 53.125Z" fill="#032930"/>
<path d="M44.625 53.125C46.3854 53.125 47.8125 51.6979 47.8125 49.9375C47.8125 48.1771 46.3854 46.75 44.625 46.75C42.8646 46.75 41.4375 48.1771 41.4375 49.9375C41.4375 51.6979 42.8646 53.125 44.625 53.125Z" fill="#032930"/>
</g>
<defs>
<clipPath id="clip0_64_4489">
<rect width="68" height="68" fill="white"/>
</clipPath>
</defs>
</svg>
