<svg width="50" height="50" viewBox="0 0 50 50" fill="none" xmlns="http://www.w3.org/2000/svg">
<g clip-path="url(#clip0_65_5673)">
<path d="M28.1778 8.97067C28.2308 8.77238 28.3224 8.58647 28.4473 8.42359C28.5722 8.2607 28.728 8.12402 28.9057 8.02136C29.0835 7.9187 29.2797 7.85207 29.4832 7.82527C29.6868 7.79848 29.8936 7.81205 30.0918 7.86521C32.9884 8.62097 35.6312 10.1352 37.748 12.252C39.8648 14.3688 41.379 17.0116 42.1348 19.9082C42.1879 20.1064 42.2015 20.3132 42.1747 20.5168C42.1479 20.7203 42.0813 20.9165 41.9786 21.0943C41.876 21.272 41.7393 21.4278 41.5764 21.5527C41.4135 21.6776 41.2276 21.7692 41.0293 21.8222C40.8973 21.8569 40.7615 21.8746 40.625 21.875C40.281 21.8751 39.9465 21.7616 39.6735 21.5522C39.4005 21.3428 39.2043 21.0491 39.1153 20.7168C38.4992 18.3518 37.2635 16.1939 35.5355 14.4657C33.8076 12.7374 31.65 11.5013 29.2852 10.8847C29.0867 10.8319 28.9006 10.7405 28.7375 10.6156C28.5744 10.4908 28.4375 10.3351 28.3346 10.1573C28.2318 9.97953 28.165 9.78322 28.1381 9.57961C28.1111 9.37599 28.1246 9.16907 28.1778 8.97067ZM27.7227 17.1347C30.416 17.8535 32.1465 19.5859 32.8653 22.2793C32.9543 22.6116 33.1505 22.9053 33.4235 23.1147C33.6965 23.3241 34.031 23.4376 34.375 23.4375C34.5115 23.4371 34.6473 23.4194 34.7793 23.3847C34.9776 23.3317 35.1635 23.2401 35.3264 23.1152C35.4893 22.9903 35.626 22.8345 35.7286 22.6568C35.8313 22.479 35.8979 22.2828 35.9247 22.0793C35.9515 21.8757 35.9379 21.6689 35.8848 21.4707C34.8848 17.7285 32.2715 15.1152 28.5293 14.1152C28.1289 14.0082 27.7024 14.0647 27.3436 14.2722C26.9848 14.4797 26.7232 14.8212 26.6162 15.2217C26.5093 15.6221 26.5657 16.0486 26.7732 16.4073C26.9807 16.7661 27.3223 17.0278 27.7227 17.1347ZM41.8692 32.5117L32.668 28.3886L32.6426 28.3769C32.1649 28.1726 31.6438 28.0906 31.1265 28.1384C30.6092 28.1861 30.1119 28.3621 29.6797 28.6504C29.6288 28.684 29.5799 28.7205 29.5332 28.7597L24.7793 32.8125C21.7676 31.3496 18.6582 28.2636 17.1953 25.291L21.2539 20.4648C21.293 20.416 21.3301 20.3672 21.3653 20.3144C21.6473 19.8834 21.8185 19.3893 21.8635 18.8761C21.9084 18.3629 21.8259 17.8466 21.6231 17.373V17.3496L17.4883 8.13278C17.2202 7.51416 16.7592 6.99883 16.1742 6.66372C15.5892 6.32861 14.9114 6.19169 14.2422 6.27341C11.5957 6.62166 9.16638 7.92139 7.40809 9.92985C5.6498 11.9383 4.68273 14.5181 4.68752 17.1875C4.68752 32.6953 17.3047 45.3125 32.8125 45.3125C35.4819 45.3173 38.0617 44.3502 40.0701 42.5919C42.0786 40.8336 43.3783 38.4043 43.7266 35.7578C43.8084 35.0888 43.6718 34.4112 43.3371 33.8262C43.0023 33.2412 42.4874 32.7801 41.8692 32.5117Z" fill="white"/>
</g>
<defs>
<clipPath id="clip0_65_5673">
<rect width="50" height="50" fill="white"/>
</clipPath>
</defs>
</svg>
