<svg width="68" height="68" viewBox="0 0 68 68" fill="none" xmlns="http://www.w3.org/2000/svg">
<g clip-path="url(#clip0_64_4526)">
<path d="M54.1875 29.75C58.2951 29.75 61.625 26.4201 61.625 22.3125C61.625 18.2049 58.2951 14.875 54.1875 14.875C50.0799 14.875 46.75 18.2049 46.75 22.3125C46.75 26.4201 50.0799 29.75 54.1875 29.75Z" stroke="#032930" stroke-width="2" stroke-linecap="round" stroke-linejoin="round"/>
<path d="M12.75 55.25H4.25C3.68641 55.25 3.14591 55.0261 2.7474 54.6276C2.34888 54.2291 2.125 53.6886 2.125 53.125V42.5C2.125 41.9364 2.34888 41.3959 2.7474 40.9974C3.14591 40.5989 3.68641 40.375 4.25 40.375H12.75" stroke="#032930" stroke-width="2" stroke-linecap="round" stroke-linejoin="round"/>
<path d="M29.75 42.5H38.25L56.0469 38.4067C56.7012 38.2274 57.388 38.2014 58.054 38.3308C58.72 38.4601 59.3472 38.7412 59.8869 39.1524C60.4265 39.5636 60.8641 40.0936 61.1655 40.7014C61.467 41.3092 61.6242 41.9783 61.625 42.6567C61.6253 43.4759 61.3973 44.2789 60.9666 44.9757C60.5359 45.6725 59.9195 46.2354 59.1866 46.6013L48.875 51L31.875 55.25H12.75V40.375L19.3906 33.7344C19.9842 33.1429 20.6885 32.6742 21.4633 32.3552C22.2382 32.0361 23.0683 31.873 23.9062 31.875H37.1875C38.5965 31.875 39.9477 32.4347 40.944 33.431C41.9403 34.4273 42.5 35.7786 42.5 37.1875C42.5 38.5965 41.9403 39.9477 40.944 40.944C39.9477 41.9403 38.5965 42.5 37.1875 42.5H29.75Z" stroke="#032930" stroke-width="2" stroke-linecap="round" stroke-linejoin="round"/>
<path d="M46.75 22.6551C45.3065 23.3378 43.6816 23.5378 42.1156 23.2255C40.5497 22.9133 39.1258 22.1053 38.0546 20.9211C36.9833 19.7369 36.3217 18.2394 36.1674 16.6501C36.0132 15.0608 36.3745 13.464 37.198 12.0959C38.0216 10.7279 39.2635 9.66115 40.7402 9.05357C42.2169 8.446 43.8499 8.32981 45.3978 8.72219C46.9456 9.11458 48.3261 9.9947 49.335 11.2324C50.3439 12.4701 50.9277 13.9996 51 15.5948" stroke="#032930" stroke-width="2" stroke-linecap="round" stroke-linejoin="round"/>
</g>
<defs>
<clipPath id="clip0_64_4526">
<rect width="68" height="68" fill="white"/>
</clipPath>
</defs>
</svg>
