<svg width="50" height="50" viewBox="0 0 50 50" fill="none" xmlns="http://www.w3.org/2000/svg">
<g clip-path="url(#clip0_32_1147)">
<path d="M35.9375 17.4941V16.4062C35.9375 11.5078 28.5488 7.8125 18.75 7.8125C8.95117 7.8125 1.5625 11.5078 1.5625 16.4062V24.2188C1.5625 28.2988 6.68945 31.541 14.0625 32.5117V33.5938C14.0625 38.4922 21.4512 42.1875 31.25 42.1875C41.0488 42.1875 48.4375 38.4922 48.4375 33.5938V25.7812C48.4375 21.7383 43.4727 18.4922 35.9375 17.4941ZM10.9375 28.6855C7.11133 27.6172 4.6875 25.8574 4.6875 24.2188V21.4707C6.28125 22.5996 8.41602 23.5098 10.9375 24.1211V28.6855ZM26.5625 24.1211C29.084 23.5098 31.2188 22.5996 32.8125 21.4707V24.2188C32.8125 25.8574 30.3887 27.6172 26.5625 28.6855V24.1211ZM23.4375 38.0605C19.6113 36.9922 17.1875 35.2324 17.1875 33.5938V32.7793C17.7012 32.7988 18.2207 32.8125 18.75 32.8125C19.5078 32.8125 20.248 32.7871 20.9746 32.7441C21.7818 33.0331 22.6039 33.2782 23.4375 33.4785V38.0605ZM23.4375 29.3457C21.8856 29.575 20.3188 29.6892 18.75 29.6875C17.1812 29.6892 15.6144 29.575 14.0625 29.3457V24.6992C15.6168 24.9017 17.1826 25.0022 18.75 25C20.3174 25.0022 21.8832 24.9017 23.4375 24.6992V29.3457ZM35.9375 38.7207C32.8291 39.1764 29.6709 39.1764 26.5625 38.7207V34.0625C28.1163 34.2714 29.6823 34.3758 31.25 34.375C32.8174 34.3772 34.3832 34.2767 35.9375 34.0742V38.7207ZM45.3125 33.5938C45.3125 35.2324 42.8887 36.9922 39.0625 38.0605V33.4961C41.584 32.8848 43.7188 31.9746 45.3125 30.8457V33.5938Z" fill="white"/>
</g>
<defs>
<clipPath id="clip0_32_1147">
<rect width="50" height="50" fill="white"/>
</clipPath>
</defs>
</svg>
