<svg width="150" height="29" viewBox="0 0 150 29" fill="none" xmlns="http://www.w3.org/2000/svg">
<path d="M7.48274 6.1832C14.0504 -0.277821 21.9896 -1.94695 25.1567 2.46752C28.3228 6.88097 25.5513 15.7515 18.9822 22.2113C12.417 28.671 4.47701 30.3394 1.30989 25.9262C-1.85622 21.511 0.916103 12.6424 7.48274 6.1832Z" fill="#F58220"/>
<path d="M11.8292 2.73818C11.1224 3.26433 10.3707 3.8797 9.6612 4.58321C3.90499 10.2076 1.51491 17.9409 4.34897 21.807C7.26985 25.6749 14.3531 24.2686 20.1966 18.5577C23.3404 15.5239 25.4657 11.9652 26.3504 8.67057C26.6164 6.25406 26.2618 4.09966 25.1547 2.47486C22.6324 -0.953074 17.2308 -0.689745 11.8292 2.73818Z" fill="#B02A30"/>
<path d="M15.0842 25.3988C12.0091 27.6895 8.83371 28.8255 5.73438 28.3497C7.03468 28.4167 8.08583 26.985 8.94692 25.0608C9.82131 23.0902 10.3457 21.2624 10.7653 19.5519C11.3749 16.8439 11.4223 14.9082 11.1114 14.4937C10.5858 13.8044 9.39089 13.983 8.03835 14.7541C7.39012 15.1098 6.52974 14.8707 7.54696 13.6494C8.57747 12.414 12.6682 9.44675 14.1402 8.98285C15.7562 8.52048 17.5977 9.15001 16.9743 10.9063C16.5323 12.1883 10.8724 26.9294 15.0842 25.3988ZM19.7152 2.53535C20.4799 3.29491 20.0134 4.95805 18.7098 6.26295C17.3946 7.55766 15.6817 8.02048 14.94 7.27239C14.1512 6.5245 14.6176 4.83821 15.9334 3.5201C17.2616 2.20301 18.9726 1.79817 19.7152 2.53535Z" fill="white"/>
<path d="M26.2881 28.1895L30.1296 14.2521H35.1033L31.2613 28.1895H26.2881ZM47.1395 18.7445C47.194 18.0709 47.0379 17.5639 46.6667 17.2214C46.296 16.8828 45.715 16.7132 44.9254 16.7132C43.6622 16.7132 42.5872 17.0966 41.6922 17.8606C40.8025 18.6259 40.1625 19.7119 39.7725 21.1251C39.3973 22.4868 39.446 23.5314 39.915 24.2611C40.3841 24.9925 41.24 25.3567 42.4858 25.3567C43.3974 25.3567 44.1827 25.1487 44.8438 24.728C45.4996 24.3127 46.0069 23.6953 46.3608 22.8842H51.5106C50.8224 24.71 49.6516 26.0575 48.0049 26.9275C46.3545 27.7961 44.128 28.2329 41.3253 28.2329C38.6217 28.2329 36.6852 27.6257 35.5081 26.4083C34.3355 25.1933 34.0504 23.4933 34.6505 21.3127C35.3096 18.9249 36.5941 17.0839 38.5086 15.7897C40.4246 14.4964 42.8289 13.8485 45.7137 13.8485C48.2195 13.8485 50.0225 14.2586 51.1218 15.0807C52.2186 15.9025 52.6034 17.1257 52.268 18.7445H47.1395ZM51.4134 28.1895L55.2557 14.2521H60.2281L56.3859 28.1895H51.4134ZM72.2648 18.7445C72.3201 18.0709 72.162 17.5639 71.7919 17.2214C71.4212 16.8828 70.843 16.7132 70.0501 16.7132C68.7882 16.7132 67.7133 17.0966 66.8189 17.8606C65.9265 18.6259 65.2878 19.7119 64.8985 21.1251C64.5232 22.4868 64.5727 23.5314 65.0405 24.2611C65.5095 24.9925 66.3647 25.3567 67.6105 25.3567C68.5235 25.3567 69.308 25.1487 69.9685 24.728C70.6264 24.3127 71.1334 23.6953 71.488 22.8842H76.6345C75.9483 24.71 74.7783 26.0575 73.129 26.9275C71.481 27.7961 69.2527 28.2329 66.4521 28.2329C63.7484 28.2329 61.8106 27.6257 60.6342 26.4083C59.4609 25.1933 59.1755 23.4933 59.7768 21.3127C60.4349 18.9249 61.7192 17.0839 63.6352 15.7897C65.55 14.4964 67.9542 13.8485 70.8404 13.8485C73.3442 13.8485 75.149 14.2586 76.249 15.0807C77.3439 15.9025 77.7281 17.1257 77.3927 18.7445H72.2648ZM76.5388 28.1895L80.381 14.2521H85.354L81.5118 28.1895H76.5388ZM95.9901 17.0766L95.1882 19.9874H97.7538C98.3802 19.9874 98.8788 19.8638 99.2553 19.6227C99.6312 19.3823 99.8882 19.0148 100.021 18.532C100.154 18.0545 100.098 17.6897 99.8535 17.4454C99.6068 17.1997 99.175 17.0766 98.5563 17.0766H95.9901ZM94.5502 22.3037L93.7079 25.3637H96.657C97.3561 25.3637 97.9208 25.2354 98.3487 24.9773C98.7792 24.7182 99.0639 24.3383 99.2026 23.8311C99.3414 23.3286 99.2682 22.948 98.9861 22.6901C98.7002 22.432 98.2074 22.3037 97.5006 22.3037H94.5502ZM88.2042 28.1895L92.0457 14.2521H101.062C102.133 14.2521 102.907 14.2929 103.374 14.3796C103.845 14.4646 104.242 14.6024 104.561 14.7999C104.994 15.0652 105.278 15.4364 105.412 15.9155C105.546 16.3943 105.525 16.9581 105.346 17.606C105.13 18.393 104.717 19.0385 104.102 19.5417C103.491 20.0475 102.636 20.448 101.532 20.7412C102.686 21.0188 103.461 21.451 103.856 22.0392C104.251 22.6226 104.307 23.4193 104.032 24.4198C103.691 25.6544 103.049 26.5894 102.107 27.2316C101.164 27.8706 99.9447 28.1895 98.4464 28.1895H88.2042ZM113.465 23.9773C111.953 23.9773 110.897 24.0698 110.296 24.2611C109.695 24.4484 109.328 24.7808 109.197 25.2514C109.11 25.5697 109.176 25.8216 109.392 26.0027C109.608 26.1801 109.961 26.27 110.445 26.27C111.24 26.27 111.889 26.0939 112.384 25.7381C112.88 25.3809 113.227 24.8445 113.422 24.1291L113.465 23.9773ZM112.798 26.7516C112.199 27.3121 111.505 27.7279 110.72 27.9994C109.934 28.2712 109.036 28.4065 108.022 28.4065C106.581 28.4065 105.542 28.1609 104.902 27.6711C104.259 27.1768 104.064 26.483 104.312 25.5799C104.65 24.3543 105.565 23.4676 107.052 22.9223C108.543 22.3765 110.86 22.0927 114.011 22.067L114.052 21.9582L114.095 21.8413C114.232 21.3426 114.176 20.9714 113.934 20.7233C113.688 20.4767 113.254 20.3541 112.629 20.3541C112.063 20.3541 111.603 20.4453 111.251 20.6219C110.899 20.803 110.646 21.0735 110.486 21.4325H106.167C106.484 20.3541 107.235 19.5552 108.428 19.0283C109.616 18.5034 111.286 18.238 113.43 18.238C115.488 18.238 116.935 18.5447 117.772 19.1608C118.61 19.7739 118.854 20.7106 118.507 21.9639L117.143 26.9123C117.058 27.2234 117.003 27.4703 116.981 27.6609C116.96 27.8477 116.963 28.0251 116.989 28.1895H112.651C112.627 27.9568 112.632 27.7222 112.656 27.4867C112.681 27.2476 112.729 27.0072 112.798 26.7516ZM118.545 28.1895L120.775 20.0998C120.865 19.7707 120.932 19.4709 120.973 19.1942C121.02 18.9167 121.043 18.6763 121.045 18.474H125.722C125.74 18.6259 125.725 18.826 125.684 19.0736C125.642 19.3222 125.567 19.6456 125.458 20.0417C126.211 19.4318 126.965 18.9767 127.724 18.6832C128.486 18.3867 129.275 18.238 130.095 18.238C131.615 18.238 132.665 18.6125 133.247 19.3639C133.831 20.1132 133.923 21.2093 133.526 22.652L131.998 28.1895H127.333L128.82 22.793C129.025 22.0524 129.025 21.5078 128.82 21.168C128.615 20.8287 128.191 20.6578 127.547 20.6578C126.789 20.6578 126.162 20.8835 125.662 21.3381C125.164 21.7943 124.787 22.4746 124.535 23.3892L123.213 28.1895H118.545ZM138.258 28.1895H133.651L137.494 14.2521H142.1L139.847 22.4263L144.488 18.474H150.003L144.836 22.793L148.38 28.1895H142.557L139.606 23.293L138.258 28.1895Z" fill="#004A80"/>
</svg>
