<svg width="36" height="44" viewBox="0 0 36 44" fill="none" xmlns="http://www.w3.org/2000/svg">
<path d="M32.0625 40.75H22.4023C24.0251 39.301 25.5554 37.7518 26.9844 36.1113C32.3457 29.9453 35.1875 23.4453 35.1875 17.3125C35.1875 12.7541 33.3767 8.38238 30.1534 5.1591C26.9301 1.93582 22.5584 0.125 18 0.125C13.4416 0.125 9.06988 1.93582 5.8466 5.1591C2.62332 8.38238 0.8125 12.7541 0.8125 17.3125C0.8125 23.4453 3.64648 29.9453 9.01562 36.1113C10.4446 37.7518 11.9749 39.301 13.5977 40.75H3.9375C3.5231 40.75 3.12567 40.9146 2.83265 41.2076C2.53962 41.5007 2.375 41.8981 2.375 42.3125C2.375 42.7269 2.53962 43.1243 2.83265 43.4174C3.12567 43.7104 3.5231 43.875 3.9375 43.875H32.0625C32.4769 43.875 32.8743 43.7104 33.1674 43.4174C33.4604 43.1243 33.625 42.7269 33.625 42.3125C33.625 41.8981 33.4604 41.5007 33.1674 41.2076C32.8743 40.9146 32.4769 40.75 32.0625 40.75ZM18 11.0625C19.2361 11.0625 20.4445 11.4291 21.4723 12.1158C22.5001 12.8026 23.3012 13.7787 23.7742 14.9207C24.2473 16.0628 24.3711 17.3194 24.1299 18.5318C23.8888 19.7442 23.2935 20.8578 22.4194 21.7319C21.5453 22.606 20.4317 23.2013 19.2193 23.4424C18.0069 23.6836 16.7503 23.5598 15.6082 23.0867C14.4662 22.6137 13.4901 21.8126 12.8033 20.7848C12.1166 19.757 11.75 18.5486 11.75 17.3125C11.75 15.6549 12.4085 14.0652 13.5806 12.8931C14.7527 11.721 16.3424 11.0625 18 11.0625Z" fill="white"/>
</svg>
