<svg width="487" height="71" viewBox="0 0 487 71" fill="none" xmlns="http://www.w3.org/2000/svg">
<path d="M29.392 70.6721C21.264 70.6721 14.544 68.7841 9.232 65.0081C3.984 61.1681 1.136 55.5681 0.688 48.2081H23.344C23.664 52.1121 25.392 54.0641 28.528 54.0641C29.68 54.0641 30.64 53.8081 31.408 53.2961C32.24 52.7201 32.656 51.8561 32.656 50.7041C32.656 49.1041 31.792 47.8241 30.064 46.8641C28.336 45.8401 25.648 44.6881 22 43.4081C17.648 41.8721 14.032 40.3681 11.152 38.8961C8.336 37.4241 5.904 35.2801 3.856 32.4641C1.808 29.6481 0.816 26.0321 0.88 21.6161C0.88 17.2001 2 13.4561 4.24 10.3841C6.544 7.24806 9.648 4.88006 13.552 3.28006C17.52 1.68006 21.968 0.880058 26.896 0.880058C35.216 0.880058 41.808 2.80006 46.672 6.64006C51.6 10.4801 54.192 15.8881 54.448 22.8641H31.504C31.44 20.9441 30.96 19.5681 30.064 18.7361C29.168 17.9041 28.08 17.4881 26.8 17.4881C25.904 17.4881 25.168 17.8081 24.592 18.4481C24.016 19.0241 23.728 19.8561 23.728 20.9441C23.728 22.4801 24.56 23.7601 26.224 24.7841C27.952 25.7441 30.672 26.9281 34.384 28.3361C38.672 29.9361 42.192 31.4721 44.944 32.9441C47.76 34.4161 50.192 36.4641 52.24 39.0881C54.288 41.7121 55.312 45.0081 55.312 48.9761C55.312 53.1361 54.288 56.8801 52.24 60.2081C50.192 63.4721 47.216 66.0321 43.312 67.8881C39.408 69.7441 34.768 70.6721 29.392 70.6721ZM95.92 70.6721C89.52 70.6721 83.632 69.1681 78.256 66.1601C72.944 63.1521 68.72 58.9921 65.584 53.6801C62.448 48.3681 60.88 42.3841 60.88 35.7281C60.88 29.0721 62.448 23.0881 65.584 17.7761C68.72 12.4641 72.944 8.33606 78.256 5.39206C83.632 2.38406 89.52 0.880058 95.92 0.880058C102.32 0.880058 108.176 2.38406 113.488 5.39206C118.8 8.33606 122.992 12.4641 126.064 17.7761C129.2 23.0881 130.768 29.0721 130.768 35.7281C130.768 42.3841 129.2 48.3681 126.064 53.6801C122.992 58.9921 118.768 63.1521 113.392 66.1601C108.08 69.1681 102.256 70.6721 95.92 70.6721ZM95.92 50.8001C100.144 50.8001 103.408 49.4561 105.712 46.7681C108.016 44.0161 109.168 40.3361 109.168 35.7281C109.168 31.0561 108.016 27.3761 105.712 24.6881C103.408 21.9361 100.144 20.5601 95.92 20.5601C91.632 20.5601 88.336 21.9361 86.032 24.6881C83.728 27.3761 82.576 31.0561 82.576 35.7281C82.576 40.3361 83.728 44.0161 86.032 46.7681C88.336 49.4561 91.632 50.8001 95.92 50.8001ZM159.768 53.8721H180.312V70.0001H138.456V2.03206H159.768V53.8721ZM207.851 2.03206V40.3361C207.851 43.4721 208.523 45.9681 209.867 47.8241C211.275 49.6161 213.515 50.5121 216.587 50.5121C219.659 50.5121 221.931 49.6161 223.403 47.8241C224.875 45.9681 225.611 43.4721 225.611 40.3361V2.03206H246.827V40.3361C246.827 46.8001 245.483 52.3361 242.795 56.9441C240.107 61.4881 236.427 64.9121 231.755 67.2161C227.083 69.5201 221.867 70.6721 216.107 70.6721C210.347 70.6721 205.227 69.5201 200.747 67.2161C196.331 64.9121 192.875 61.4881 190.379 56.9441C187.883 52.4001 186.635 46.8641 186.635 40.3361V2.03206H207.851ZM309.395 2.03206V18.9281H291.347V70.0001H270.035V18.9281H252.179V2.03206H309.395ZM336.487 2.03206V70.0001H315.175V2.03206H336.487ZM379.233 70.6721C372.833 70.6721 366.945 69.1681 361.569 66.1601C356.257 63.1521 352.033 58.9921 348.897 53.6801C345.761 48.3681 344.193 42.3841 344.193 35.7281C344.193 29.0721 345.761 23.0881 348.897 17.7761C352.033 12.4641 356.257 8.33606 361.569 5.39206C366.945 2.38406 372.833 0.880058 379.233 0.880058C385.633 0.880058 391.489 2.38406 396.801 5.39206C402.113 8.33606 406.305 12.4641 409.377 17.7761C412.513 23.0881 414.081 29.0721 414.081 35.7281C414.081 42.3841 412.513 48.3681 409.377 53.6801C406.305 58.9921 402.081 63.1521 396.705 66.1601C391.393 69.1681 385.569 70.6721 379.233 70.6721ZM379.233 50.8001C383.457 50.8001 386.721 49.4561 389.025 46.7681C391.329 44.0161 392.481 40.3361 392.481 35.7281C392.481 31.0561 391.329 27.3761 389.025 24.6881C386.721 21.9361 383.457 20.5601 379.233 20.5601C374.945 20.5601 371.649 21.9361 369.345 24.6881C367.041 27.3761 365.889 31.0561 365.889 35.7281C365.889 40.3361 367.041 44.0161 369.345 46.7681C371.649 49.4561 374.945 50.8001 379.233 50.8001ZM486.953 70.0001H465.641L443.081 35.8241V70.0001H421.769V2.03206H443.081L465.641 36.7841V2.03206H486.953V70.0001Z" fill="white"/>
</svg>
