<svg width="50" height="50" viewBox="0 0 50 50" fill="none" xmlns="http://www.w3.org/2000/svg">
<g clip-path="url(#clip0_32_1144)">
<path d="M44.1133 20.082C43.377 19.3125 42.6152 18.5195 42.3281 17.8223C42.0625 17.1836 42.0469 16.125 42.0312 15.0996C42.002 13.1934 41.9707 11.0332 40.4688 9.53125C38.9668 8.0293 36.8066 7.99805 34.9004 7.96875C33.875 7.95312 32.8164 7.9375 32.1777 7.67188C31.4824 7.38477 30.6875 6.62305 29.918 5.88672C28.5703 4.5918 27.0391 3.125 25 3.125C22.9609 3.125 21.4316 4.5918 20.082 5.88672C19.3125 6.62305 18.5195 7.38477 17.8223 7.67188C17.1875 7.9375 16.125 7.95312 15.0996 7.96875C13.1934 7.99805 11.0332 8.0293 9.53125 9.53125C8.0293 11.0332 8.00781 13.1934 7.96875 15.0996C7.95312 16.125 7.9375 17.1836 7.67188 17.8223C7.38477 18.5176 6.62305 19.3125 5.88672 20.082C4.5918 21.4297 3.125 22.9609 3.125 25C3.125 27.0391 4.5918 28.5684 5.88672 29.918C6.62305 30.6875 7.38477 31.4805 7.67188 32.1777C7.9375 32.8164 7.95312 33.875 7.96875 34.9004C7.99805 36.8066 8.0293 38.9668 9.53125 40.4688C11.0332 41.9707 13.1934 42.002 15.0996 42.0312C16.125 42.0469 17.1836 42.0625 17.8223 42.3281C18.5176 42.6152 19.3125 43.377 20.082 44.1133C21.4297 45.4082 22.9609 46.875 25 46.875C27.0391 46.875 28.5684 45.4082 29.918 44.1133C30.6875 43.377 31.4805 42.6152 32.1777 42.3281C32.8164 42.0625 33.875 42.0469 34.9004 42.0312C36.8066 42.002 38.9668 41.9707 40.4688 40.4688C41.9707 38.9668 42.002 36.8066 42.0312 34.9004C42.0469 33.875 42.0625 32.8164 42.3281 32.1777C42.6152 31.4824 43.377 30.6875 44.1133 29.918C45.4082 28.5703 46.875 27.0391 46.875 25C46.875 22.9609 45.4082 21.4316 44.1133 20.082ZM33.918 21.418L22.9805 32.3555C22.8354 32.5007 22.663 32.616 22.4733 32.6946C22.2837 32.7733 22.0803 32.8137 21.875 32.8137C21.6697 32.8137 21.4663 32.7733 21.2767 32.6946C21.087 32.616 20.9146 32.5007 20.7695 32.3555L16.082 27.668C15.7888 27.3748 15.6241 26.9771 15.6241 26.5625C15.6241 26.1479 15.7888 25.7502 16.082 25.457C16.3752 25.1638 16.7729 24.9991 17.1875 24.9991C17.6021 24.9991 17.9998 25.1638 18.293 25.457L21.875 29.041L31.707 19.207C31.8522 19.0619 32.0245 18.9467 32.2142 18.8681C32.4039 18.7896 32.6072 18.7491 32.8125 18.7491C33.0178 18.7491 33.2211 18.7896 33.4108 18.8681C33.6005 18.9467 33.7728 19.0619 33.918 19.207C34.0631 19.3522 34.1783 19.5245 34.2569 19.7142C34.3354 19.9039 34.3759 20.1072 34.3759 20.3125C34.3759 20.5178 34.3354 20.7211 34.2569 20.9108C34.1783 21.1005 34.0631 21.2728 33.918 21.418Z" fill="white"/>
</g>
<defs>
<clipPath id="clip0_32_1144">
<rect width="50" height="50" fill="white"/>
</clipPath>
</defs>
</svg>
