<svg width="27" height="27" viewBox="0 0 27 27" fill="none" xmlns="http://www.w3.org/2000/svg">
<rect x="0.142853" width="26.8571" height="26.8571" rx="13.4286" fill="#032930"/>
<path d="M5.42575 21.2394L6.57718 17.0582C5.86532 15.8309 5.49188 14.4411 5.49577 13.0203C5.49577 8.56806 9.13676 4.94824 13.6063 4.94824C15.7769 4.94824 17.8152 5.78835 19.344 7.31371C20.8766 8.83907 21.7208 10.8677 21.7169 13.0241C21.7169 17.4763 18.0759 21.0961 13.6024 21.0961H13.5985C12.2409 21.0961 10.9067 20.7554 9.72026 20.1128L5.42575 21.2394ZM9.92642 18.6532L10.1715 18.8004C11.2062 19.412 12.3927 19.7334 13.6024 19.7372H13.6063C17.3212 19.7372 20.3476 16.7291 20.3476 13.028C20.3476 11.2355 19.6474 9.55142 18.3754 8.28158C17.1034 7.01173 15.4074 6.31487 13.6063 6.31487C9.89142 6.311 6.86503 9.31913 6.86503 13.0203C6.86503 14.2862 7.21902 15.5212 7.89587 16.5897L8.05536 16.8453L7.37462 19.3191L9.92642 18.6532Z" fill="white"/>
<path d="M5.70963 20.9569L6.82215 16.9189C6.13363 15.7381 5.77186 14.3947 5.77186 13.0242C5.77575 8.72689 9.28838 5.23096 13.6062 5.23096C15.7029 5.23096 17.6673 6.04397 19.1455 7.51512C20.6237 8.98628 21.4367 10.9452 21.4367 13.0281C21.4367 17.3254 17.9202 20.8214 13.6062 20.8214H13.6023C12.2914 20.8214 11.0038 20.4923 9.8602 19.8728L5.70963 20.9569Z" fill="#032930"/>
<path d="M5.42575 21.2394L6.57718 17.0582C5.86532 15.8309 5.49188 14.4411 5.49577 13.0203C5.49577 8.56806 9.13676 4.94824 13.6063 4.94824C15.7769 4.94824 17.8152 5.78835 19.344 7.31371C20.8766 8.83907 21.7208 10.8677 21.7169 13.0241C21.7169 17.4763 18.0759 21.0961 13.6024 21.0961H13.5985C12.2409 21.0961 10.9067 20.7554 9.72026 20.1128L5.42575 21.2394ZM9.92642 18.6532L10.1715 18.8004C11.2062 19.412 12.3927 19.7334 13.6024 19.7372H13.6063C17.3212 19.7372 20.3476 16.7291 20.3476 13.028C20.3476 11.2355 19.6474 9.55142 18.3754 8.28158C17.1034 7.01173 15.4074 6.31487 13.6063 6.31487C9.89142 6.311 6.86503 9.31913 6.86503 13.0203C6.86503 14.2862 7.21902 15.5212 7.89587 16.5897L8.05536 16.8453L7.37462 19.3191L9.92642 18.6532Z" fill="white"/>
<path fill-rule="evenodd" clip-rule="evenodd" d="M11.5795 9.6443C11.4278 9.30748 11.2683 9.29974 11.1244 9.29586C11.0077 9.29199 10.8715 9.29199 10.7354 9.29199C10.5993 9.29199 10.3814 9.34232 10.1947 9.54364C10.008 9.74495 9.48672 10.2328 9.48672 11.2277C9.48672 12.2188 10.2141 13.1789 10.3153 13.3144C10.4164 13.4499 11.7196 15.5522 13.7773 16.3613C15.4889 17.0349 15.839 16.8994 16.2086 16.8646C16.5781 16.8297 17.4067 16.3768 17.5778 15.9045C17.7451 15.4321 17.7451 15.0295 17.6945 14.9443C17.644 14.8592 17.5078 14.8088 17.3055 14.7082C17.1033 14.6075 16.1074 14.1197 15.9207 14.05C15.734 13.9842 15.5978 13.9494 15.4656 14.1507C15.3294 14.352 14.9404 14.805 14.8237 14.9405C14.707 15.076 14.5865 15.0914 14.3842 14.9908C14.1819 14.8901 13.5284 14.6772 12.7543 13.9881C12.1513 13.4538 11.7429 12.7918 11.6262 12.5905C11.5095 12.3892 11.6145 12.2808 11.7157 12.1801C11.8051 12.0911 11.9179 11.9439 12.0191 11.8278C12.1202 11.7117 12.1552 11.6265 12.2214 11.491C12.2875 11.3555 12.2564 11.2393 12.2058 11.1387C12.1552 11.0419 11.7585 10.0431 11.5795 9.6443Z" fill="white"/>
</svg>
