<svg width="123" height="123" viewBox="0 0 123 123" fill="none" xmlns="http://www.w3.org/2000/svg">
<circle cx="61.5" cy="61.5" r="61.5" fill="#3EA089"/>
<path d="M94.2281 43.225C93.9337 42.073 93.3695 41.0075 92.5822 40.1164C91.7949 39.2253 90.807 38.5341 89.7 38.1C78.9875 33.9625 61.9375 34 61 34C60.0625 34 43.0125 33.9625 32.3 38.1C31.193 38.5341 30.2051 39.2253 29.4178 40.1164C28.6305 41.0075 28.0663 42.073 27.7719 43.225C26.9625 46.3438 26 52.0438 26 61.5C26 70.9563 26.9625 76.6563 27.7719 79.775C28.0659 80.9276 28.6298 81.9938 29.4172 82.8854C30.2045 83.7771 31.1927 84.4687 32.3 84.9031C42.5625 88.8625 58.625 89 60.7937 89H61.2063C63.375 89 79.4469 88.8625 89.7 84.9031C90.8074 84.4687 91.7955 83.7771 92.5828 82.8854C93.3702 81.9938 93.9341 80.9276 94.2281 79.775C95.0375 76.65 96 70.9563 96 61.5C96 52.0438 95.0375 46.3438 94.2281 43.225ZM71.1844 63.5375L58.6844 72.2875C58.3105 72.5495 57.8719 72.704 57.4164 72.7344C56.9609 72.7648 56.5057 72.6699 56.1003 72.4599C55.6949 72.25 55.3547 71.933 55.1167 71.5434C54.8787 71.1539 54.7518 70.7066 54.75 70.25V52.75C54.7501 52.2927 54.8757 51.8441 55.1131 51.4532C55.3504 51.0623 55.6905 50.744 56.0962 50.5329C56.5019 50.3218 56.9577 50.2261 57.4141 50.2561C57.8704 50.2861 58.3098 50.4407 58.6844 50.7031L71.1844 59.4531C71.5132 59.6837 71.7816 59.9901 71.9669 60.3464C72.1522 60.7027 72.249 61.0984 72.249 61.5C72.249 61.9016 72.1522 62.2973 71.9669 62.6536C71.7816 63.0099 71.5132 63.3163 71.1844 63.5469V63.5375Z" fill="white"/>
</svg>
