<svg width="68" height="68" viewBox="0 0 68 68" fill="none" xmlns="http://www.w3.org/2000/svg">
<g clip-path="url(#clip0_64_4499)">
<path d="M46.75 17H21.25V29.75H46.75V17Z" stroke="#032930" stroke-width="2" stroke-linecap="round" stroke-linejoin="round"/>
<path d="M55.25 57.375V10.625C55.25 9.45139 54.2986 8.5 53.125 8.5L14.875 8.5C13.7014 8.5 12.75 9.45139 12.75 10.625V57.375C12.75 58.5486 13.7014 59.5 14.875 59.5H53.125C54.2986 59.5 55.25 58.5486 55.25 57.375Z" stroke="#032930" stroke-width="2" stroke-linecap="round" stroke-linejoin="round"/>
<path fill-rule="evenodd" clip-rule="evenodd" d="M24.3163 50.2663L25.6016 50.2683C25.62 50.268 25.677 50.2672 25.6926 50.2642C25.7944 50.2451 26.0836 49.8049 26.1486 49.7188C26.3919 49.3974 26.3757 49.499 26.5747 49.2102L27.4717 48.2985C27.4765 48.2935 27.4831 48.2869 27.4877 48.2818C27.5616 48.1987 27.5974 48.1475 27.694 48.0578C27.7735 47.984 27.8844 47.9318 27.955 47.8466C27.9945 47.7992 27.9975 47.7809 28.0532 47.7349C28.0938 47.7013 28.0845 47.7164 28.1237 47.679L28.3692 47.4913C28.3745 47.487 28.3809 47.4802 28.386 47.4759L28.4686 47.4036C28.4741 47.3995 28.4822 47.3951 28.4877 47.3909L28.8358 47.1181C28.8412 47.1141 28.8475 47.1075 28.8527 47.1033C28.8599 47.0975 28.8788 47.0793 28.8858 47.0734L29.0875 46.9257C29.2923 46.7458 29.5425 46.6169 29.7802 46.4635C29.8709 46.405 29.9414 46.3661 30.0665 46.2946L30.5516 46.0367C30.5855 46.0225 30.5678 46.029 30.5957 46.0176C30.6271 46.0048 30.6576 45.9949 30.6886 45.9821C30.6964 45.9789 30.7046 45.9762 30.7122 45.9728L30.7578 45.9511C30.9402 45.8549 31.1365 45.797 31.3422 45.7345C32.2453 45.4601 32.7756 45.5537 33.6205 45.816L34.2527 46.21L34.6871 46.7078C34.8262 46.9073 35.3045 47.8112 34.9337 48.0488C34.5614 48.2873 34.2352 47.9435 34.046 47.6912L33.6256 47.2096C33.5811 47.1694 33.566 47.1638 33.499 47.1254C33.1374 46.9181 33.2089 46.8959 32.6838 46.7621C31.8065 46.5386 30.9406 47.0032 30.2114 47.4028C30.158 47.432 30.1271 47.4618 30.0818 47.4948C29.8536 47.6612 29.6214 47.7819 29.3992 47.9635C29.2244 48.1065 29.0451 48.2124 28.8892 48.3824C28.8691 48.4043 28.6612 48.5629 28.4238 48.8178C28.265 48.9883 28.1163 49.1146 27.9571 49.2845L27.6194 49.6342C27.5832 49.6822 27.5416 49.7291 27.5037 49.7679L27.2845 50.0141C27.1925 50.1123 27.1178 50.1463 27.0836 50.2718L28.6178 50.2655C28.6404 50.2127 28.6797 50.1576 28.7392 50.1004L28.8993 49.948C29.0119 49.8235 29.0342 49.7371 29.171 49.6342L30.1976 48.7549C30.2046 48.7493 30.2232 48.7337 30.23 48.7281C30.2453 48.7155 30.2638 48.6991 30.2806 48.6862L30.8418 48.3464C30.9543 48.277 31.1256 48.1996 31.2595 48.1333C31.791 47.8704 32.6995 47.8079 33.1014 48.3305C33.5153 48.8686 33.5426 49.4153 33.5183 50.2718L34.6006 50.2653C34.5406 50.0167 34.571 49.4451 34.6171 49.1966C34.6878 48.8153 34.7592 48.6405 35.186 48.6796C35.599 48.8402 35.5045 49.9399 35.577 50.2718L36.685 50.2639C36.6293 50.0345 36.6695 49.7674 36.6622 49.5253C36.6481 49.0622 36.5908 48.625 36.5036 48.1869C36.4617 47.9761 36.4096 47.8128 36.3467 47.5975C36.1428 46.9004 36.0651 46.8922 35.864 46.4072L35.3795 45.7103C35.3755 45.7052 35.3698 45.6976 35.3657 45.6926C35.3351 45.6545 35.351 45.6766 35.3234 45.6434C35.2815 45.5929 35.2236 45.5074 35.153 45.4468L34.5168 44.9657C34.2263 44.7774 33.8258 44.6222 33.4271 44.5554C32.4066 44.3842 31.1439 44.5455 30.2691 44.9695C29.8625 45.1666 29.4055 45.325 29.0286 45.5981C28.9344 45.6663 28.8843 45.6859 28.7978 45.7403C28.518 45.9165 28.1704 46.1536 27.9303 46.363C27.8611 46.4234 27.7877 46.4919 27.7245 46.5346L27.1094 47.0385C27.0479 47.0897 26.9931 47.1736 26.9297 47.2331L26.0077 48.1765C25.9523 48.246 25.8912 48.3089 25.8248 48.3714C25.6244 48.56 25.2973 48.9607 25.1441 49.179L24.6532 49.8106C24.536 49.9529 24.4074 50.0982 24.3163 50.2663Z" fill="#032930"/>
<path fill-rule="evenodd" clip-rule="evenodd" d="M37.8165 50.2684L38.9272 50.2665C38.9238 49.0516 38.9544 48.4713 38.7022 47.2611C38.6078 46.8083 38.5095 46.3883 38.3492 46.0093L37.405 44.3343C37.0886 43.9413 36.6819 43.5326 36.2738 43.2268C34.8218 42.1382 32.9838 41.752 31.17 42.1698C30.9497 42.2206 30.7279 42.2595 30.5228 42.3293C30.3294 42.3952 30.1175 42.4455 29.9109 42.5304L29.0673 42.8972C28.3856 43.1632 27.6692 43.7064 27.0605 44.1262L26.6106 44.4846C26.5003 44.5736 26.5459 44.4928 26.3827 44.663C26.2289 44.8231 26.0526 44.9213 25.9413 45.0306L25.2531 45.7399C25.2087 45.7928 25.2075 45.8117 25.1566 45.8623C24.9429 46.075 24.4769 46.613 24.7304 46.9274C24.9522 47.2024 25.4329 46.7793 25.5424 46.7136L25.8376 46.5075C25.923 46.4216 25.8205 46.5239 25.8784 46.4555C25.9975 46.3149 25.9573 46.4296 26.097 46.2749C26.2523 46.1029 26.325 46.1079 26.4309 45.9815C26.6052 45.7733 26.5202 45.9123 26.6414 45.7934L26.9029 45.5628C26.9632 45.5152 26.9103 45.5615 26.9606 45.5248L27.5427 45.079C27.6427 45.0102 27.6721 44.9762 27.7779 44.9079L27.9325 44.8092C27.9386 44.805 27.9463 44.7999 27.952 44.7956C28.0347 44.7331 27.997 44.7311 28.1442 44.6564C28.1503 44.6532 28.1585 44.6497 28.1647 44.6465L28.5091 44.4251C28.6068 44.3623 28.683 44.338 28.7742 44.2846L29.5844 43.8816C29.6887 43.8392 29.7709 43.7935 29.8649 43.7526C30.463 43.492 31.5738 43.2216 32.1377 43.189L32.9526 43.1828C33.5562 43.2062 34.2324 43.3783 34.7598 43.619C34.8774 43.6726 34.9413 43.7065 35.032 43.7547L35.5356 44.0579C35.6698 44.1425 35.7739 44.2664 35.9034 44.3815L36.3595 44.8574C36.5005 45.0465 36.4628 44.9252 36.699 45.3178C36.7323 45.3732 36.7394 45.392 36.769 45.44C36.8179 45.5194 36.829 45.5181 36.8581 45.5699C37.1924 46.1652 37.3616 46.6692 37.523 47.3255C37.744 48.2244 37.8165 49.2901 37.8165 50.2684Z" fill="#032930"/>
<path fill-rule="evenodd" clip-rule="evenodd" d="M25.3941 43.8007L25.4463 43.7508C25.4859 43.7128 25.4603 43.7297 25.5065 43.6965L25.8793 43.3822C25.9446 43.3299 25.9369 43.3363 26.0072 43.2957C26.0835 43.2515 26.2394 43.1007 26.4897 42.9391L27.4396 42.3297C27.4454 42.3262 27.4531 42.3215 27.4587 42.3177L28.6936 41.6528L29.4096 41.3777C29.4384 41.3666 29.4708 41.3513 29.4989 41.3406L30.0398 41.1615C31.4032 40.7854 32.4825 40.7396 33.8837 40.8872L34.4681 40.9855C35.1672 41.1462 35.8647 41.379 36.4451 41.7459L36.862 42.0165C37.0792 42.1862 37.2814 42.3214 37.4738 42.5219L38.0314 43.1155C38.7163 43.9786 38.9899 44.5273 39.4441 45.6005C39.7884 46.4141 40.0357 47.5777 40.1242 48.5636C40.1701 49.0746 39.9777 50.3734 40.6883 50.2615C40.8172 50.2412 40.9099 50.1741 40.9848 50.0879C41.209 49.83 41.1268 48.9387 41.1098 48.5361C41.0859 47.9731 41.0074 47.3623 40.8886 46.8244C40.7831 46.3471 40.6601 45.8154 40.4887 45.3881L40.386 45.1247C40.0059 44.2714 39.783 43.7696 39.2158 43.0209L39.0954 42.8386C39.0222 42.727 38.8961 42.6319 38.8089 42.527L38.6239 42.2875C38.5391 42.1993 38.4808 42.1424 38.3928 42.0543L36.8303 40.8794C36.466 40.6632 36.0162 40.4594 35.5554 40.3053C34.566 39.9745 33.5578 39.7898 32.4194 39.8608C31.6425 39.9092 30.8646 40.0562 30.1349 40.3014C29.6082 40.4785 29.0542 40.7155 28.5622 40.9938L27.7314 41.5309C27.6218 41.6088 27.5844 41.6397 27.4554 41.7221C27.2757 41.8368 26.87 42.1738 26.7103 42.3477C26.558 42.5133 26.3687 42.6058 26.2289 42.7965C26.0123 43.0921 25.5068 43.5201 25.3941 43.8007Z" fill="#032930"/>
<path fill-rule="evenodd" clip-rule="evenodd" d="M38.9812 40.6742C38.3769 40.3279 37.9783 40.2497 37.4643 40.0262C37.4485 40.0899 37.4653 40.0483 37.5113 40.0875L37.951 40.3958C38.3865 40.7065 38.4869 40.8027 38.8866 41.1386C39.9617 42.0422 40.8178 43.2335 41.4835 44.4938C41.6786 44.8632 41.8306 45.2498 41.9893 45.6651C42.5675 47.1785 42.702 48.5538 42.702 50.2671L44.8423 50.2783C44.8033 49.9262 44.8001 49.5309 44.7728 49.1994C44.6799 48.0749 44.2397 46.5123 43.7319 45.5405C43.6908 45.4618 43.6698 45.4192 43.6346 45.3497L43.3485 44.83C43.2922 44.7472 43.2871 44.7187 43.247 44.6514L42.8116 43.9968C42.7402 43.8958 42.6673 43.7879 42.5921 43.7039L41.8144 42.797C40.5155 41.5674 40.4468 41.5142 38.9812 40.6742Z" fill="#032930"/>
<path fill-rule="evenodd" clip-rule="evenodd" d="M38.0353 39.276C38.0422 39.2805 38.0523 39.2796 38.0559 39.2896L40.2873 40.4015L41.0389 40.9287C41.0434 40.9325 41.0496 40.9389 41.0541 40.9426C41.1999 41.0632 41.3618 41.1488 41.4777 41.2826C41.6217 40.9269 41.676 40.4833 41.6551 40.085C41.6511 40.0078 41.6513 40.0299 41.6435 39.9801L41.5642 39.5208C41.4119 38.9161 41.1246 38.4469 41.1246 37.9071C40.7037 38.0686 40.8749 38.0673 40.2938 38.162C39.9543 38.2174 39.6728 38.2733 39.3731 38.3673C38.8641 38.5269 38.2477 38.904 38.0353 39.276Z" fill="#032930"/>
<path fill-rule="evenodd" clip-rule="evenodd" d="M21.6215 43.1338C21.9874 43.7289 21.8111 44.735 22.4518 45.6451C22.5601 45.7992 22.8195 46.1456 22.996 46.21C23.0156 46.107 23.1321 45.8514 23.1748 45.7501L24.2065 43.8246C24.2097 43.8194 24.2139 43.8111 24.2171 43.8059L24.6879 43.1513C24.776 43.0388 24.9314 42.8762 24.9741 42.7604C24.4148 42.6499 24.6777 42.5956 23.8889 42.5956C23.005 42.5956 22.3601 43.1013 21.6215 43.1338Z" fill="#032930"/>
<path fill-rule="evenodd" clip-rule="evenodd" d="M31.9779 38.7253L33.4497 38.5813C33.9487 38.5486 34.5155 38.5544 34.9859 38.6073L35.9802 38.7361C35.8407 38.1706 35.7978 37.9834 35.4449 37.4878C35.3594 37.3677 35.2957 37.2981 35.1732 37.1717C34.8607 36.8494 34.842 36.87 34.5545 36.6135C34.457 36.5265 34.3545 36.4482 34.2356 36.3343C34.1172 36.2209 34.0868 36.1403 34.0156 36.0544L33.9801 36.018C33.9757 36.0134 33.9665 36.006 33.9597 36C33.7884 36.4076 32.9802 36.9175 32.7874 37.1597C32.5801 37.4201 32.4382 37.5495 32.2858 37.8384C32.0543 38.2775 32.0942 38.3292 31.9779 38.7253Z" fill="#032930"/>
<path fill-rule="evenodd" clip-rule="evenodd" d="M26.5116 41.2807C26.5665 41.1921 26.7694 41.0463 26.8649 40.9757L27.4704 40.5504C28.3897 39.9428 28.7729 39.7542 29.9209 39.2852C29.7673 38.9366 29.0532 38.5263 28.6194 38.3738C28.1141 38.1961 27.6124 38.1876 27.2339 38.0762C27.0633 38.026 26.9781 37.9618 26.8446 37.9108C26.8367 38.4533 26.5359 38.9925 26.4051 39.4962C26.2881 39.9467 26.2246 40.9106 26.5116 41.2807Z" fill="#032930"/>
<path fill-rule="evenodd" clip-rule="evenodd" d="M42.9819 42.7512L43.5573 43.5342C43.749 43.8017 43.9043 44.064 44.0923 44.3669C44.2635 44.6427 44.4371 44.9965 44.5693 45.2595C44.7277 45.5748 44.8599 45.9849 44.973 46.2138C45.2703 46.047 45.5477 45.6196 45.7133 45.2969C45.7897 45.1479 45.8196 45.0574 45.8747 44.9001C45.9653 44.6413 46.0196 44.3596 46.0637 44.0883C46.2068 43.2097 46.2556 43.4329 46.3293 43.1245C45.551 43.1245 45.1006 42.5762 43.8633 42.5953C43.4806 42.6012 43.2837 42.6991 42.9819 42.7512Z" fill="#032930"/>
<path fill-rule="evenodd" clip-rule="evenodd" d="M30.3424 53.8844C30.2661 53.747 30.3062 52.1568 30.3058 52.0085C30.8747 51.8424 31.6315 52.1167 31.5851 52.9373C31.5401 53.7326 30.9555 53.974 30.3424 53.8844ZM29.6444 54.3649C30.308 54.4148 30.9289 54.4615 31.5084 54.2066C31.6819 54.1302 31.6886 54.0824 31.8216 53.9943C31.9082 53.9369 32.0069 53.8 32.0665 53.7061C32.2547 53.4098 32.3112 52.9725 32.2661 52.6513C32.2557 52.5776 32.2453 52.4967 32.2278 52.4326C32.1642 52.1997 32.064 52.079 31.9387 51.9158C31.8599 51.8131 31.6218 51.663 31.4903 51.617C31.0474 51.4621 30.1101 51.4133 29.6439 51.5457L29.6444 54.3649Z" fill="#032930"/>
<path fill-rule="evenodd" clip-rule="evenodd" d="M43.2921 51.9884C43.6618 51.8796 44.1096 51.981 44.0947 52.3734C44.0808 52.7437 43.6582 52.8187 43.2823 52.7592L43.2921 51.9884ZM44.249 53.0271C44.301 52.9872 44.3551 52.9713 44.418 52.9271C44.5231 52.853 44.6707 52.6519 44.7067 52.5658C44.8144 52.3089 44.7331 51.9027 44.4575 51.6923C44.0179 51.3569 43.1935 51.4905 42.6279 51.5257L42.6277 54.3729L43.2823 54.3855L43.2812 53.2531C43.9587 53.0878 43.9397 53.6796 44.1239 54.1998C44.1269 54.2082 44.1588 54.286 44.1591 54.2868L44.2044 54.3748L44.8416 54.3611C44.8149 54.1911 44.6331 53.493 44.4856 53.2431C44.3978 53.0943 44.394 53.1237 44.249 53.0271Z" fill="#032930"/>
<path fill-rule="evenodd" clip-rule="evenodd" d="M33.6318 54.3765C33.6318 54.072 33.6332 53.7671 33.6318 53.4626C33.6302 53.0988 33.4761 53.1388 34.656 53.1544C34.8693 53.1573 34.8047 53.2362 34.8037 53.4626C34.8024 53.7671 34.8037 54.072 34.8037 54.3765C34.9921 54.3718 35.2773 54.4058 35.4461 54.353L35.4513 52.7154C35.4525 52.616 35.4511 52.6288 35.4462 52.557C35.4379 52.4363 35.4361 52.3111 35.4436 52.19C35.4503 52.0818 35.4488 52.2022 35.4523 52.0891L35.4506 51.8125C35.4513 51.747 35.451 51.6881 35.4504 51.6468C35.4502 51.6362 35.4503 51.5805 35.4503 51.5785C35.4481 51.5374 35.4631 51.5229 35.3697 51.4981L34.8218 51.4976C34.7581 51.7981 34.8821 52.3606 34.7811 52.5949C34.6499 52.6515 33.7856 52.6515 33.6544 52.5949C33.5947 52.4564 33.6153 51.6922 33.6447 51.4976C33.4379 51.4903 33.1747 51.4621 32.9896 51.5146L32.9943 54.3739L33.6318 54.3765Z" fill="#032930"/>
<path fill-rule="evenodd" clip-rule="evenodd" d="M40.2575 53.1474C40.3068 52.9521 40.3818 52.7446 40.4266 52.5454C40.4711 52.3475 40.5158 52.182 40.5645 51.9885L40.9067 53.1301L40.2575 53.1474ZM39.9504 54.3729C39.9719 54.2435 40.023 54.1071 40.0568 53.984C40.0898 53.8635 40.1258 53.7434 40.1563 53.6262C40.3022 53.6233 40.9794 53.5651 41.0403 53.6723C41.0827 53.7469 41.1835 54.2199 41.2801 54.3739L41.9646 54.3729L41.0518 51.513C40.7793 51.4597 40.4721 51.4964 40.1912 51.4935C40.0858 51.6766 39.8055 52.6493 39.7212 52.9255C39.5852 53.3708 39.3692 53.9148 39.2697 54.3712L39.9504 54.3729Z" fill="#032930"/>
<path fill-rule="evenodd" clip-rule="evenodd" d="M24.1068 53.1323C24.1446 52.9001 24.2382 52.7032 24.2846 52.4889C24.3153 52.3473 24.3481 52.1372 24.4179 52.0277C24.4805 52.1241 24.7249 52.9774 24.752 53.1354L24.1068 53.1323ZM23.7957 54.373C23.8217 54.2262 23.8662 54.1179 23.9024 53.97C23.9354 53.8357 23.9444 53.6449 24.0446 53.6182C24.0516 53.6164 24.7701 53.6053 24.8807 53.647L25.1024 54.3732L25.806 54.3611C25.7785 54.2485 25.7361 54.1153 25.6874 53.9993L24.8927 51.4933L24.0135 51.5036L23.669 52.5887C23.6289 52.7006 23.589 52.8234 23.5517 52.9392L23.1011 54.3744L23.7957 54.373Z" fill="#032930"/>
<path fill-rule="evenodd" clip-rule="evenodd" d="M37.0881 53.1242C37.1315 52.9426 37.2166 52.6814 37.2512 52.5524C37.303 52.3595 37.3482 52.1659 37.4093 51.9886L37.7376 53.1443L37.0881 53.1242ZM36.9829 53.6211L37.8573 53.62L38.0756 54.3739L38.7992 54.3729L37.8578 51.4956L36.9786 51.4945C36.9419 51.8825 36.2024 53.8593 36.0963 54.3709L36.7735 54.3734L36.9829 53.6211Z" fill="#032930"/>
<path fill-rule="evenodd" clip-rule="evenodd" d="M27.264 53.1366C27.3302 52.995 27.3073 52.9966 27.3585 52.8262C27.3896 52.7226 27.4156 52.641 27.4415 52.5427C27.4668 52.4464 27.5752 52.0643 27.5721 51.9884C27.6356 52.0583 27.8802 52.9391 27.9253 53.129L27.264 53.1366ZM27.1827 53.6298C27.4735 53.6209 27.743 53.6036 28.0303 53.6306L28.2755 54.371L28.9751 54.353C28.9454 54.3002 28.935 54.2538 28.9172 54.1875L28.2712 52.193C28.2218 52.0147 28.0721 51.6951 28.0577 51.4936C27.1056 51.5049 27.2135 51.4328 27.1216 51.6925L26.2825 54.3747L26.969 54.373L27.1827 53.6298Z" fill="#032930"/>
<path fill-rule="evenodd" clip-rule="evenodd" d="M48.0001 50.2675V50.0715C47.8615 49.9888 47.6022 49.6574 47.4936 49.5233C47.395 49.4016 47.3382 49.3547 47.2432 49.2442C46.8738 48.8142 46.1942 48.3325 45.533 48.2889C45.5777 48.7603 45.6542 49.1192 45.6867 49.7C45.6977 49.8965 45.6774 50.0862 45.7087 50.2783L48.0001 50.2675Z" fill="#032930"/>
<path fill-rule="evenodd" clip-rule="evenodd" d="M20 50.0405V50.2675L22.2675 50.2676C22.2675 49.8844 22.2898 49.5771 22.3044 49.2726L22.4252 48.3598C22.4282 48.3325 22.427 48.295 22.4267 48.2671C22.3064 48.311 22.1719 48.3197 22.0284 48.3704C21.8645 48.4282 21.7953 48.4526 21.6532 48.5236C21.5279 48.5862 21.4234 48.6459 21.3176 48.7142C21.1122 48.8468 21.1598 48.8428 21.0283 48.9515C20.892 49.064 20.8511 49.0857 20.745 49.1984C20.6553 49.2937 20.6195 49.3768 20.5082 49.4894C20.3569 49.6426 20.1694 49.927 20 50.0405Z" fill="#032930"/>
<path fill-rule="evenodd" clip-rule="evenodd" d="M31.0361 50.2581C31.0361 50.2581 31.2625 50.1181 31.542 50.1378L31.6355 50.2677L32.4836 50.2663C32.515 50.0331 32.5283 49.6398 32.4121 49.4202C32.3971 49.3918 32.2937 49.2424 32.2858 49.2339C31.7365 48.6335 30.3795 49.7052 29.9588 50.1996C29.8934 50.2764 29.9379 50.2208 29.9147 50.2678L31.0361 50.2581Z" fill="#032930"/>
<path fill-rule="evenodd" clip-rule="evenodd" d="M24.0563 47.3629C23.8091 47.4758 23.5549 47.8683 23.4539 48.1135C23.2787 48.5392 23.422 49.1838 24.1025 48.5118C24.1205 48.494 24.1333 48.4822 24.1513 48.4643C24.156 48.4597 24.1624 48.4529 24.167 48.4484C24.1716 48.444 24.178 48.4373 24.1824 48.4329L24.3553 48.2349C24.8335 47.6441 24.4196 47.1968 24.0563 47.3629Z" fill="#032930"/>
<path fill-rule="evenodd" clip-rule="evenodd" d="M33.6318 54.3765C33.7071 54.1474 33.6422 53.4829 33.6544 53.1786L34.7811 53.1793C34.7932 53.4829 34.7284 54.1474 34.8036 54.3765C34.8036 54.0719 34.8023 53.7671 34.8036 53.4626C34.8046 53.2362 34.8693 53.1572 34.6559 53.1544C33.476 53.1387 33.6302 53.0988 33.6317 53.4626C33.6331 53.7671 33.6318 54.0719 33.6318 54.3765Z" fill="#032930"/>
<path fill-rule="evenodd" clip-rule="evenodd" d="M33.6543 52.5948C33.7855 52.6514 34.6498 52.6514 34.781 52.5948C34.882 52.3605 34.7579 51.798 34.8217 51.4976C34.7893 51.5445 34.8042 51.4965 34.7866 51.5691L34.781 52.5948H33.6543L33.6446 51.4976C33.6152 51.6921 33.5946 52.4563 33.6543 52.5948Z" fill="#032930"/>
</g>
<defs>
<clipPath id="clip0_64_4499">
<rect width="68" height="68" fill="white"/>
</clipPath>
</defs>
</svg>
