<svg width="42" height="42" viewBox="0 0 42 42" fill="none" xmlns="http://www.w3.org/2000/svg">
<path d="M21 10.8438C22.6997 10.8438 24.3612 11.3478 25.7745 12.2921C27.1877 13.2364 28.2892 14.5785 28.9396 16.1488C29.5901 17.7191 29.7602 19.4471 29.4286 21.1141C29.0971 22.7811 28.2786 24.3124 27.0767 25.5142C25.8749 26.7161 24.3436 27.5346 22.6766 27.8661C21.0096 28.1977 19.2816 28.0276 17.7113 27.3771C16.141 26.7267 14.7989 25.6252 13.8546 24.212C12.9103 22.7987 12.4063 21.1372 12.4063 19.4375C12.4063 17.1583 13.3117 14.9725 14.9233 13.3608C16.535 11.7492 18.7208 10.8438 21 10.8438ZM30.375 8.50002H33.5V11.625C33.5 12.0394 33.6646 12.4369 33.9577 12.7299C34.2507 13.0229 34.6481 13.1875 35.0625 13.1875C35.4769 13.1875 35.8744 13.0229 36.1674 12.7299C36.4604 12.4369 36.625 12.0394 36.625 11.625V8.50002H39.75C40.1644 8.50002 40.5619 8.3354 40.8549 8.04238C41.1479 7.74935 41.3125 7.35192 41.3125 6.93752C41.3125 6.52312 41.1479 6.12569 40.8549 5.83267C40.5619 5.53964 40.1644 5.37502 39.75 5.37502H36.625V2.25002C36.625 1.83562 36.4604 1.43819 36.1674 1.14517C35.8744 0.852142 35.4769 0.687522 35.0625 0.687522C34.6481 0.687522 34.2507 0.852142 33.9577 1.14517C33.6646 1.43819 33.5 1.83562 33.5 2.25002V5.37502H30.375C29.9606 5.37502 29.5632 5.53964 29.2702 5.83267C28.9771 6.12569 28.8125 6.52312 28.8125 6.93752C28.8125 7.35192 28.9771 7.74935 29.2702 8.04238C29.5632 8.3354 29.9606 8.50002 30.375 8.50002ZM39.2324 16.334C38.8238 16.4024 38.459 16.6303 38.2183 16.9677C37.9777 17.305 37.8809 17.7241 37.9492 18.1328C38.1079 19.0803 38.1876 20.0393 38.1875 21C38.1912 25.2074 36.6448 29.2688 33.8438 32.4082C32.7072 30.7611 31.2643 29.348 29.5938 28.2461C29.4511 28.1515 29.2813 28.1064 29.1106 28.1177C28.9398 28.129 28.7774 28.1961 28.6485 28.3086C26.5256 30.1455 23.8122 31.1564 21.0049 31.1564C18.1976 31.1564 15.4843 30.1455 13.3614 28.3086C13.2316 28.1938 13.0674 28.1253 12.8945 28.114C12.7216 28.1027 12.5499 28.1492 12.4063 28.2461C10.7331 29.3468 9.28812 30.76 8.15041 32.4082C5.95227 29.9312 4.51653 26.8719 4.0159 23.5983C3.51527 20.3246 3.97106 16.976 5.32844 13.9553C6.68583 10.9345 8.88701 8.37027 11.6672 6.57089C14.4475 4.77151 17.6883 3.81365 21 3.81252C21.9607 3.81237 22.9197 3.89207 23.8672 4.0508C24.2741 4.115 24.6898 4.01595 25.024 3.7752C25.3582 3.53444 25.5839 3.17147 25.6518 2.76522C25.7198 2.35898 25.6246 1.94233 25.3869 1.6059C25.1493 1.26948 24.7884 1.0405 24.3828 0.968772C20.1396 0.254934 15.7792 0.908098 11.9313 2.83396C8.08348 4.75982 4.94722 7.85871 2.97538 11.6832C1.00355 15.5077 0.298174 19.8599 0.961107 24.1115C1.62404 28.363 3.62098 32.2938 6.66359 35.3365C9.7062 38.3791 13.637 40.376 17.8886 41.0389C22.1401 41.7019 26.4923 40.9965 30.3168 39.0247C34.1413 37.0528 37.2402 33.9166 39.1661 30.0687C41.0919 26.2208 41.7451 21.8605 41.0313 17.6172C40.9629 17.2085 40.7349 16.8437 40.3976 16.6031C40.0603 16.3624 39.6411 16.2657 39.2324 16.334Z" fill="white"/>
</svg>
