<svg width="50" height="50" viewBox="0 0 50 50" fill="none" xmlns="http://www.w3.org/2000/svg">
<g clip-path="url(#clip0_65_5679)">
<path d="M43.75 9.375H6.25C5.8356 9.375 5.43817 9.53962 5.14515 9.83265C4.85212 10.1257 4.6875 10.5231 4.6875 10.9375V37.5C4.6875 38.3288 5.01674 39.1237 5.60279 39.7097C6.18884 40.2958 6.9837 40.625 7.8125 40.625H42.1875C43.0163 40.625 43.8112 40.2958 44.3972 39.7097C44.9833 39.1237 45.3125 38.3288 45.3125 37.5V10.9375C45.3125 10.5231 45.1479 10.1257 44.8549 9.83265C44.5618 9.53962 44.1644 9.375 43.75 9.375ZM42.1875 37.5H7.8125V14.4902L23.9434 29.2773C24.2316 29.542 24.6087 29.6888 25 29.6888C25.3913 29.6888 25.7684 29.542 26.0566 29.2773L42.1875 14.4902V37.5Z" fill="white"/>
</g>
<defs>
<clipPath id="clip0_65_5679">
<rect width="50" height="50" fill="white"/>
</clipPath>
</defs>
</svg>
