<svg width="68" height="68" viewBox="0 0 68 68" fill="none" xmlns="http://www.w3.org/2000/svg">
<path fill-rule="evenodd" clip-rule="evenodd" d="M34.8223 27.0967C36.4123 27.0967 37.8548 26.8465 38.9252 27.8558C39.2991 28.2084 39.6843 28.8616 39.6843 29.5689V33.854H28.477C28.477 30.131 31.764 27.0967 34.8223 27.0967ZM21.5548 41.1882C21.5548 44.0247 21.6856 47.3615 24.0594 49.1493C24.9574 49.8257 26.0194 50.0891 27.5705 50.0882C29.0533 50.0873 30.385 50.1705 31.9381 50.1705H37.0473C38.4386 50.1705 39.5347 50.0882 40.9204 50.0882V44.8965C40.9204 44.4892 39.8138 44.6493 39.025 44.6493C38.3109 44.6493 37.5967 44.6492 36.8825 44.6493C36.0873 44.6494 35.5298 44.5618 34.8234 44.5659L30.5492 44.5549C29.1046 44.3927 26.664 45.1219 26.664 41.8475C26.664 41.1193 26.748 40.5415 26.8416 39.8825C26.927 39.2815 27.1953 38.6049 27.2409 38.0568C32.5598 38.0568 38.033 37.8919 43.3926 37.8919C44.2267 34.3119 44.4322 30.1334 43.0631 26.6845C41.9414 23.8587 39.3921 22.2289 36.3864 22.1538C35.9869 22.1439 35.9842 22.0642 35.6511 22.0738C35.3629 22.0821 35.3073 22.1516 34.9069 22.1545C33.8436 22.1619 32.9969 22.3639 32.1192 22.5806C31.1801 22.8125 30.5528 23.091 29.7396 23.4973C25.2468 25.7417 23.1673 30.6845 22.2201 35.3434C22.08 36.0325 21.5548 40.4249 21.5548 41.1882Z" fill="#032930"/>
<path fill-rule="evenodd" clip-rule="evenodd" d="M15.1271 20.7513C15.1271 21.4027 15.4646 21.7402 16.116 21.7402C16.6592 21.7402 16.9096 21.1642 17.1396 20.7862C17.7694 19.7512 18.553 18.7834 19.3496 17.8869C21.4685 15.5025 24.2561 13.5653 27.4702 12.74C29.5145 12.2151 29.6145 12.45 31.0792 12.2287C31.7551 12.1266 34.2114 12.3251 34.9097 12.4234C37.2998 12.7596 39.0228 13.3008 41.1403 14.351C42.1339 14.8437 43.8838 16.0383 44.7334 16.8559C47.5496 19.5667 48.8479 22.143 49.9756 25.9525C51.4679 30.9936 51.0118 37.5066 49.4194 42.2706C48.7368 44.3125 47.5949 46.7938 46.6075 48.6884C46.4721 48.9482 46.1944 49.2547 46.1944 49.5937C46.1944 50.286 46.5734 50.5826 47.1833 50.5826C47.9402 50.5826 48.1408 49.6574 48.4541 49.1341C48.9473 48.3106 49.8496 46.3545 50.209 45.4501C50.4896 44.7437 50.7414 44.1559 50.9845 43.4237C51.4293 42.0843 51.8763 40.7207 52.1628 39.1632C53.4133 32.3672 52.6672 24.6191 48.948 18.9043C47.398 16.5227 45.2926 14.5108 42.8116 13.0917C42.5218 12.9259 42.2782 12.777 41.9654 12.6194C37.5182 10.3794 30.5683 9.49371 25.6272 11.3915C21.9671 12.7972 19.5004 14.7282 17.0859 17.6834C16.6246 18.2479 15.1271 20.1953 15.1271 20.7513Z" fill="#032930"/>
<path fill-rule="evenodd" clip-rule="evenodd" d="M13.6445 12.181C13.6445 13.0447 14.4832 13.6935 15.5592 12.6124C17.0217 11.1428 20.1929 9.22604 21.8841 8.47156C24.3453 7.37353 26.001 6.8405 28.7822 6.46978C29.1151 6.4254 29.7231 6.33011 30.1232 6.32732C30.7472 6.323 31.0277 6.24763 31.6092 6.24763C32.5365 6.24763 33.6689 6.32949 34.5612 6.42708C37.9264 6.79522 39.3036 7.41671 42.0864 8.54351C43.2008 8.99469 45.1556 10.2913 46.0775 10.9801C48.072 12.4703 49.2927 13.9203 50.7868 15.9124C52.0946 17.6561 53.2737 20.2023 54.0343 22.3065C55.164 25.4319 55.8368 29.882 55.8368 33.3595C55.8368 34.2356 55.7517 34.8748 55.7537 35.6664C55.755 36.1353 55.5984 37.2326 56.6609 37.2326C57.7571 37.2326 57.6497 35.8448 57.6497 35.09C57.6497 31.9758 57.6689 29.5656 57.0388 26.4715C56.3262 22.9727 55.2795 19.638 53.483 16.6773C53.0408 15.9487 52.6604 15.3544 52.1954 14.6686C51.5359 13.6956 49.8809 11.7779 49.0994 11.0897L48.2207 10.3203C46.271 8.80543 45.7052 8.27087 43.2011 7.0168C40.5062 5.66716 36.4328 4.43469 32.4333 4.43469C29.0689 4.43469 26.1821 4.74941 23.1453 5.94204C22.3662 6.24798 21.6468 6.48872 20.9228 6.85102C20.0977 7.26388 19.1636 7.72008 18.4079 8.20929C17.1542 9.02103 15.87 9.82586 14.7774 10.8416C14.4613 11.1355 13.6445 11.633 13.6445 12.181Z" fill="#032930"/>
<path fill-rule="evenodd" clip-rule="evenodd" d="M10.348 39.0456C10.348 45.9875 12.1307 51.4985 16.3056 56.4915C16.428 56.6379 16.5365 56.7307 16.6726 56.8661C18.6034 58.7856 19.6608 59.7595 22.3791 61.1309C28.986 64.4641 39.1186 63.9032 44.9252 59.3664C45.4533 58.9538 46.7718 57.8024 46.7718 57.175C46.7718 56.2689 45.6471 55.957 45.063 56.62C44.3183 57.4652 44.9028 56.8875 43.9088 57.7731C41.2258 60.1633 36.3418 61.3778 32.5154 61.3778C28.6903 61.3778 26.3497 61.0138 23.0112 59.3451C21.8007 58.74 20.3246 57.7599 19.3103 56.8654C18.1869 55.8746 17.2426 54.77 16.3508 53.562C15.4691 52.3677 14.2622 50.003 13.7989 48.6149C12.4142 44.467 12.2433 42.5902 12.2433 38.0567C12.2433 36.7809 12.5511 35.2976 12.2788 34.8073C11.8904 34.1077 10.8952 34.3025 10.651 34.8986C10.46 35.3653 10.348 38.3577 10.348 39.0456Z" fill="#032930"/>
<path fill-rule="evenodd" clip-rule="evenodd" d="M18.259 27.5087C18.259 28.6922 19.2616 28.6968 19.7127 28.3856C19.8893 28.2638 19.9218 28.1507 20.0194 27.9506C20.2077 27.5652 20.3495 27.286 20.5386 26.9041C21.5313 24.8994 22.3694 23.9892 23.6607 22.4447L24.0468 22.0068C27.8691 18.0996 33.6488 16.658 38.7513 19.0479L40.8221 20.1909C42.8528 21.5388 44.514 23.6234 45.4195 25.8943L46.0308 27.7553C46.4609 29.3706 46.1865 29.9809 47.431 29.9809C48.932 29.9809 47.7232 26.8559 47.5251 26.261C47.2663 25.4841 46.8781 24.5568 46.5257 23.8817C46.1631 23.1874 45.667 22.4204 45.207 21.8216C44.9486 21.4853 44.7058 21.2198 44.4192 20.879C44.158 20.5683 43.8725 20.2388 43.5702 19.9974C41.2414 18.1384 40.0624 17.331 36.9493 16.4822C36.5014 16.3601 36.0034 16.2686 35.5187 16.1824C34.1708 15.9427 32.2725 15.956 30.8873 16.239C27.9583 16.8374 26.2747 17.7883 23.9915 19.5617L21.4539 22.1333C20.6238 23.1496 18.259 26.6306 18.259 27.5087Z" fill="#032930"/>
<path fill-rule="evenodd" clip-rule="evenodd" d="M15.7869 38.3039C15.7869 40.3841 15.7688 41.3611 16.1389 43.4731C16.2287 43.9852 16.3383 44.5727 16.467 45.1229C16.5839 45.623 16.7896 46.2415 16.9229 46.7271C17.0677 47.255 17.2538 47.6998 17.4468 48.181C18.0061 49.5756 18.675 50.9615 19.5651 52.1608C19.8582 52.5558 20.0937 52.9115 20.423 53.2807L21.4112 54.3526C23.4335 56.3764 26.5435 58.0815 29.7961 58.0815C30.502 58.0815 32.1035 58.3062 32.1035 57.175C32.1035 55.8781 30.502 56.2686 30.3729 56.2686C27.3755 56.2686 24.6457 54.9763 22.7581 53.0882C22.7461 53.0762 22.7291 53.0586 22.7174 53.0464L22.5626 52.8716C21.0941 51.2667 20.4666 50.4394 19.5223 48.4129C17.1592 43.3416 17.061 36.3363 18.867 31.0007C18.9795 30.6685 19.2068 30.1382 19.123 29.7828C19.0131 29.3167 18.6705 29.0743 18.1767 29.0743C17.3066 29.0743 17.2215 30.0718 16.992 30.7739C16.3432 32.7594 15.7869 36.1117 15.7869 38.3039Z" fill="#032930"/>
<path fill-rule="evenodd" clip-rule="evenodd" d="M33.8342 56.4335C33.8342 57.8162 35.3471 57.3256 35.998 57.1963C36.8605 57.0252 37.803 56.7235 38.5324 56.4346L41.2997 55.0815C41.4955 54.9635 41.6011 54.8804 41.7948 54.7525C42.178 54.4996 42.5132 54.3837 42.5222 53.7852C42.5288 53.3425 42.288 52.9904 41.833 52.8815C41.3855 52.7743 41.0711 53.0115 40.7073 53.253C40.0559 53.6854 39.2405 54.0857 38.5044 54.4287C35.6875 55.7413 33.8342 55.1896 33.8342 56.4335Z" fill="#032930"/>
<path fill-rule="evenodd" clip-rule="evenodd" d="M11.1716 31.2993C11.1716 31.9138 12.2341 32.5787 12.8823 31.6915C13.0185 31.5051 13.5994 28.9518 13.7082 28.5619L15.0447 24.6244C15.0447 23.6785 13.6816 23.2915 13.2295 24.2925C12.6608 25.5515 11.9581 27.8178 11.633 29.1237C11.5013 29.6529 11.1716 30.7785 11.1716 31.2993Z" fill="#032930"/>
</svg>
