<svg width="28" height="27" viewBox="0 0 28 27" fill="none" xmlns="http://www.w3.org/2000/svg">
<g clip-path="url(#clip0_212_233)">
<path d="M13.9999 6.53516C10.1936 6.53516 7.10168 9.62175 7.10168 13.4334C7.10168 17.245 10.1883 20.3316 13.9999 20.3316C17.8115 20.3316 20.8981 17.245 20.8981 13.4334C20.8981 9.62175 17.8115 6.53516 13.9999 6.53516ZM13.9999 17.906C11.5263 17.906 9.52192 15.9016 9.52192 13.428C9.52192 10.9545 11.5263 8.95006 13.9999 8.95006C16.4734 8.95006 18.4779 10.9545 18.4779 13.428C18.4779 15.9016 16.4734 17.906 13.9999 17.906Z" fill="#032930"/>
<path d="M21.1699 7.86831C22.0591 7.86831 22.7799 7.14752 22.7799 6.25837C22.7799 5.36923 22.0591 4.64844 21.1699 4.64844C20.2808 4.64844 19.56 5.36923 19.56 6.25837C19.56 7.14752 20.2808 7.86831 21.1699 7.86831Z" fill="#032930"/>
<path fill-rule="evenodd" clip-rule="evenodd" d="M7.95712 0C3.87811 0 0.571411 3.3067 0.571411 7.38572V19.4714C0.571411 23.5504 3.87811 26.8571 7.95713 26.8571H20.0428C24.1219 26.8571 27.4286 23.5504 27.4286 19.4714V7.38571C27.4286 3.3067 24.1219 0 20.0428 0H7.95712ZM8.62845 2.6855C5.66189 2.6855 3.25702 5.09037 3.25702 8.05693V18.7998C3.25702 21.7663 5.66189 24.1712 8.62845 24.1712H19.3713C22.3379 24.1712 24.7427 21.7663 24.7427 18.7998V8.05693C24.7427 5.09037 22.3379 2.6855 19.3713 2.6855H8.62845Z" fill="#032930"/>
</g>
<defs>
<clipPath id="clip0_212_233">
<rect width="26.8571" height="26.8571" fill="white" transform="translate(0.571411)"/>
</clipPath>
</defs>
</svg>
