<svg width="28" height="27" viewBox="0 0 28 27" fill="none" xmlns="http://www.w3.org/2000/svg">
<path d="M25.7317 0H2.83973C2.31391 0 1.80964 0.208879 1.43783 0.580684C1.06603 0.95249 0.857147 1.45677 0.857147 1.98258V24.8746C0.857147 25.4004 1.06603 25.9047 1.43783 26.2765C1.80964 26.6483 2.31391 26.8571 2.83973 26.8571H25.7317C26.2575 26.8571 26.7618 26.6483 27.1336 26.2765C27.5054 25.9047 27.7143 25.4004 27.7143 24.8746V1.98258C27.7143 1.45677 27.5054 0.95249 27.1336 0.580684C26.7618 0.208879 26.2575 0 25.7317 0ZM8.86207 22.8789H4.82417V10.0528H8.86207V22.8789ZM6.84032 8.27536C6.38229 8.27278 5.93529 8.13458 5.55573 7.87819C5.17617 7.62181 4.88106 7.25874 4.70765 6.83479C4.53424 6.41085 4.4903 5.94504 4.58137 5.49615C4.67244 5.04726 4.89445 4.6354 5.21937 4.31256C5.54429 3.98973 5.95756 3.77037 6.40703 3.68218C6.85649 3.59399 7.32201 3.64093 7.74483 3.81706C8.16765 3.99318 8.52882 4.29062 8.78276 4.67181C9.0367 5.05301 9.17203 5.50089 9.17167 5.95893C9.17599 6.26559 9.11853 6.56997 9.00271 6.85395C8.88689 7.13792 8.71508 7.39567 8.49752 7.61184C8.27997 7.828 8.02112 7.99815 7.73641 8.11215C7.45169 8.22614 7.14694 8.28165 6.84032 8.27536ZM23.7454 22.8901H19.7094V15.883C19.7094 13.8165 18.8309 13.1787 17.697 13.1787C16.4996 13.1787 15.3246 14.0814 15.3246 15.9352V22.8901H11.2867V10.0621H15.1698V11.8395H15.222C15.6118 11.0506 16.977 9.70214 19.0603 9.70214C21.3133 9.70214 23.7473 11.0394 23.7473 14.9561L23.7454 22.8901Z" fill="#032930"/>
</svg>
