<svg width="174" height="52" viewBox="0 0 174 52" fill="none" xmlns="http://www.w3.org/2000/svg">
<path fill-rule="evenodd" clip-rule="evenodd" d="M49.5771 -3.05176e-05L49.6419 0.000564842H49.4104L49.5771 -3.05176e-05ZM49.833 0.00235508C59.7604 0.099984 68.3274 5.87749 72.4419 14.2412C72.3414 15.14 72.213 16.4302 72.5075 17.7731C72.8241 19.2179 72.1793 20.7782 71.2019 21.8758C70.3342 22.8501 69.9677 23.5784 68.2733 24.169C67.9254 24.2904 67.4594 24.3663 67.1199 24.3809C64.3417 24.4997 62.1309 21.9579 61.5346 21.711L59.5294 21.1947C58.3281 20.8864 58.6978 20.8724 58.115 20.642C56.7051 20.0849 55.6702 20.0502 54.2449 21.0799C52.7796 22.1389 52.9577 22.6623 52.4917 23.7415C52.2977 24.1912 52.0284 24.088 51.9034 24.6111C51.7154 25.3977 51.3141 26.0546 51.0554 26.8114C50.9322 27.1717 50.7872 27.6824 50.8379 28.1839C50.978 29.5744 52.0691 30.8675 53.2567 31.4126C55.1146 32.2656 57.6755 34.3823 58.0323 34.565C59.0387 35.0805 59.1605 35.2323 59.9719 35.7338C60.2045 35.8776 60.1389 35.7772 60.3715 36.0709C61.4691 37.4573 60.858 37.8277 60.6682 38.7269C60.607 39.016 60.5989 38.9631 60.4778 39.2424C60.2793 39.6997 60.3546 39.8576 60.1525 40.29C60.0776 40.4507 59.9661 40.5963 59.8471 40.7684L59.2071 41.7086C59.1302 41.8126 58.9732 42.0734 58.8888 42.1931C58.4417 42.8269 57.5174 43.2027 56.8321 43.8461C56.4782 44.1781 56.2602 44.3652 55.8543 44.6676C55.6025 44.8555 54.8591 45.5841 55.0907 45.6327C55.1972 45.8589 54.4114 46.4757 54.2989 47.0052C53.8168 49.2741 54.9357 48.3761 54.7078 49.6408C54.6408 50.013 54.6637 50.0765 54.4399 50.4714C52.8656 50.7758 51.2403 50.9371 49.5771 50.9371C49.1151 50.9371 48.656 50.9249 48.2001 50.9005V14.6961H49.833V13.0632V11.4303V9.79757V8.16473V6.53199V4.89907V3.26623V1.63349V0.00235508ZM46.5672 14.6961V50.7611C46.0174 50.6963 45.4729 50.614 44.9345 50.5146V14.6961H46.5672ZM43.3016 14.6961V50.1576C42.75 50.0177 42.2055 49.8598 41.6689 49.6846V14.6961H43.3016ZM40.036 14.6961V49.0885C39.4817 48.8644 38.9372 48.6213 38.4031 48.3601V14.6961H40.036ZM36.7704 14.6961V47.4864C29.1982 43.0725 24.1085 34.8654 24.1085 25.4687C24.1085 21.618 24.9638 17.9674 26.494 14.6961H36.7704ZM74.2587 19.1651C74.772 21.1811 75.0456 23.293 75.0456 25.4687C75.0456 37.218 67.0886 47.1076 56.27 50.0465C56.3484 49.8422 56.3988 49.6798 56.4073 49.5899C56.6487 47.0376 54.9195 47.3035 58.8957 43.9173C59.9737 42.9994 60.5528 41.4369 61.0154 40.1341C61.1491 39.7571 60.9219 40.0444 61.1977 39.7546C61.2637 39.6103 61.3248 39.518 61.3994 39.3196C61.5192 39.0008 61.4172 39.0978 61.5686 38.7964C62.0537 36.9729 62.3563 35.6858 61.1767 34.4305C60.8948 34.1305 60.7128 33.9598 60.5362 33.7946C60.0416 33.1973 58.6727 33.3369 57.6962 32.4723C56.5109 31.4229 56.964 32.137 56.367 31.6624L55.0143 30.6761C54.1407 29.9855 53.4419 28.4732 53.323 27.2429C53.1986 25.9558 53.4683 25.1392 53.8877 24.1158C54.3097 23.0856 54.6194 22.1723 56.3357 22.1164C58.1306 22.058 60.4047 23.4644 62.2881 24.0918C63.3753 24.4539 64.2024 24.8562 65.2146 25.4223C67.7916 26.2444 72.315 25.1199 73.7407 20.6298C73.912 20.0895 74.0869 19.6256 74.2587 19.1651Z" fill="#3EA089"/>
<mask id="mask0_4_2014" style="mask-type:luminance" maskUnits="userSpaceOnUse" x="24" y="0" width="52" height="51">
<path d="M49.5771 -3.05176e-05L49.6419 0.000564842H49.4104L49.5771 -3.05176e-05ZM49.833 0.00235508C59.7604 0.099984 68.3274 5.87749 72.4419 14.2412C72.3414 15.14 72.213 16.4302 72.5075 17.7731C72.8241 19.2179 72.1793 20.7782 71.2019 21.8758C70.3342 22.8501 69.9677 23.5784 68.2733 24.169C67.9254 24.2904 67.4594 24.3663 67.1199 24.3809C64.3417 24.4997 62.1309 21.9579 61.5346 21.711L59.5294 21.1947C58.3281 20.8864 58.6978 20.8724 58.115 20.642C56.7051 20.0849 55.6702 20.0502 54.2449 21.0799C52.7796 22.1389 52.9577 22.6623 52.4917 23.7415C52.2977 24.1912 52.0284 24.088 51.9034 24.6111C51.7154 25.3977 51.3141 26.0546 51.0554 26.8114C50.9322 27.1717 50.7872 27.6824 50.8379 28.1839C50.978 29.5744 52.0691 30.8675 53.2567 31.4126C55.1146 32.2656 57.6755 34.3823 58.0323 34.565C59.0387 35.0805 59.1605 35.2323 59.9719 35.7338C60.2045 35.8776 60.1389 35.7772 60.3715 36.0709C61.4691 37.4573 60.858 37.8277 60.6682 38.7269C60.607 39.016 60.5989 38.9631 60.4778 39.2424C60.2793 39.6997 60.3546 39.8576 60.1525 40.29C60.0776 40.4507 59.9661 40.5963 59.8471 40.7684L59.2071 41.7086C59.1302 41.8126 58.9732 42.0734 58.8888 42.1931C58.4417 42.8269 57.5174 43.2027 56.8321 43.8461C56.4782 44.1781 56.2602 44.3652 55.8543 44.6676C55.6025 44.8555 54.8591 45.5841 55.0907 45.6327C55.1972 45.8589 54.4114 46.4757 54.2989 47.0052C53.8168 49.2741 54.9357 48.3761 54.7078 49.6408C54.6408 50.013 54.6637 50.0765 54.4399 50.4714C52.8656 50.7758 51.2403 50.9371 49.5771 50.9371C49.1151 50.9371 48.656 50.9249 48.2001 50.9005V14.6961H49.833V13.0632V11.4303V9.79757V8.16473V6.53199V4.89907V3.26623V1.63349V0.00235508ZM46.5672 14.6961V50.7611C46.0174 50.6963 45.4729 50.614 44.9345 50.5146V14.6961H46.5672ZM43.3016 14.6961V50.1576C42.75 50.0177 42.2055 49.8598 41.6689 49.6846V14.6961H43.3016ZM40.036 14.6961V49.0885C39.4817 48.8644 38.9372 48.6213 38.4031 48.3601V14.6961H40.036ZM36.7704 14.6961V47.4864C29.1982 43.0725 24.1085 34.8654 24.1085 25.4687C24.1085 21.618 24.9638 17.9674 26.494 14.6961H36.7704ZM74.2587 19.1651C74.772 21.1811 75.0456 23.293 75.0456 25.4687C75.0456 37.218 67.0886 47.1076 56.27 50.0465C56.3484 49.8422 56.3988 49.6798 56.4073 49.5899C56.6487 47.0376 54.9195 47.3035 58.8957 43.9173C59.9737 42.9994 60.5528 41.4369 61.0154 40.1341C61.1491 39.7571 60.9219 40.0444 61.1977 39.7546C61.2637 39.6103 61.3248 39.518 61.3994 39.3196C61.5192 39.0008 61.4172 39.0978 61.5686 38.7964C62.0537 36.9729 62.3563 35.6858 61.1767 34.4305C60.8948 34.1305 60.7128 33.9598 60.5362 33.7946C60.0416 33.1973 58.6727 33.3369 57.6962 32.4723C56.5109 31.4229 56.964 32.137 56.367 31.6624L55.0143 30.6761C54.1407 29.9855 53.4419 28.4732 53.323 27.2429C53.1986 25.9558 53.4683 25.1392 53.8877 24.1158C54.3097 23.0856 54.6194 22.1723 56.3357 22.1164C58.1306 22.058 60.4047 23.4644 62.2881 24.0918C63.3753 24.4539 64.2024 24.8562 65.2146 25.4223C67.7916 26.2444 72.315 25.1199 73.7407 20.6298C73.912 20.0895 74.0869 19.6256 74.2587 19.1651Z" fill="white"/>
</mask>
<g mask="url(#mask0_4_2014)">
<path d="M35.1375 14.6439L35.1375 55.522L36.7703 55.522L36.7703 14.6439L35.1375 14.6439Z" fill="#025462"/>
<path d="M38.4032 14.644L38.4032 53.8893L40.036 53.8893L40.036 14.644L38.4032 14.644Z" fill="#025462"/>
<path d="M41.6688 14.6438L41.6688 62.4661L43.3016 62.4661L43.3016 14.6438L41.6688 14.6438Z" fill="#025462"/>
<path d="M44.9342 14.644L44.9342 53.8893L46.567 53.8893L46.567 14.644L44.9342 14.644Z" fill="#025462"/>
<path d="M48.1999 14.6439L48.1999 55.522L49.8327 55.522L49.8327 14.6439L48.1999 14.6439Z" fill="#025462"/>
</g>
<path fill-rule="evenodd" clip-rule="evenodd" d="M18.6961 0.000549316H49.833V1.63338H18.6961V0.000549316Z" fill="#025462"/>
<path fill-rule="evenodd" clip-rule="evenodd" d="M8.93756 3.26627H49.833V4.8991H8.93756V3.26627Z" fill="#025462"/>
<path fill-rule="evenodd" clip-rule="evenodd" d="M0 6.53192H49.833V8.16476H0V6.53192Z" fill="#025462"/>
<path fill-rule="evenodd" clip-rule="evenodd" d="M8.93756 9.79755H49.833V11.4304H8.93756V9.79755Z" fill="#025462"/>
<path fill-rule="evenodd" clip-rule="evenodd" d="M18.6961 13.0632H49.833V14.6961H18.6961V13.0632Z" fill="#025462"/>
<path d="M89.5733 34.5297H96.1076V13.5081H103.314V7.64597H82.4043V13.5081H89.5733V34.5297ZM117.428 35.1644C123.477 35.1644 128.032 31.5426 129.301 25.4937L123.29 24.1122C122.207 27.6967 120.042 29.0409 117.465 29.0409C113.657 29.0409 111.342 25.9792 111.342 21.0878C111.342 16.1965 113.657 13.1347 117.465 13.1347C120.004 13.1347 122.207 14.4789 123.29 18.0634L129.264 16.6819C128.032 10.633 123.477 7.01117 117.428 7.01117C110.184 7.01117 104.77 12.3132 104.77 21.0878C104.77 29.8623 110.184 35.1644 117.428 35.1644ZM132.961 34.5297H139.495V26.1285H142.37C148.979 26.1285 153.198 22.7307 153.198 16.8685C153.198 10.969 148.979 7.64597 142.37 7.64597H132.961V34.5297ZM139.495 20.2664V13.5081H142.37C145.021 13.5081 146.627 14.5909 146.627 16.8685C146.627 19.1835 145.021 20.2664 142.37 20.2664H139.495ZM156.708 34.5297H173.174V28.6675H163.242V7.64597H156.708V34.5297Z" fill="#065363"/>
<path d="M95.243 39.4652V41.158H93.2645V47.1596H91.5059V41.158H89.5273V39.4652H95.243ZM101.029 47.1596L100.616 45.9504H97.6558L97.2711 47.1596H95.3476L97.9636 39.4652H100.206L102.828 47.1596H101.029ZM98.189 44.3016H100.054L99.0903 41.4767L98.189 44.3016ZM106.95 39.4652C107.704 39.4652 108.342 39.7217 108.862 40.2346C109.382 40.7476 109.643 41.3705 109.643 42.1033C109.643 42.8361 109.382 43.459 108.862 43.9719C108.342 44.4849 107.704 44.7414 106.95 44.7414H105.795V47.1596H104.037V39.4652H106.95ZM106.95 43.0926C107.221 43.0926 107.444 42.9973 107.62 42.8068C107.796 42.6163 107.884 42.3817 107.884 42.1033C107.884 41.8248 107.796 41.5904 107.62 41.3998C107.444 41.2093 107.221 41.114 106.95 41.114H105.795V43.0926H106.95ZM111.072 39.4652H112.83V47.1596H111.072V39.4652Z" fill="#025462"/>
<path d="M121.668 47.3134C120.517 47.3134 119.563 46.9305 118.804 46.1647C118.046 45.399 117.667 44.4482 117.667 43.3124C117.667 42.1765 118.046 41.2257 118.804 40.46C119.563 39.6942 120.517 39.3113 121.668 39.3113C122.357 39.3113 122.994 39.4707 123.58 39.7894C124.167 40.1082 124.628 40.5424 124.965 41.092L123.449 41.9714C123.28 41.6709 123.038 41.4382 122.723 41.2734C122.408 41.1085 122.056 41.026 121.668 41.026C120.986 41.026 120.442 41.2349 120.036 41.6526C119.629 42.0703 119.426 42.6235 119.426 43.3124C119.426 44.0012 119.629 44.5544 120.036 44.9721C120.442 45.3898 120.986 45.5987 121.668 45.5987C122.056 45.5987 122.41 45.5144 122.729 45.3459C123.047 45.1774 123.287 44.9465 123.449 44.6534L124.965 45.5328C124.636 46.0823 124.178 46.5166 123.591 46.8353C123.005 47.1541 122.364 47.3134 121.668 47.3134ZM131.355 47.1595L130.943 45.9504H127.983L127.598 47.1595H125.674L128.29 39.4652H130.533L133.154 47.1595H131.355ZM128.516 44.3016H130.381L129.417 41.4767L128.516 44.3016ZM136.892 47.3134C136.108 47.3134 135.454 47.1431 134.93 46.8023C134.406 46.4616 134.034 45.998 133.814 45.4118L135.331 44.5325C135.639 45.2433 136.177 45.5987 136.947 45.5987C137.643 45.5987 137.991 45.3898 137.991 44.9721C137.991 44.745 137.879 44.5673 137.656 44.4391C137.432 44.3108 137.013 44.1624 136.397 43.9939C136.075 43.9059 135.792 43.807 135.551 43.6971C135.309 43.5872 135.073 43.4425 134.842 43.2629C134.611 43.0833 134.435 42.8581 134.314 42.5869C134.193 42.3158 134.133 42.0043 134.133 41.6526C134.133 40.9418 134.387 40.3739 134.897 39.9488C135.406 39.5238 136.012 39.3113 136.716 39.3113C137.346 39.3113 137.903 39.4597 138.387 39.7564C138.87 40.0533 139.251 40.4838 139.53 41.048L138.046 41.9164C137.907 41.6232 137.734 41.4016 137.529 41.2514C137.324 41.1012 137.053 41.026 136.716 41.026C136.452 41.026 136.249 41.0828 136.106 41.1964C135.963 41.31 135.891 41.4474 135.891 41.6086C135.891 41.7992 135.981 41.9641 136.161 42.1033C136.34 42.2424 136.712 42.3964 137.276 42.5649C137.584 42.6602 137.822 42.7372 137.991 42.7957C138.159 42.8544 138.374 42.9514 138.634 43.087C138.894 43.2226 139.092 43.3655 139.227 43.5157C139.363 43.666 139.484 43.8638 139.59 44.1093C139.696 44.3547 139.75 44.6351 139.75 44.9501C139.75 45.683 139.486 46.2601 138.958 46.6814C138.431 47.1027 137.742 47.3134 136.892 47.3134ZM145.301 39.4652H147.059V47.1595H145.301V44.1038H142.882V47.1595H141.124V39.4652H142.882V42.411H145.301V39.4652ZM150.687 45.4668H153.435V47.1595H148.928V39.4652H150.687V45.4668ZM156.512 45.4668H159.59V47.1595H154.754V39.4652H159.535V41.158H156.512V42.433H159.26V44.1038H156.512V45.4668ZM163.822 47.3134C163.038 47.3134 162.384 47.1431 161.86 46.8023C161.336 46.4616 160.964 45.998 160.744 45.4118L162.261 44.5325C162.569 45.2433 163.107 45.5987 163.877 45.5987C164.573 45.5987 164.921 45.3898 164.921 44.9721C164.921 44.745 164.809 44.5673 164.586 44.4391C164.362 44.3108 163.943 44.1624 163.327 43.9939C163.005 43.9059 162.723 43.807 162.481 43.6971C162.239 43.5872 162.003 43.4425 161.772 43.2629C161.541 43.0833 161.365 42.8581 161.244 42.5869C161.123 42.3158 161.063 42.0043 161.063 41.6526C161.063 40.9418 161.318 40.3739 161.827 39.9488C162.336 39.5238 162.943 39.3113 163.646 39.3113C164.276 39.3113 164.833 39.4597 165.317 39.7564C165.8 40.0533 166.182 40.4838 166.46 41.048L164.976 41.9164C164.837 41.6232 164.665 41.4016 164.459 41.2514C164.254 41.1012 163.983 41.026 163.646 41.026C163.382 41.026 163.179 41.0828 163.036 41.1964C162.893 41.31 162.822 41.4474 162.822 41.6086C162.822 41.7992 162.911 41.9641 163.091 42.1033C163.271 42.2424 163.642 42.3964 164.207 42.5649C164.514 42.6602 164.753 42.7372 164.921 42.7957C165.09 42.8544 165.304 42.9514 165.564 43.087C165.824 43.2226 166.022 43.3655 166.158 43.5157C166.293 43.666 166.414 43.8638 166.52 44.1093C166.627 44.3547 166.68 44.6351 166.68 44.9501C166.68 45.683 166.416 46.2601 165.888 46.6814C165.361 47.1027 164.672 47.3134 163.822 47.3134ZM170.582 47.3134C169.798 47.3134 169.144 47.1431 168.62 46.8023C168.096 46.4616 167.724 45.998 167.504 45.4118L169.021 44.5325C169.329 45.2433 169.867 45.5987 170.637 45.5987C171.333 45.5987 171.681 45.3898 171.681 44.9721C171.681 44.745 171.569 44.5673 171.346 44.4391C171.122 44.3108 170.703 44.1624 170.087 43.9939C169.765 43.9059 169.483 43.807 169.241 43.6971C168.999 43.5872 168.763 43.4425 168.532 43.2629C168.301 43.0833 168.125 42.8581 168.004 42.5869C167.883 42.3158 167.823 42.0043 167.823 41.6526C167.823 40.9418 168.078 40.3739 168.587 39.9488C169.096 39.5238 169.703 39.3113 170.406 39.3113C171.036 39.3113 171.593 39.4597 172.077 39.7564C172.56 40.0533 172.942 40.4838 173.22 41.048L171.736 41.9164C171.597 41.6232 171.425 41.4016 171.22 41.2514C171.014 41.1012 170.743 41.026 170.406 41.026C170.142 41.026 169.939 41.0828 169.796 41.1964C169.653 41.31 169.582 41.4474 169.582 41.6086C169.582 41.7992 169.671 41.9641 169.851 42.1033C170.031 42.2424 170.402 42.3964 170.967 42.5649C171.274 42.6602 171.513 42.7372 171.681 42.7957C171.85 42.8544 172.064 42.9514 172.324 43.087C172.584 43.2226 172.782 43.3655 172.918 43.5157C173.053 43.666 173.174 43.8638 173.28 44.1093C173.387 44.3547 173.44 44.6351 173.44 44.9501C173.44 45.683 173.176 46.2601 172.648 46.6814C172.121 47.1027 171.432 47.3134 170.582 47.3134Z" fill="#3EA089"/>
<path d="M142.241 49.2837C142.507 49.2837 142.733 49.3743 142.916 49.5553C143.1 49.7364 143.192 49.9563 143.192 50.215C143.192 50.4737 143.1 50.6936 142.916 50.8746C142.733 51.0557 142.507 51.1463 142.241 51.1463H141.834V51.9999H141.213V49.2837H142.241ZM142.241 50.5642C142.337 50.5642 142.416 50.5306 142.478 50.4633C142.54 50.3961 142.571 50.3133 142.571 50.215C142.571 50.1167 142.54 50.0339 142.478 49.9666C142.416 49.8993 142.337 49.8658 142.241 49.8658H141.834V50.5642H142.241ZM145.124 51.9999L144.611 51.1075H144.317V51.9999H143.696V49.2837H144.783C145.041 49.2837 145.261 49.3743 145.442 49.5553C145.623 49.7364 145.714 49.9563 145.714 50.215C145.714 50.3806 145.668 50.5338 145.576 50.6748C145.484 50.8158 145.363 50.9251 145.213 51.0027L145.792 51.9999H145.124ZM144.317 49.8658V50.5642H144.783C144.868 50.5642 144.941 50.5306 145.002 50.4633C145.063 50.3961 145.093 50.3133 145.093 50.215C145.093 50.1167 145.063 50.0339 145.002 49.9666C144.941 49.8993 144.868 49.8658 144.783 49.8658H144.317ZM146.277 49.2837H146.897V51.9999H146.277V49.2837ZM148.161 51.9999L147.324 49.2837H148.002L148.607 51.2904L149.206 49.2837H149.831L149.001 51.9999H148.161ZM151.928 51.9999L151.782 51.5731H150.737L150.601 51.9999H149.922L150.846 49.2837H151.637L152.563 51.9999H151.928ZM150.925 50.9911H151.584L151.243 49.9938L150.925 50.9911ZM154.619 49.2837V49.8813H153.921V51.9999H153.3V49.8813H152.601V49.2837H154.619ZM155.706 51.4024H156.792V51.9999H155.085V49.2837H156.773V49.8813H155.706V50.3314H156.676V50.9212H155.706V51.4024ZM159.12 51.4024H160.09V51.9999H158.5V49.2837H159.12V51.4024ZM160.556 49.2837H161.177V51.9999H160.556V49.2837ZM164.553 49.2837V51.9999H163.932V50.4207L163.23 51.5731H163.16L162.457 50.4207V51.9999H161.837V49.2837H162.457L163.195 50.4905L163.932 49.2837H164.553ZM165.212 49.2837H165.833V51.9999H165.212V49.2837ZM168.317 49.2837V49.8813H167.618V51.9999H166.997V49.8813H166.299V49.2837H168.317ZM169.403 51.4024H170.49V51.9999H168.782V49.2837H170.47V49.8813H169.403V50.3314H170.373V50.9212H169.403V51.4024ZM172.119 49.2837C172.494 49.2837 172.808 49.4137 173.06 49.6736C173.313 49.9336 173.439 50.2563 173.439 50.6418C173.439 51.0272 173.313 51.35 173.06 51.6099C172.808 51.8699 172.494 51.9999 172.119 51.9999H171.033V49.2837H172.119ZM172.119 51.4024C172.334 51.4024 172.508 51.3332 172.641 51.1948C172.774 51.0564 172.841 50.872 172.841 50.6418C172.841 50.4116 172.774 50.2273 172.641 50.0889C172.508 49.9505 172.334 49.8813 172.119 49.8813H171.654V51.4024H172.119Z" fill="#3EA089"/>
</svg>
