<svg width="536" height="542" viewBox="0 0 536 542" fill="none" xmlns="http://www.w3.org/2000/svg">
<path d="M105.253 20.2672H8.58594C5.96097 20.2672 3.83301 22.3952 3.83301 25.0201V125.876C3.83301 128.501 5.96097 130.629 8.58594 130.629H105.253C107.878 130.629 110.006 128.501 110.006 125.876V25.0201C110.006 22.3952 107.878 20.2672 105.253 20.2672Z" fill="white"/>
<path d="M57.8919 45.1599C52.0855 45.1599 46.4095 46.8817 41.5816 50.1076C36.7538 53.3335 32.9909 57.9185 30.7689 63.2829C28.5469 68.6473 27.9655 74.5502 29.0983 80.245C30.2311 85.9399 33.0271 91.1709 37.1329 95.2767C41.2386 99.3824 46.4697 102.178 52.1645 103.311C57.8593 104.444 63.7622 103.863 69.1266 101.641C74.4911 99.4186 79.0761 95.6558 82.302 90.8279C85.5278 86.0001 87.2496 80.324 87.2496 74.5176C87.2496 66.7315 84.1566 59.2642 78.651 53.7586C73.1453 48.253 65.6781 45.1599 57.8919 45.1599ZM58.336 92.1131C54.7752 92.1131 51.2944 91.0572 48.3338 89.0789C45.3731 87.1007 43.0656 84.2889 41.7029 80.9992C40.3403 77.7095 39.9838 74.0896 40.6784 70.5973C41.3731 67.1049 43.0878 63.897 45.6056 61.3792C48.1234 58.8613 51.3314 57.1466 54.8237 56.452C58.316 55.7573 61.9359 56.1138 65.2256 57.4765C68.5154 58.8391 71.3271 61.1467 73.3054 64.1073C75.2836 67.068 76.3395 70.5488 76.3395 74.1096C76.3395 78.8844 74.4427 83.4636 71.0664 86.84C67.6901 90.2163 63.1108 92.1131 58.336 92.1131Z" fill="#B6E2D8"/>
<path d="M58.3359 45.172V56.0461C61.1779 56.0335 63.9825 56.694 66.5202 57.9733C69.058 59.2527 71.2568 61.1147 72.9368 63.407C74.6168 65.6993 75.7302 68.3567 76.186 71.1619C76.6418 73.9672 76.4271 76.8404 75.5593 79.5467L86.1934 82.4273C87.3984 78.1045 87.5955 73.5628 86.7696 69.1518C85.9437 64.7409 84.1168 60.5782 81.4294 56.9842C78.742 53.3903 75.2659 50.4608 71.2685 48.4212C67.2711 46.3817 62.8591 45.2866 58.3719 45.22L58.3359 45.172Z" fill="#FAFAFA"/>
<path d="M40.2959 74.0737C40.2932 70.5883 41.3022 67.177 43.2005 64.2539C45.0988 61.3308 47.8048 59.0215 50.99 57.6065L46.4771 47.4645C41.146 49.7003 36.5937 53.4603 33.3909 58.273C30.1881 63.0857 28.4776 68.7368 28.4736 74.5178C28.4736 74.9378 28.4736 75.3459 28.4736 75.718H40.2839C40.3319 75.2019 40.2959 74.6378 40.2959 74.0737Z" fill="#91D4C4"/>
<path d="M58.3362 92.1132C57.0531 92.1126 55.7737 91.9758 54.5195 91.7051C54.0634 94.3216 53.2112 99.3866 52.5391 103.383C54.3043 103.713 56.0964 103.877 57.8921 103.875C64.2989 103.876 70.5298 101.78 75.6336 97.9071C80.7373 94.0343 84.4334 88.5977 86.1576 82.4273L75.5596 79.5468C74.4014 83.2027 72.1061 86.3933 69.0081 88.6537C65.91 90.914 62.1712 92.1261 58.3362 92.1132Z" fill="#91D4C4"/>
<path d="M54.4344 75.5379H53.3542V76.9422H51.8419V75.5379H48.2412V74.4938L51.3858 70.2689H53.0061L50.1016 74.2297H51.8899V73.0295H53.3542V74.2297H54.4344V75.5379Z" fill="#B6E2D8"/>
<path d="M54.8906 73.6056C54.8906 71.3972 56.0909 70.1489 57.7472 70.1489C59.4035 70.1489 60.6157 71.3492 60.6157 73.6056C60.6157 75.862 59.4155 77.0503 57.7472 77.0503C56.0789 77.0503 54.8906 75.802 54.8906 73.6056ZM59.0554 73.6056C59.0554 72.0813 58.5273 71.4572 57.7472 71.4572C56.967 71.4572 56.4509 72.0813 56.4509 73.6056C56.4509 75.1299 56.991 75.742 57.7472 75.742C58.5033 75.742 59.0554 75.1179 59.0554 73.6056Z" fill="#B6E2D8"/>
<path d="M61.2521 72.0333C61.2326 71.8047 61.2608 71.5746 61.3348 71.3575C61.4089 71.1404 61.5273 70.9411 61.6824 70.7721C61.8376 70.6032 62.0261 70.4683 62.2361 70.376C62.4461 70.2837 62.673 70.2361 62.9024 70.2361C63.1318 70.2361 63.3587 70.2837 63.5687 70.376C63.7787 70.4683 63.9673 70.6032 64.1224 70.7721C64.2776 70.9411 64.3959 71.1404 64.47 71.3575C64.5441 71.5746 64.5722 71.8047 64.5527 72.0333C64.5722 72.2618 64.5441 72.4919 64.47 72.709C64.3959 72.9261 64.2776 73.1255 64.1224 73.2944C63.9673 73.4634 63.7787 73.5983 63.5687 73.6905C63.3587 73.7828 63.1318 73.8305 62.9024 73.8305C62.673 73.8305 62.4461 73.7828 62.2361 73.6905C62.0261 73.5983 61.8376 73.4634 61.6824 73.2944C61.5273 73.1255 61.4089 72.9261 61.3348 72.709C61.2608 72.4919 61.2326 72.2618 61.2521 72.0333ZM63.6526 72.0333C63.6526 71.3131 63.3765 70.9771 62.9564 70.9771C62.5363 70.9771 62.2603 71.3251 62.2603 72.0333C62.2603 72.7414 62.5483 73.0895 62.9564 73.0895C63.3645 73.0895 63.5565 72.7414 63.5565 72.0333H63.6526ZM66.9292 70.2689H68.1294L63.5685 76.9422H62.3563L66.9292 70.2689ZM65.837 75.1779C65.8718 74.8598 65.998 74.5586 66.2003 74.3106C66.4026 74.0627 66.6725 73.8787 66.9771 73.7809C67.2818 73.6831 67.6083 73.6756 67.9172 73.7594C68.226 73.8432 68.504 74.0146 68.7174 74.253C68.9309 74.4914 69.0707 74.7866 69.12 75.1027C69.1693 75.4189 69.126 75.7426 68.9952 76.0347C68.8645 76.3268 68.6519 76.5747 68.3833 76.7485C68.1146 76.9224 67.8013 77.0147 67.4813 77.0142C67.2448 77.0208 67.0096 76.9766 66.7916 76.8846C66.5736 76.7926 66.3778 76.655 66.2174 76.481C66.0571 76.307 65.9359 76.1007 65.862 75.8759C65.7881 75.6511 65.7632 75.4131 65.789 75.1779H65.837ZM68.2375 75.1779C68.2375 74.4698 67.9614 74.1217 67.5413 74.1217C67.1212 74.1217 66.8452 74.4578 66.8452 75.1779C66.8452 75.898 67.1332 76.2341 67.5413 76.2341C67.9494 76.2341 68.1294 75.874 68.1294 75.1779H68.2375Z" fill="#B6E2D8"/>
<path d="M82.1843 111.281C82.1843 111.437 71.3101 111.569 57.8915 111.569C44.4729 111.569 33.5508 111.437 33.5508 111.281C33.5508 111.125 44.4249 111.005 57.8435 111.005C71.2621 111.005 82.1843 111.137 82.1843 111.281Z" fill="#B6E2D8"/>
<path d="M71.3703 115.746C71.3703 115.902 65.3692 116.022 57.8917 116.022C50.4143 116.022 44.4131 115.902 44.4131 115.746C44.4131 115.59 50.4143 115.47 57.8917 115.47C65.3692 115.47 71.3703 115.59 71.3703 115.746Z" fill="#B6E2D8"/>
<path d="M14.4187 32.3296C15.8969 32.3296 17.0952 31.1313 17.0952 29.6531C17.0952 28.1749 15.8969 26.9766 14.4187 26.9766C12.9405 26.9766 11.7422 28.1749 11.7422 29.6531C11.7422 31.1313 12.9405 32.3296 14.4187 32.3296Z" fill="#B6E2D8"/>
<path d="M21.3211 32.3296C22.7993 32.3296 23.9976 31.1313 23.9976 29.6531C23.9976 28.1749 22.7993 26.9766 21.3211 26.9766C19.8429 26.9766 18.6445 28.1749 18.6445 29.6531C18.6445 31.1313 19.8429 32.3296 21.3211 32.3296Z" fill="#B6E2D8"/>
<path d="M30.8862 29.653C30.8862 30.1824 30.7293 30.6998 30.4352 31.14C30.1411 31.5801 29.7231 31.9232 29.234 32.1258C28.7449 32.3284 28.2068 32.3814 27.6876 32.2781C27.1684 32.1748 26.6915 31.9199 26.3171 31.5456C25.9428 31.1713 25.6879 30.6943 25.5846 30.1752C25.4814 29.656 25.5344 29.1178 25.7369 28.6287C25.9395 28.1397 26.2826 27.7216 26.7227 27.4275C27.1629 27.1334 27.6804 26.9765 28.2097 26.9765C28.5617 26.9749 28.9104 27.043 29.2359 27.177C29.5613 27.3109 29.857 27.508 30.1059 27.7569C30.3547 28.0057 30.5518 28.3014 30.6857 28.6268C30.8197 28.9523 30.8878 29.3011 30.8862 29.653Z" fill="#B6E2D8"/>
<path d="M486.436 59.3108C486.167 58.1293 486.03 56.9217 486.027 55.7101C485.977 54.2597 485.816 52.8154 485.547 51.3892C485.307 49.4281 484.926 47.4867 484.407 45.5801C483.158 40.3292 481.136 35.2932 478.406 30.6372C474.813 24.458 470.071 19.0232 464.435 14.6261C457.178 8.89143 448.6 5.06638 439.483 3.50021C430.367 1.93405 421.004 2.67669 412.249 5.66031C407.204 7.32536 402.444 9.75403 398.134 12.8617C395.898 14.4431 393.769 16.1712 391.761 18.0347C389.776 19.9976 387.923 22.0907 386.216 24.2999C379.04 33.5644 375.016 44.8811 374.731 56.5961C374.446 68.3111 377.915 79.8102 384.632 89.4126C386.229 91.7027 387.977 93.884 389.865 95.9419C391.782 97.8953 393.822 99.7235 395.974 101.415C400.13 104.729 404.769 107.388 409.729 109.301C421.721 113.987 434.965 114.381 447.215 110.417C459.465 106.454 469.968 98.3754 476.942 87.5523C479.909 83.04 482.183 78.1082 483.687 72.9214C484.291 71.0401 484.765 69.1191 485.103 67.1723C485.443 65.7636 485.676 64.3313 485.799 62.8875C485.856 61.6695 486.049 60.4617 486.376 59.2868C486.513 60.4831 486.513 61.6912 486.376 62.8875C486.366 64.3607 486.229 65.8305 485.967 67.2803C485.722 69.2809 485.321 71.2593 484.767 73.1975C483.438 78.5813 481.266 83.7215 478.334 88.4284C474.075 95.4024 468.374 101.385 461.613 105.974C454.852 110.564 447.188 113.654 439.134 115.038C428.906 116.749 418.406 115.68 408.732 111.941C403.496 109.97 398.593 107.206 394.198 103.743C391.918 101.97 389.757 100.05 387.728 97.9943C385.728 95.8328 383.876 93.5392 382.183 91.129C375.054 81.0115 371.368 68.8698 371.668 56.4967C371.969 44.1236 376.24 32.1751 383.852 22.4156C385.662 20.0895 387.627 17.8881 389.733 15.8263C391.855 13.8711 394.104 12.0588 396.466 10.4012C401.028 7.16517 406.06 4.64745 411.385 2.93577C421.228 -0.319896 431.763 -0.879394 441.895 1.31546C449.897 3.07771 457.429 6.53363 463.983 11.4506C470.538 16.3676 475.963 22.6316 479.894 29.821C482.598 34.6669 484.522 39.908 485.595 45.352C486.044 47.3265 486.337 49.333 486.472 51.3532C486.663 52.8132 486.727 54.287 486.664 55.7581C486.72 56.9471 486.644 58.1388 486.436 59.3108Z" fill="#91D4C4"/>
<path d="M475.117 23.9399C475.237 24.108 474.217 24.9962 472.248 26.4604L468.648 29.0769C467.927 29.569 467.171 30.1332 466.331 30.6613L463.547 32.1135C453.423 37.8988 441.909 40.8042 430.252 40.5152L425.211 40.2871L420.41 39.531C419.63 39.399 418.838 39.2909 418.07 39.1349L415.813 38.5348C414.325 38.1267 412.849 37.7786 411.456 37.3346C406.49 35.6775 401.717 33.4883 397.222 30.8053C389.636 26.2204 385.939 22.0436 386.228 21.7795C386.516 21.5155 390.656 24.9241 398.302 28.8849C402.762 31.2085 407.422 33.1286 412.225 34.622C413.581 35.0181 414.997 35.3182 416.425 35.6782L418.598 36.2183L420.854 36.5664L425.475 37.2385L430.276 37.4306C441.444 37.6814 452.504 35.2098 462.502 30.2292L465.323 29.0289C466.187 28.5849 466.967 28.1048 467.723 27.6847L471.636 25.4522C473.725 24.312 474.985 23.8199 475.117 23.9399Z" fill="#91D4C4"/>
<path d="M384.536 92.7734C384.404 92.6053 385.424 91.7172 387.392 90.2529L390.993 87.6364C391.713 87.1323 392.469 86.5802 393.31 86.0521L396.106 84.5998C406.225 78.8126 417.735 75.907 429.389 76.1981L434.43 76.4262L439.23 77.1823C440.023 77.3144 440.803 77.4224 441.571 77.5784L443.839 78.1785C445.316 78.5866 446.792 78.9347 448.184 79.3788C453.112 81.0354 457.848 83.2163 462.311 85.884C469.896 90.4689 473.593 94.6457 473.305 94.9098C473.017 95.1738 468.876 91.7652 461.231 87.8044C456.776 85.4986 452.125 83.5947 447.332 82.1153C445.976 81.7192 444.56 81.4192 443.131 81.0471L440.959 80.519L438.786 80.2309L434.165 79.5588L429.365 79.3548C418.197 79.1054 407.137 81.5769 397.138 86.5562L394.318 87.7564C393.454 88.2005 392.673 88.6806 391.917 89.1007L388.052 91.2251C385.916 92.4013 384.656 92.9534 384.536 92.7734Z" fill="#91D4C4"/>
<path d="M486.411 60.619C486.411 61.4832 461.026 61.5672 429.76 60.8111C398.494 60.0549 373.217 58.7347 373.217 57.8705C373.217 57.0063 398.59 56.9343 429.868 57.6905C461.146 58.4466 486.423 59.8269 486.411 60.619Z" fill="#91D4C4"/>
<path d="M427.228 114.486C426.363 114.486 426.279 89.1126 427.048 57.8705C427.816 26.6284 429.112 1.29144 429.976 1.31545C430.84 1.33945 430.912 26.6764 430.156 57.9425C429.4 89.2086 428.044 114.51 427.228 114.486Z" fill="#91D4C4"/>
<path d="M427.227 114.402C427.011 114.738 420.77 110.501 413.581 100.935C409.377 95.3058 405.972 89.122 403.463 82.5594C400.402 74.4574 398.915 65.8458 399.082 57.1865C399.288 48.519 401.23 39.9808 404.795 32.0776C407.652 25.6584 411.358 19.6516 415.813 14.2181C423.435 5.00029 429.724 0.919489 429.94 1.24355C430.156 1.56762 424.551 6.23653 417.554 15.5743C413.47 21.0098 410.057 26.9176 407.388 33.1698C404.137 40.7673 402.362 48.9135 402.155 57.1745C402.003 65.4561 403.345 73.6973 406.115 81.5032C408.423 87.889 411.519 93.9613 415.333 99.5787C421.886 109.313 427.504 114.066 427.227 114.402Z" fill="#91D4C4"/>
<path d="M431.2 1.32746C431.416 1.0034 437.658 5.22822 444.859 14.8061C449.063 20.435 452.468 26.6189 454.977 33.1817C458.033 41.2808 459.52 49.8876 459.358 58.5426C459.143 67.2141 457.196 75.7551 453.633 83.6635C450.754 90.0634 447.032 96.0496 442.566 101.463C434.945 110.681 428.656 114.762 428.452 114.438C428.248 114.113 433.841 109.445 440.838 100.107C444.917 94.675 448.326 88.7712 450.992 82.5233C454.239 74.9244 456.019 66.7794 456.237 58.5186C456.385 50.2401 455.039 42.0028 452.264 34.2019C449.956 27.8126 446.86 21.7364 443.047 16.1143C436.505 6.42846 430.888 1.67553 431.2 1.32746Z" fill="#91D4C4"/>
<path d="M356.282 468.795V436.328C362.657 436.33 368.89 438.212 374.2 441.739C379.51 445.265 383.663 450.28 386.137 456.155C388.612 462.029 389.299 468.504 388.112 474.767C386.926 481.03 383.918 486.804 379.466 491.367C375.014 495.929 369.315 499.077 363.083 500.417C356.851 501.757 350.362 501.229 344.428 498.899C338.494 496.569 333.38 492.541 329.724 487.318C326.068 482.096 324.034 475.912 323.876 469.539L356.282 468.795Z" fill="#91D4C4"/>
<path d="M348.373 460.045L315.906 460.777C315.899 452.101 319.185 443.745 325.1 437.397C331.162 431.323 339.326 427.812 347.905 427.591L348.373 460.045Z" fill="#3EA089"/>
<path d="M532.717 541.121C532.717 541.301 415.094 541.433 270.01 541.433C124.925 541.433 7.27832 541.301 7.27832 541.121C7.27832 540.941 124.901 540.809 270.01 540.809C415.118 540.809 532.717 540.917 532.717 541.121Z" fill="#032930"/>
<path d="M394.966 294.749H292.97C289.065 294.749 285.9 297.914 285.9 301.818V364.267C285.9 368.171 289.065 371.336 292.97 371.336H394.966C398.87 371.336 402.035 368.171 402.035 364.267V301.818C402.035 297.914 398.87 294.749 394.966 294.749Z" fill="white"/>
<path d="M394.977 371.348C394.977 371.348 395.301 371.348 395.937 371.24C396.866 371.11 397.758 370.787 398.554 370.292C399.859 369.495 400.873 368.3 401.447 366.883C402.179 365.203 401.867 363.054 401.927 360.702C401.927 351.244 401.867 337.573 401.819 320.698C401.819 316.473 401.819 312.056 401.819 307.495C401.819 306.295 401.819 305.179 401.819 304.003C401.874 302.832 401.825 301.66 401.675 300.498C401.435 299.342 400.898 298.268 400.117 297.382C399.336 296.496 398.339 295.828 397.222 295.445C396.056 295.094 394.835 294.964 393.621 295.061H365.632H292.981C291.435 295.062 289.935 295.592 288.732 296.564C287.529 297.536 286.694 298.89 286.368 300.402C286.237 301.163 286.184 301.935 286.212 302.706V328.343C286.212 340.49 286.212 352.216 286.212 363.378C286.105 364.727 286.353 366.08 286.932 367.303C287.522 368.485 288.444 369.47 289.585 370.136C290.716 370.792 292.011 371.113 293.317 371.06H312.713H340.319L380.322 371.156L391.197 371.216H380.322L340.319 371.312H312.713H293.293C291.887 371.359 290.495 371.014 289.273 370.316C288.035 369.592 287.035 368.524 286.392 367.243C285.778 365.941 285.51 364.502 285.612 363.066C285.612 351.904 285.612 340.178 285.612 328.031C285.612 321.942 285.612 315.761 285.612 309.488V302.394C285.582 301.59 285.638 300.786 285.78 299.994C286.138 298.347 287.046 296.872 288.355 295.812C289.665 294.751 291.297 294.169 292.981 294.161H365.632H381.943H393.621C394.9 294.067 396.186 294.21 397.414 294.581C398.619 294.993 399.696 295.712 400.537 296.668C401.379 297.624 401.958 298.782 402.215 300.03C402.369 301.223 402.417 302.428 402.359 303.631V307.123C402.359 311.732 402.359 316.149 402.359 320.326C402.359 337.201 402.287 350.872 402.263 360.33C402.263 361.53 402.263 362.622 402.263 363.678C402.277 364.673 402.093 365.66 401.723 366.583C401.123 368.026 400.07 369.235 398.722 370.028C397.907 370.521 396.993 370.828 396.045 370.928C395.704 371.103 395.346 371.244 394.977 371.348Z" fill="#032930"/>
<path d="M342.407 339.229H337.954V356.969H342.407V339.229Z" fill="#3EA089"/>
<path d="M305.188 336.661H300.735V356.969H305.188V336.661Z" fill="#3EA089"/>
<path d="M314.49 332.424H310.037V356.957H314.49V332.424Z" fill="#3EA089"/>
<path d="M323.792 333.768H319.339V356.957H323.792V333.768Z" fill="#3EA089"/>
<path d="M333.105 325.919H328.652V356.957H333.105V325.919Z" fill="#3EA089"/>
<path d="M351.709 326.075H347.256V356.957H351.709V326.075Z" fill="#3EA089"/>
<path d="M361.023 336.217H356.57V356.957H361.023V336.217Z" fill="#3EA089"/>
<path d="M370.325 327.431H365.872V356.957H370.325V327.431Z" fill="#3EA089"/>
<path d="M379.627 320.782H375.174V356.957H379.627V320.782Z" fill="#3EA089"/>
<path d="M388.94 327.287H384.487V356.969H388.94V327.287Z" fill="#3EA089"/>
<path d="M301.107 305.299C301.107 305.855 300.943 306.398 300.634 306.859C300.325 307.321 299.887 307.681 299.374 307.894C298.86 308.106 298.296 308.162 297.751 308.054C297.206 307.945 296.706 307.678 296.313 307.285C295.92 306.892 295.653 306.392 295.544 305.847C295.436 305.302 295.491 304.737 295.704 304.224C295.917 303.711 296.277 303.272 296.738 302.964C297.2 302.655 297.743 302.49 298.299 302.49C299.044 302.49 299.758 302.786 300.285 303.313C300.811 303.84 301.107 304.554 301.107 305.299Z" fill="#B6E2D8"/>
<path d="M308.404 305.299C308.404 305.855 308.239 306.398 307.93 306.86C307.621 307.323 307.182 307.683 306.668 307.895C306.154 308.107 305.588 308.162 305.043 308.052C304.498 307.943 303.998 307.674 303.605 307.28C303.213 306.886 302.947 306.385 302.84 305.839C302.733 305.294 302.79 304.729 303.004 304.216C303.219 303.703 303.581 303.265 304.044 302.958C304.508 302.651 305.052 302.488 305.608 302.49C305.976 302.49 306.341 302.563 306.681 302.704C307.021 302.846 307.33 303.053 307.589 303.314C307.849 303.575 308.055 303.884 308.195 304.225C308.335 304.566 308.406 304.931 308.404 305.299Z" fill="#B6E2D8"/>
<path d="M315.606 305.299C315.606 305.855 315.442 306.398 315.133 306.859C314.824 307.321 314.386 307.681 313.873 307.894C313.359 308.106 312.795 308.162 312.25 308.054C311.705 307.945 311.205 307.678 310.812 307.285C310.419 306.892 310.152 306.392 310.043 305.847C309.935 305.302 309.99 304.737 310.203 304.224C310.416 303.711 310.776 303.272 311.237 302.964C311.699 302.655 312.242 302.49 312.798 302.49C313.543 302.49 314.257 302.786 314.784 303.313C315.31 303.84 315.606 304.554 315.606 305.299Z" fill="#B6E2D8"/>
<path d="M515.145 129.464H436.338C430.75 129.464 426.22 133.994 426.22 139.582V274.033C426.22 279.621 430.75 284.151 436.338 284.151H515.145C520.733 284.151 525.263 279.621 525.263 274.033V139.582C525.263 133.994 520.733 129.464 515.145 129.464Z" fill="white"/>
<path d="M515.145 284.151H515.469C515.673 284.151 515.997 284.151 516.405 284.067C517.628 283.896 518.81 283.51 519.898 282.926C521.658 281.952 523.093 280.483 524.027 278.701C524.61 277.58 524.976 276.358 525.107 275.101C525.203 273.745 525.107 272.268 525.107 270.72C525.107 258.31 525.047 240.366 524.999 218.21C524.951 196.053 524.999 169.636 524.939 140.327C525.049 138.514 524.659 136.707 523.812 135.1C522.966 133.494 521.695 132.151 520.138 131.217C516.97 129.176 512.937 130.017 509.168 129.824H436.338C434.287 129.829 432.288 130.474 430.622 131.671C428.957 132.867 427.707 134.555 427.048 136.498C426.542 138.488 426.368 140.548 426.532 142.595V148.788C426.532 157.03 426.532 165.143 426.532 173.129C426.532 189.08 426.532 204.467 426.532 219.122C426.532 233.777 426.532 247.711 426.532 260.746V270.348C426.532 271.908 426.472 273.505 426.532 274.993C426.742 277.194 427.683 279.262 429.206 280.865C430.729 282.469 432.746 283.516 434.934 283.839C436.35 283.963 437.773 284.003 439.194 283.959H443.407L495.917 284.067L510.188 284.127H513.909H515.169C515.169 284.127 514.737 284.127 513.909 284.127H510.188L495.917 284.187L443.407 284.283H439.23C437.789 284.32 436.347 284.28 434.91 284.163C432.613 283.834 430.493 282.743 428.891 281.065C427.289 279.386 426.297 277.218 426.076 274.909C425.98 273.324 426.076 271.8 426.076 270.216C426.076 267.071 426.076 263.867 426.076 260.614C426.076 247.579 426.076 233.657 426.076 218.99C426.076 204.323 426.076 188.984 426.076 172.997V139.39C426.097 138.312 426.283 137.243 426.628 136.222C427.318 134.158 428.641 132.365 430.409 131.097C432.184 129.816 434.317 129.123 436.506 129.116H515.085C517.027 129.085 518.94 129.594 520.609 130.586C522.279 131.578 523.641 133.013 524.543 134.733C524.976 135.581 525.299 136.48 525.503 137.41C525.67 138.336 525.742 139.277 525.719 140.218C525.719 169.528 525.719 195.921 525.647 218.102C525.575 240.282 525.575 258.202 525.551 270.612C525.551 272.16 525.551 273.613 525.479 275.005C525.354 276.302 524.975 277.562 524.363 278.714C523.396 280.51 521.923 281.983 520.126 282.95C519.007 283.542 517.785 283.913 516.525 284.043C516.069 284.114 515.607 284.15 515.145 284.151Z" fill="#032930"/>
<path d="M439.567 145.764C441.244 145.764 442.603 144.404 442.603 142.727C442.603 141.05 441.244 139.69 439.567 139.69C437.89 139.69 436.53 141.05 436.53 142.727C436.53 144.404 437.89 145.764 439.567 145.764Z" fill="#B6E2D8"/>
<path d="M450.441 142.727C450.441 143.327 450.263 143.915 449.93 144.414C449.596 144.913 449.122 145.303 448.567 145.532C448.012 145.762 447.401 145.822 446.812 145.705C446.223 145.588 445.682 145.299 445.258 144.874C444.833 144.449 444.544 143.908 444.427 143.319C444.309 142.73 444.369 142.12 444.599 141.565C444.829 141.01 445.218 140.536 445.718 140.202C446.217 139.868 446.804 139.69 447.405 139.69C448.21 139.69 448.982 140.01 449.552 140.58C450.121 141.149 450.441 141.922 450.441 142.727Z" fill="#B6E2D8"/>
<path d="M455.242 145.764C456.919 145.764 458.278 144.404 458.278 142.727C458.278 141.05 456.919 139.69 455.242 139.69C453.565 139.69 452.205 141.05 452.205 142.727C452.205 144.404 453.565 145.764 455.242 145.764Z" fill="#B6E2D8"/>
<path d="M510.776 158.666C510.776 158.834 495.089 158.978 475.741 158.978C456.393 158.978 440.694 158.834 440.694 158.666C440.694 158.498 456.381 158.354 475.741 158.354C495.101 158.354 510.776 158.486 510.776 158.666Z" fill="#032930"/>
<path d="M510.776 164.835C510.776 165.003 495.089 165.147 475.741 165.147C456.393 165.147 440.694 165.003 440.694 164.835C440.694 164.667 456.381 164.523 475.741 164.523C495.101 164.523 510.776 164.655 510.776 164.835Z" fill="#032930"/>
<path d="M510.776 171.005C510.776 171.173 495.089 171.317 475.741 171.317C456.393 171.317 440.694 171.173 440.694 171.005C440.694 170.837 456.381 170.693 475.741 170.693C495.101 170.693 510.776 170.825 510.776 171.005Z" fill="#032930"/>
<path d="M510.776 177.174C510.776 177.342 495.089 177.486 475.741 177.486C456.393 177.486 440.694 177.342 440.694 177.174C440.694 177.006 456.381 176.85 475.741 176.85C495.101 176.85 510.776 176.994 510.776 177.174Z" fill="#032930"/>
<path d="M510.776 183.331C510.776 183.511 495.089 183.643 475.741 183.643C456.393 183.643 440.694 183.511 440.694 183.331C440.694 183.151 456.381 183.019 475.741 183.019C495.101 183.019 510.776 183.163 510.776 183.331Z" fill="#032930"/>
<path d="M510.776 189.452C510.776 189.632 495.089 189.764 475.741 189.764C456.393 189.764 440.694 189.632 440.694 189.452C440.694 189.272 456.381 189.14 475.741 189.14C495.101 189.14 510.776 189.332 510.776 189.452Z" fill="#032930"/>
<path d="M510.776 236.705C510.776 236.873 495.089 237.017 475.741 237.017C456.393 237.017 440.694 236.873 440.694 236.705C440.694 236.537 456.381 236.393 475.741 236.393C495.101 236.393 510.776 236.525 510.776 236.705Z" fill="#032930"/>
<path d="M510.776 243.463C510.776 243.631 495.089 243.775 475.741 243.775C456.393 243.775 440.694 243.631 440.694 243.463C440.694 243.295 456.381 243.151 475.741 243.151C495.101 243.151 510.776 243.247 510.776 243.463Z" fill="#032930"/>
<path d="M510.776 250.136C510.776 250.304 495.089 250.448 475.741 250.448C456.393 250.448 440.694 250.304 440.694 250.136C440.694 249.968 456.381 249.824 475.741 249.824C495.101 249.824 510.776 249.956 510.776 250.136Z" fill="#032930"/>
<path d="M510.776 256.845C510.776 257.013 495.089 257.157 475.741 257.157C456.393 257.157 440.694 257.013 440.694 256.845C440.694 256.677 456.381 256.533 475.741 256.533C495.101 256.533 510.776 256.665 510.776 256.845Z" fill="#032930"/>
<path d="M510.776 263.555C510.776 263.735 495.089 263.879 475.741 263.879C456.393 263.879 440.694 263.735 440.694 263.555C440.694 263.374 456.381 263.242 475.741 263.242C495.101 263.242 510.776 263.386 510.776 263.555Z" fill="#032930"/>
<path d="M512.602 198.43H507.141H492.066H440.84L440.96 198.346C440.96 202.367 440.96 206.543 440.96 210.816C440.96 215.089 440.96 219.518 440.96 223.671L440.84 223.575H440.72V223.491C440.72 219.338 440.72 215.089 440.72 210.636C440.72 206.183 440.72 202.235 440.72 198.166V198.07H440.84H492.066H507.141H512.602V198.43Z" fill="#B6E2D8"/>
<path d="M512.601 202.655C512.601 202.655 496.53 202.751 476.714 202.751C456.898 202.751 440.839 202.751 440.839 202.655C440.839 202.559 456.898 202.559 476.714 202.559C496.53 202.559 512.601 202.655 512.601 202.655Z" fill="#B6E2D8"/>
<path d="M512.601 206.183C512.601 206.183 496.53 206.267 476.714 206.267C456.898 206.267 440.839 206.267 440.839 206.183C440.839 206.099 456.898 206.087 476.714 206.087C496.53 206.087 512.601 206.123 512.601 206.183Z" fill="#B6E2D8"/>
<path d="M512.601 209.664C512.601 209.664 496.53 209.76 476.714 209.76C456.898 209.76 440.839 209.76 440.839 209.664C440.839 209.568 456.898 209.58 476.714 209.58C496.53 209.58 512.601 209.616 512.601 209.664Z" fill="#B6E2D8"/>
<path d="M512.601 213.157C512.601 213.157 496.53 213.241 476.714 213.241C456.898 213.241 440.839 213.241 440.839 213.157C440.839 213.073 456.898 213.061 476.714 213.061C496.53 213.061 512.601 213.109 512.601 213.157Z" fill="#B6E2D8"/>
<path d="M512.601 216.637C512.601 216.637 496.53 216.733 476.714 216.733C456.898 216.733 440.839 216.733 440.839 216.637C440.839 216.541 456.898 216.553 476.714 216.553C496.53 216.553 512.601 216.589 512.601 216.637Z" fill="#B6E2D8"/>
<path d="M440.839 220.13C440.839 220.13 456.898 220.034 476.714 220.034C496.53 220.034 512.601 220.034 512.601 220.13C512.601 220.226 496.53 220.226 476.714 220.226C456.898 220.226 440.839 220.178 440.839 220.13Z" fill="#B6E2D8"/>
<path d="M451.005 224.139C451.005 224.139 450.921 218.378 450.921 211.284C450.921 204.191 450.921 198.43 451.005 198.43C451.089 198.43 451.101 204.179 451.101 211.284C451.101 218.39 451.065 224.139 451.005 224.139Z" fill="#B6E2D8"/>
<path d="M461.339 224.139C461.339 224.139 461.255 218.378 461.255 211.284C461.255 204.191 461.255 198.43 461.339 198.43C461.423 198.43 461.435 204.179 461.435 211.284C461.435 218.39 461.399 224.139 461.339 224.139Z" fill="#B6E2D8"/>
<path d="M471.637 224.139C471.577 224.139 471.541 218.378 471.541 211.284C471.541 204.191 471.541 198.43 471.637 198.43C471.733 198.43 471.721 204.179 471.721 211.284C471.721 218.39 471.733 224.139 471.637 224.139Z" fill="#B6E2D8"/>
<path d="M482.019 224.139C482.019 224.139 481.923 218.378 481.923 211.284C481.923 204.191 481.923 198.43 482.019 198.43C482.115 198.43 482.103 204.179 482.103 211.284C482.103 218.39 482.067 224.139 482.019 224.139Z" fill="#B6E2D8"/>
<path d="M492.353 224.139C492.293 224.139 492.257 218.378 492.257 211.284C492.257 204.191 492.257 198.43 492.353 198.43C492.449 198.43 492.437 204.179 492.437 211.284C492.437 218.39 492.401 224.139 492.353 224.139Z" fill="#B6E2D8"/>
<path d="M502.351 224.139C502.351 224.139 502.255 218.378 502.255 211.284C502.255 204.191 502.255 198.43 502.351 198.43C502.447 198.43 502.447 204.179 502.447 211.284C502.447 218.39 502.399 224.139 502.351 224.139Z" fill="#B6E2D8"/>
<path d="M512.685 224.139C512.685 224.139 512.601 218.378 512.601 211.284C512.601 204.191 512.601 198.43 512.685 198.43C512.769 198.43 512.781 204.179 512.781 211.284C512.781 218.39 512.733 224.139 512.685 224.139Z" fill="#B6E2D8"/>
<path d="M451.641 220.13C451.641 220.213 451.624 220.295 451.592 220.372C451.56 220.448 451.513 220.518 451.454 220.576C451.394 220.634 451.324 220.679 451.247 220.71C451.17 220.741 451.087 220.756 451.005 220.754C450.912 220.781 450.814 220.785 450.719 220.768C450.624 220.75 450.534 220.71 450.457 220.652C450.38 220.594 450.318 220.519 450.274 220.432C450.231 220.346 450.209 220.251 450.209 220.154C450.209 220.057 450.231 219.962 450.274 219.876C450.318 219.789 450.38 219.714 450.457 219.656C450.534 219.598 450.624 219.558 450.719 219.54C450.814 219.523 450.912 219.527 451.005 219.554C451.164 219.55 451.319 219.608 451.437 219.715C451.556 219.822 451.628 219.971 451.641 220.13Z" fill="#3EA089"/>
<path d="M461.339 213.781C461.684 213.781 461.963 213.501 461.963 213.157C461.963 212.812 461.684 212.533 461.339 212.533C460.994 212.533 460.715 212.812 460.715 213.157C460.715 213.501 460.994 213.781 461.339 213.781Z" fill="#3EA089"/>
<path d="M472.309 216.577C472.322 216.667 472.315 216.759 472.289 216.846C472.263 216.933 472.218 217.014 472.159 217.082C472.099 217.151 472.025 217.206 471.943 217.244C471.86 217.281 471.77 217.301 471.679 217.301C471.588 217.301 471.498 217.281 471.416 217.244C471.333 217.206 471.259 217.151 471.199 217.082C471.14 217.014 471.095 216.933 471.069 216.846C471.043 216.759 471.037 216.667 471.049 216.577C471.07 216.425 471.145 216.286 471.261 216.185C471.377 216.084 471.525 216.028 471.679 216.028C471.833 216.028 471.981 216.084 472.097 216.185C472.213 216.286 472.288 216.425 472.309 216.577Z" fill="#3EA089"/>
<path d="M482.583 209.232C482.706 209.354 482.775 209.521 482.775 209.694C482.775 209.867 482.706 210.034 482.583 210.156C482.461 210.279 482.295 210.348 482.121 210.348C481.948 210.348 481.782 210.279 481.659 210.156C481.537 210.034 481.468 209.867 481.468 209.694C481.468 209.521 481.537 209.354 481.659 209.232C481.782 209.109 481.948 209.041 482.121 209.041C482.295 209.041 482.461 209.109 482.583 209.232Z" fill="#3EA089"/>
<path d="M493.037 209.232C493.16 209.354 493.229 209.521 493.229 209.694C493.229 209.867 493.16 210.034 493.037 210.156C492.915 210.279 492.749 210.348 492.575 210.348C492.402 210.348 492.236 210.279 492.113 210.156C491.991 210.034 491.922 209.867 491.922 209.694C491.922 209.521 491.991 209.354 492.113 209.232C492.236 209.109 492.402 209.041 492.575 209.041C492.749 209.041 492.915 209.109 493.037 209.232Z" fill="#3EA089"/>
<path d="M502.843 216.085C502.965 216.206 503.035 216.371 503.036 216.543C503.037 216.715 502.97 216.881 502.849 217.003C502.728 217.126 502.563 217.195 502.391 217.197C502.219 217.198 502.053 217.13 501.93 217.009C501.808 216.888 501.738 216.724 501.737 216.552C501.736 216.379 501.803 216.214 501.924 216.091C502.045 215.969 502.21 215.899 502.382 215.898C502.554 215.897 502.72 215.964 502.843 216.085Z" fill="#3EA089"/>
<path d="M462.035 206.184C462.014 206.336 461.938 206.475 461.823 206.576C461.707 206.677 461.558 206.732 461.405 206.732C461.251 206.732 461.103 206.677 460.987 206.576C460.871 206.475 460.796 206.336 460.775 206.184C460.762 206.093 460.769 206.002 460.795 205.915C460.821 205.828 460.865 205.747 460.925 205.678C460.985 205.61 461.058 205.555 461.141 205.517C461.224 205.48 461.314 205.46 461.405 205.46C461.496 205.46 461.585 205.48 461.668 205.517C461.751 205.555 461.825 205.61 461.884 205.678C461.944 205.747 461.988 205.828 462.014 205.915C462.04 206.002 462.047 206.093 462.035 206.184Z" fill="#065363"/>
<path d="M451.641 216.637C451.641 216.806 451.574 216.968 451.455 217.087C451.336 217.207 451.174 217.274 451.005 217.274C450.922 217.274 450.84 217.257 450.763 217.225C450.687 217.193 450.618 217.146 450.559 217.087C450.501 217.027 450.456 216.957 450.425 216.88C450.394 216.803 450.379 216.72 450.381 216.637C450.381 216.555 450.397 216.474 450.428 216.399C450.46 216.323 450.506 216.254 450.564 216.196C450.622 216.138 450.691 216.092 450.766 216.061C450.842 216.029 450.923 216.013 451.005 216.013C451.088 216.012 451.17 216.027 451.248 216.057C451.325 216.088 451.395 216.134 451.454 216.192C451.513 216.25 451.56 216.319 451.593 216.396C451.625 216.472 451.641 216.554 451.641 216.637Z" fill="#065363"/>
<path d="M502.844 219.674C502.965 219.797 503.032 219.962 503.031 220.134C503.03 220.307 502.96 220.471 502.838 220.592C502.715 220.713 502.55 220.78 502.377 220.779C502.205 220.778 502.041 220.709 501.92 220.586C501.799 220.464 501.731 220.298 501.732 220.126C501.734 219.954 501.803 219.789 501.926 219.668C502.048 219.547 502.214 219.48 502.386 219.481C502.558 219.482 502.723 219.551 502.844 219.674Z" fill="#065363"/>
<path d="M492.977 213.157C492.977 213.322 492.911 213.481 492.794 213.598C492.677 213.715 492.518 213.781 492.353 213.781C492.27 213.783 492.187 213.768 492.11 213.737C492.033 213.706 491.963 213.661 491.904 213.602C491.845 213.544 491.798 213.475 491.765 213.399C491.733 213.322 491.717 213.24 491.717 213.157C491.717 212.988 491.784 212.826 491.903 212.707C492.022 212.588 492.184 212.521 492.353 212.521C492.436 212.521 492.518 212.537 492.595 212.569C492.671 212.601 492.74 212.649 492.799 212.708C492.857 212.767 492.902 212.837 492.933 212.914C492.964 212.991 492.979 213.074 492.977 213.157Z" fill="#065363"/>
<path d="M482.751 213.061C482.751 213.229 482.684 213.391 482.564 213.51C482.445 213.63 482.283 213.697 482.114 213.697C482.032 213.697 481.949 213.68 481.873 213.648C481.796 213.616 481.727 213.569 481.669 213.51C481.611 213.451 481.565 213.38 481.534 213.303C481.504 213.226 481.489 213.144 481.49 213.061C481.49 212.895 481.556 212.736 481.673 212.619C481.79 212.502 481.949 212.437 482.114 212.437C482.197 212.435 482.28 212.45 482.357 212.481C482.434 212.511 482.504 212.557 482.564 212.615C482.623 212.673 482.67 212.742 482.702 212.819C482.734 212.896 482.751 212.978 482.751 213.061Z" fill="#065363"/>
<path d="M446.696 226.659C446.039 226.787 445.362 226.787 444.704 226.659C445.362 226.532 446.039 226.532 446.696 226.659Z" fill="#B6E2D8"/>
<path d="M457.234 226.659C456.576 226.787 455.899 226.787 455.241 226.659C455.899 226.532 456.576 226.532 457.234 226.659Z" fill="#B6E2D8"/>
<path d="M467.821 226.659C467.163 226.787 466.486 226.787 465.828 226.659C466.486 226.532 467.163 226.532 467.821 226.659Z" fill="#B6E2D8"/>
<path d="M478.382 226.659C477.724 226.787 477.048 226.787 476.39 226.659C477.048 226.532 477.724 226.532 478.382 226.659Z" fill="#B6E2D8"/>
<path d="M488.945 226.659C488.287 226.787 487.61 226.787 486.952 226.659C487.61 226.532 488.287 226.532 488.945 226.659Z" fill="#B6E2D8"/>
<path d="M498.39 226.659C497.732 226.787 497.055 226.787 496.397 226.659C497.055 226.532 497.732 226.532 498.39 226.659Z" fill="#B6E2D8"/>
<path d="M507.836 226.659C507.178 226.787 506.502 226.787 505.844 226.659C506.502 226.532 507.178 226.532 507.836 226.659Z" fill="#B6E2D8"/>
<path d="M439.35 223.611C438.82 223.723 438.272 223.723 437.742 223.611C438.271 223.483 438.822 223.483 439.35 223.611Z" fill="#B6E2D8"/>
<path d="M439.35 219.554C438.82 219.666 438.272 219.666 437.742 219.554C438.271 219.426 438.822 219.426 439.35 219.554Z" fill="#B6E2D8"/>
<path d="M439.35 215.497C438.82 215.609 438.272 215.609 437.742 215.497C438.271 215.369 438.822 215.369 439.35 215.497Z" fill="#B6E2D8"/>
<path d="M439.35 211.44C438.82 211.553 438.272 211.553 437.742 211.44C438.271 211.313 438.822 211.313 439.35 211.44Z" fill="#B6E2D8"/>
<path d="M439.35 207.384C438.82 207.496 438.272 207.496 437.742 207.384C438.271 207.256 438.822 207.256 439.35 207.384Z" fill="#B6E2D8"/>
<path d="M439.35 203.327C438.82 203.439 438.272 203.439 437.742 203.327C438.271 203.199 438.822 203.199 439.35 203.327Z" fill="#B6E2D8"/>
<path d="M439.35 199.27C438.82 199.382 438.272 199.382 437.742 199.27C438.271 199.142 438.822 199.142 439.35 199.27Z" fill="#B6E2D8"/>
<path d="M440.767 223.911L440.659 223.587L450.933 219.974L461.315 212.965L471.649 216.385L482.067 209.52L492.497 209.496L492.545 209.52L502.447 216.529L512.049 210.18L512.241 210.468L502.447 216.949L502.339 216.877L492.389 209.844L482.175 209.868L471.709 216.769L461.375 213.349L451.065 220.298L440.767 223.911Z" fill="#3EA089"/>
<path d="M502.507 220.202L492.389 213.325H481.959L471.529 206.447L461.411 206.351L451.077 216.817H440.839V216.469H450.933L461.279 206.003L471.637 206.099L482.067 212.977H492.497L502.387 219.71L512.265 202.343L512.565 202.511L502.507 220.202Z" fill="#065363"/>
<path d="M137.888 38.7626H390.933C393.721 38.7626 396.396 39.8703 398.368 41.8421C400.339 43.8138 401.447 46.4881 401.447 49.2766V255.465C401.447 259.469 399.856 263.31 397.025 266.141C394.193 268.973 390.353 270.564 386.348 270.564H143.565C139.56 270.564 135.72 268.973 132.888 266.141C130.057 263.31 128.466 259.469 128.466 255.465V48.1844C128.466 45.6856 129.458 43.2891 131.225 41.5222C132.992 39.7552 135.389 38.7626 137.888 38.7626Z" fill="white"/>
<path d="M135.895 38.7626H392.541C394.801 38.7626 396.969 39.6604 398.567 41.2585C400.165 42.8566 401.063 45.0242 401.063 47.2842V66.668H128.466V46.192C128.466 44.2216 129.249 42.3319 130.642 40.9386C132.035 39.5453 133.925 38.7626 135.895 38.7626Z" fill="#B6E2D8"/>
<path d="M401.063 66.668C401.063 66.836 340.127 66.9801 264.968 66.9801C189.81 66.9801 128.85 66.836 128.85 66.668C128.85 66.5 189.773 66.356 264.968 66.356C340.163 66.356 401.063 66.488 401.063 66.668Z" fill="#032930"/>
<path d="M143.36 53.3214C143.36 53.8318 143.209 54.3307 142.925 54.755C142.642 55.1794 142.239 55.5101 141.767 55.7054C141.296 55.9008 140.777 55.9519 140.276 55.8523C139.776 55.7527 139.316 55.507 138.955 55.1461C138.594 54.7852 138.348 54.3254 138.249 53.8248C138.149 53.3242 138.2 52.8054 138.396 52.3339C138.591 51.8623 138.922 51.4593 139.346 51.1758C139.77 50.8922 140.269 50.7409 140.78 50.7409C141.119 50.7393 141.455 50.8049 141.769 50.9341C142.083 51.0632 142.368 51.2532 142.608 51.4931C142.848 51.7331 143.038 52.0182 143.167 52.332C143.296 52.6458 143.362 52.9821 143.36 53.3214Z" fill="#032930"/>
<path d="M151.57 53.3214C151.57 53.8323 151.419 54.3316 151.134 54.7563C150.85 55.1809 150.447 55.5116 149.974 55.7066C149.502 55.9015 148.983 55.9519 148.482 55.8514C147.981 55.7508 147.521 55.5039 147.161 55.1418C146.8 54.7797 146.556 54.3188 146.457 53.8174C146.359 53.3161 146.412 52.7968 146.609 52.3255C146.806 51.8542 147.139 51.452 147.565 51.1699C147.991 50.8878 148.491 50.7385 149.002 50.7409C149.34 50.7409 149.675 50.8077 149.987 50.9375C150.3 51.0674 150.583 51.2576 150.822 51.4974C151.061 51.7372 151.25 52.0218 151.378 52.3348C151.506 52.6478 151.572 52.9831 151.57 53.3214Z" fill="#032930"/>
<path d="M159.948 53.3214C159.948 53.8318 159.797 54.3307 159.513 54.755C159.23 55.1794 158.827 55.5101 158.355 55.7054C157.884 55.9008 157.365 55.9519 156.864 55.8523C156.364 55.7527 155.904 55.507 155.543 55.1461C155.182 54.7852 154.936 54.3254 154.837 53.8248C154.737 53.3242 154.788 52.8054 154.984 52.3339C155.179 51.8623 155.51 51.4593 155.934 51.1758C156.358 50.8922 156.857 50.7409 157.368 50.7409C157.707 50.7393 158.043 50.8049 158.357 50.9341C158.671 51.0632 158.956 51.2532 159.196 51.4931C159.436 51.7331 159.626 52.0182 159.755 52.332C159.884 52.6458 159.95 52.9821 159.948 53.3214Z" fill="#032930"/>
<path d="M310.206 87.4322C310.206 87.6002 290.522 87.7442 266.241 87.7442C241.96 87.7442 222.276 87.6002 222.276 87.4322C222.276 87.2641 241.96 87.1201 266.241 87.1201C290.522 87.1201 310.206 87.3002 310.206 87.4322Z" fill="#032930"/>
<path d="M269.458 106.012C269.458 106.192 245.897 106.324 216.851 106.324C187.806 106.324 164.245 106.192 164.245 106.012C164.245 105.832 187.794 105.7 216.851 105.7C245.909 105.7 269.458 105.844 269.458 106.012Z" fill="#032930"/>
<path d="M269.458 115.962C269.458 116.142 245.897 116.274 216.851 116.274C187.806 116.274 164.245 116.142 164.245 115.962C164.245 115.782 187.794 115.65 216.851 115.65C245.909 115.65 269.458 115.794 269.458 115.962Z" fill="#032930"/>
<path d="M269.458 125.912C269.458 126.092 245.897 126.236 216.851 126.236C187.806 126.236 164.245 126.092 164.245 125.912C164.245 125.732 187.794 125.6 216.851 125.6C245.909 125.6 269.458 125.744 269.458 125.912Z" fill="#032930"/>
<path d="M269.458 135.874C269.458 136.042 245.897 136.186 216.851 136.186C187.806 136.186 164.245 136.042 164.245 135.874C164.245 135.706 187.794 135.55 216.851 135.55C245.909 135.55 269.458 135.694 269.458 135.874Z" fill="#032930"/>
<path d="M269.458 145.823C269.458 145.991 245.897 146.136 216.851 146.136C187.806 146.136 164.245 145.991 164.245 145.823C164.245 145.655 187.794 145.499 216.851 145.499C245.909 145.499 269.458 145.643 269.458 145.823Z" fill="#032930"/>
<path d="M269.458 173.465C269.458 173.645 245.897 173.777 216.851 173.777C187.806 173.777 164.245 173.645 164.245 173.465C164.245 173.285 187.794 173.153 216.851 173.153C245.909 173.153 269.458 173.297 269.458 173.465Z" fill="#032930"/>
<path d="M269.458 163.443C269.458 163.623 245.897 163.755 216.851 163.755C187.806 163.755 164.245 163.623 164.245 163.443C164.245 163.263 187.794 163.131 216.851 163.131C245.909 163.131 269.458 163.275 269.458 163.443Z" fill="#032930"/>
<path d="M336.767 103.983C331.144 103.981 325.648 105.646 320.972 108.768C316.296 111.89 312.651 116.329 310.499 121.523C308.346 126.717 307.782 132.432 308.879 137.947C309.975 143.461 312.682 148.526 316.657 152.502C320.633 156.478 325.698 159.185 331.213 160.281C336.727 161.377 342.443 160.813 347.637 158.661C352.83 156.508 357.269 152.863 360.391 148.188C363.513 143.512 365.178 138.015 365.176 132.393C365.173 124.859 362.179 117.635 356.852 112.308C351.524 106.981 344.3 103.987 336.767 103.983ZM337.199 149.424C333.744 149.427 330.367 148.404 327.493 146.487C324.62 144.57 322.38 141.843 321.056 138.652C319.732 135.461 319.385 131.95 320.057 128.561C320.73 125.173 322.392 122.06 324.834 119.617C327.276 117.173 330.387 115.509 333.775 114.834C337.163 114.159 340.675 114.504 343.867 115.826C347.059 117.147 349.787 119.385 351.706 122.257C353.626 125.13 354.65 128.506 354.65 131.961C354.652 134.253 354.202 136.522 353.326 138.64C352.451 140.758 351.167 142.683 349.547 144.304C347.928 145.926 346.005 147.213 343.888 148.091C341.771 148.97 339.502 149.423 337.211 149.424H337.199Z" fill="#3EA089"/>
<path d="M319.735 131.961C319.735 128.588 320.712 125.288 322.548 122.46C324.384 119.631 327 117.395 330.081 116.022L325.712 106.204C320.575 108.388 316.194 112.036 313.116 116.693C310.039 121.351 308.4 126.811 308.404 132.393C308.404 132.785 308.404 133.185 308.404 133.593H319.843C319.771 133.041 319.735 132.513 319.735 131.961Z" fill="#B6E2D8"/>
<path d="M360.279 167.98C360.279 168.124 349.753 168.244 336.766 168.244C323.78 168.244 313.254 168.124 313.254 167.98C313.254 167.836 323.78 167.704 336.766 167.704C349.753 167.704 360.279 167.848 360.279 167.98Z" fill="#032930"/>
<path d="M349.801 172.301C349.801 172.445 343.968 172.565 336.766 172.565C329.565 172.565 323.72 172.445 323.72 172.301C323.72 172.157 329.565 172.025 336.766 172.025C343.968 172.025 349.801 172.145 349.801 172.301Z" fill="#032930"/>
<path d="M334.714 128.24V129.44L332.41 134.83H330.393L332.602 129.753H330.873V130.761H329.289V128.24H334.714Z" fill="#032930"/>
<path d="M340.295 132.729C340.295 133.929 339.419 134.962 337.439 134.962C336.553 134.981 335.678 134.761 334.906 134.325L335.566 132.921C336.104 133.278 336.734 133.47 337.379 133.473C338.015 133.473 338.435 133.221 338.435 132.777C338.435 132.333 338.159 132.117 337.163 132.117H335.386L335.71 128.288H339.875V129.716H337.211L337.127 130.677H337.559C339.539 130.641 340.295 131.565 340.295 132.729Z" fill="#032930"/>
<path d="M340.619 130.017C340.645 129.691 340.765 129.379 340.965 129.121C341.165 128.862 341.436 128.667 341.745 128.56C342.054 128.454 342.388 128.439 342.705 128.519C343.022 128.599 343.309 128.77 343.53 129.011C343.752 129.251 343.898 129.551 343.952 129.874C344.005 130.196 343.964 130.528 343.832 130.827C343.7 131.126 343.483 131.38 343.209 131.558C342.935 131.736 342.614 131.83 342.287 131.829C342.054 131.834 341.823 131.789 341.609 131.697C341.395 131.606 341.203 131.47 341.045 131.299C340.887 131.127 340.768 130.924 340.694 130.703C340.621 130.482 340.595 130.248 340.619 130.017ZM346.164 128.288H347.508L343.031 134.829H341.687L346.164 128.288ZM342.839 130.017C342.839 129.356 342.611 129.092 342.287 129.092C341.963 129.092 341.735 129.356 341.735 130.017C341.735 130.677 341.987 130.941 342.287 130.941C342.587 130.941 342.839 130.641 342.839 130.017ZM345.24 133.101C345.266 132.775 345.386 132.464 345.586 132.205C345.786 131.946 346.057 131.752 346.366 131.645C346.675 131.538 347.009 131.524 347.326 131.604C347.643 131.684 347.93 131.855 348.151 132.095C348.373 132.336 348.519 132.636 348.573 132.958C348.626 133.281 348.584 133.612 348.452 133.911C348.32 134.21 348.104 134.465 347.83 134.643C347.556 134.821 347.235 134.915 346.908 134.914C346.675 134.918 346.444 134.873 346.23 134.782C346.016 134.69 345.824 134.555 345.666 134.383C345.508 134.212 345.389 134.009 345.315 133.788C345.242 133.567 345.216 133.333 345.24 133.101ZM347.46 133.101C347.46 132.441 347.22 132.177 346.908 132.177C346.596 132.177 346.356 132.441 346.356 133.101C346.356 133.761 346.596 134.025 346.908 134.025C347.22 134.025 347.46 133.773 347.46 133.101Z" fill="#032930"/>
<path d="M183.676 231.016H175.562V249.704H183.676V231.016Z" fill="#91D4C4"/>
<path d="M211.198 231.016H203.084V249.704H211.198V231.016Z" fill="#91D4C4"/>
<path d="M197.443 213.997H189.329V249.704H197.443V213.997Z" fill="#F5F5F5"/>
<path d="M224.964 213.997H216.851V249.704H224.964V213.997Z" fill="#F5F5F5"/>
<path d="M238.719 215.017H230.605V249.704H238.719V215.017Z" fill="#91D4C4"/>
<path d="M266.241 215.017H258.127V249.704H266.241V215.017Z" fill="#91D4C4"/>
<path d="M293.762 215.017H285.648V249.704H293.762V215.017Z" fill="#91D4C4"/>
<path d="M252.486 196.822H244.372V249.716H252.486V196.822Z" fill="#F5F5F5"/>
<path d="M280.007 201.995H271.894V249.704H280.007V201.995Z" fill="#F5F5F5"/>
<path d="M334.413 215.017H326.3V249.704H334.413V215.017Z" fill="#91D4C4"/>
<path d="M320.659 221.678H312.546V249.704H320.659V221.678Z" fill="#F5F5F5"/>
<path d="M363.196 196.509H355.082V249.704H363.196V196.509Z" fill="#91D4C4"/>
<path d="M349.441 221.678H341.327V249.704H349.441V221.678Z" fill="#F5F5F5"/>
<path d="M376.974 221.678H368.86V249.704H376.974V221.678Z" fill="#F5F5F5"/>
<path d="M307.529 209.304H299.415V249.704H307.529V209.304Z" fill="#91D4C4"/>
<path d="M247.756 198.91C248.91 198.91 249.845 197.975 249.845 196.821C249.845 195.668 248.91 194.733 247.756 194.733C246.603 194.733 245.668 195.668 245.668 196.821C245.668 197.975 246.603 198.91 247.756 198.91Z" fill="#3EA089"/>
<path d="M247.757 200.602C247.006 200.602 246.272 200.38 245.648 199.962C245.024 199.545 244.538 198.952 244.251 198.258C243.965 197.564 243.89 196.801 244.038 196.065C244.185 195.329 244.547 194.653 245.079 194.123C245.611 193.594 246.288 193.233 247.024 193.088C247.761 192.943 248.524 193.02 249.216 193.309C249.909 193.598 250.501 194.086 250.916 194.711C251.331 195.336 251.552 196.071 251.549 196.822C251.546 197.825 251.145 198.787 250.434 199.496C249.723 200.204 248.76 200.602 247.757 200.602ZM247.757 193.329C247.065 193.327 246.389 193.529 245.813 193.912C245.237 194.294 244.787 194.839 244.521 195.477C244.255 196.115 244.184 196.817 244.318 197.496C244.451 198.174 244.783 198.797 245.271 199.287C245.759 199.777 246.381 200.111 247.059 200.246C247.737 200.382 248.439 200.314 249.078 200.05C249.717 199.786 250.263 199.338 250.648 198.763C251.032 198.189 251.237 197.513 251.237 196.822C251.237 195.897 250.871 195.011 250.219 194.356C249.566 193.701 248.681 193.332 247.757 193.329Z" fill="#3EA089"/>
<path d="M249.425 191.493L249.317 187.388L250.338 187.412L248.429 185.071L246.509 187.424L247.565 187.436L247.673 191.493H249.425Z" fill="#91D4C4"/>
<path d="M181.924 222.47C181.924 222.884 181.801 223.287 181.572 223.631C181.342 223.974 181.016 224.242 180.635 224.4C180.253 224.558 179.833 224.599 179.428 224.519C179.023 224.438 178.651 224.239 178.359 223.947C178.067 223.655 177.868 223.283 177.787 222.878C177.707 222.473 177.748 222.053 177.906 221.671C178.064 221.29 178.332 220.964 178.675 220.734C179.019 220.505 179.422 220.382 179.835 220.382C180.389 220.382 180.921 220.602 181.312 220.994C181.704 221.385 181.924 221.917 181.924 222.47Z" fill="#3EA089"/>
<path d="M179.836 226.335C179.085 226.335 178.351 226.112 177.727 225.695C177.103 225.278 176.617 224.685 176.331 223.991C176.044 223.297 175.969 222.534 176.117 221.798C176.264 221.062 176.626 220.386 177.158 219.856C177.69 219.326 178.367 218.966 179.103 218.821C179.84 218.676 180.603 218.753 181.295 219.042C181.988 219.331 182.58 219.819 182.995 220.444C183.41 221.069 183.631 221.804 183.628 222.555C183.628 223.052 183.53 223.545 183.34 224.004C183.149 224.464 182.869 224.881 182.517 225.232C182.165 225.583 181.746 225.862 181.286 226.051C180.826 226.24 180.333 226.337 179.836 226.335ZM179.836 219.062C179.145 219.062 178.47 219.267 177.895 219.65C177.321 220.034 176.873 220.58 176.609 221.218C176.345 221.856 176.275 222.558 176.41 223.236C176.545 223.913 176.878 224.536 177.366 225.024C177.854 225.513 178.477 225.845 179.154 225.98C179.832 226.115 180.534 226.046 181.172 225.781C181.81 225.517 182.356 225.069 182.74 224.495C183.124 223.921 183.328 223.245 183.328 222.555C183.33 222.095 183.241 221.641 183.066 221.216C182.891 220.792 182.634 220.406 182.309 220.081C181.984 219.757 181.599 219.499 181.174 219.324C180.75 219.15 180.295 219.06 179.836 219.062Z" fill="#3EA089"/>
<path d="M178.587 209.532L178.695 213.805L177.627 213.793L179.619 216.217L181.612 213.769L180.508 213.757L180.4 209.544L178.587 209.532Z" fill="#91D4C4"/>
<path d="M288.973 200.602L289.081 204.875L288.013 204.863L290.005 207.287L291.997 204.839L290.893 204.827L290.785 200.614L288.973 200.602Z" fill="#91D4C4"/>
<path d="M314.094 238.434L289.669 215.521C274.186 208.044 250.289 197.037 247.505 197.182C244.384 197.374 185.093 220.73 162.564 229.72L162.12 228.604C165.445 227.283 243.472 196.197 247.433 195.993H247.517C251.85 195.993 286.32 212.593 290.269 214.489L290.413 214.597L314.286 236.981C318.823 234.581 344.784 220.886 345.228 220.694C345.384 220.622 345.792 220.454 381.499 220.454V221.654C367.792 221.654 347.208 221.654 345.648 221.822C344.292 222.506 324.812 232.78 314.442 238.242L314.094 238.434Z" fill="#3EA089"/>
<path d="M292.094 214.513C292.094 214.926 291.971 215.33 291.742 215.673C291.512 216.017 291.186 216.284 290.805 216.442C290.423 216.6 290.003 216.642 289.598 216.561C289.193 216.481 288.821 216.282 288.529 215.99C288.237 215.698 288.038 215.326 287.957 214.92C287.877 214.515 287.918 214.095 288.076 213.714C288.234 213.332 288.502 213.006 288.845 212.777C289.189 212.547 289.592 212.425 290.005 212.425C290.28 212.425 290.551 212.479 290.805 212.584C291.058 212.688 291.288 212.842 291.482 213.036C291.676 213.23 291.83 213.46 291.935 213.714C292.04 213.967 292.094 214.239 292.094 214.513Z" fill="#3EA089"/>
<path d="M290.006 218.378C289.256 218.378 288.522 218.155 287.899 217.739C287.275 217.322 286.789 216.729 286.502 216.036C286.215 215.343 286.139 214.581 286.286 213.845C286.432 213.109 286.793 212.434 287.324 211.903C287.854 211.373 288.53 211.011 289.266 210.865C290.001 210.719 290.764 210.794 291.457 211.081C292.15 211.368 292.742 211.854 293.159 212.478C293.576 213.102 293.798 213.835 293.798 214.585C293.795 215.59 293.395 216.553 292.684 217.263C291.973 217.974 291.011 218.375 290.006 218.378ZM290.006 211.104C289.317 211.104 288.644 211.308 288.072 211.691C287.499 212.073 287.053 212.617 286.79 213.253C286.526 213.889 286.458 214.589 286.592 215.264C286.726 215.939 287.058 216.559 287.544 217.046C288.031 217.533 288.651 217.864 289.327 217.999C290.002 218.133 290.702 218.064 291.338 217.801C291.974 217.537 292.517 217.091 292.9 216.519C293.282 215.946 293.486 215.273 293.486 214.585C293.493 214.124 293.407 213.666 293.235 213.238C293.063 212.81 292.808 212.421 292.484 212.093C292.16 211.764 291.774 211.504 291.349 211.326C290.923 211.148 290.467 211.056 290.006 211.056V211.104Z" fill="#3EA089"/>
<path d="M347.557 220.73C347.557 221.143 347.434 221.547 347.205 221.89C346.975 222.234 346.649 222.502 346.267 222.66C345.886 222.818 345.466 222.859 345.061 222.779C344.656 222.698 344.284 222.499 343.992 222.207C343.699 221.915 343.501 221.543 343.42 221.138C343.339 220.733 343.381 220.313 343.539 219.931C343.697 219.549 343.965 219.223 344.308 218.994C344.651 218.764 345.055 218.642 345.468 218.642C345.743 218.642 346.014 218.696 346.267 218.801C346.521 218.906 346.751 219.06 346.945 219.254C347.139 219.447 347.293 219.678 347.398 219.931C347.503 220.184 347.557 220.456 347.557 220.73Z" fill="#3EA089"/>
<path d="M345.469 224.595C344.718 224.595 343.985 224.373 343.361 223.956C342.738 223.539 342.252 222.947 341.964 222.254C341.677 221.561 341.602 220.798 341.749 220.062C341.895 219.327 342.256 218.651 342.787 218.12C343.317 217.59 343.993 217.229 344.729 217.082C345.464 216.936 346.227 217.011 346.92 217.298C347.613 217.585 348.205 218.071 348.622 218.695C349.039 219.319 349.261 220.052 349.261 220.802C349.258 221.807 348.857 222.77 348.147 223.481C347.436 224.191 346.473 224.592 345.469 224.595ZM345.469 217.322C344.777 217.319 344.1 217.522 343.524 217.905C342.947 218.288 342.498 218.833 342.232 219.472C341.966 220.111 341.896 220.814 342.03 221.493C342.165 222.171 342.498 222.795 342.987 223.284C343.476 223.773 344.099 224.106 344.778 224.24C345.457 224.375 346.16 224.305 346.799 224.039C347.437 223.773 347.983 223.323 348.366 222.747C348.748 222.171 348.952 221.494 348.949 220.802C348.949 219.879 348.582 218.994 347.93 218.341C347.277 217.688 346.392 217.322 345.469 217.322Z" fill="#3EA089"/>
<path d="M344.34 208.332L344.46 212.605L343.392 212.581L345.384 215.017L347.376 212.557H346.272L346.152 208.344L344.34 208.332Z" fill="#91D4C4"/>
<path d="M387.033 270.528H387.669H388.473L389.565 270.36C390.592 270.163 391.597 269.866 392.566 269.472C393.893 268.896 395.134 268.136 396.25 267.215C397.655 266.031 398.82 264.589 399.683 262.966C400.707 261.002 401.273 258.831 401.339 256.617C401.339 251.816 401.339 246.235 401.339 239.982C401.339 214.945 401.279 178.77 401.243 133.989C401.243 111.617 401.243 87.1082 401.243 60.775C401.243 57.4864 401.243 54.1617 401.243 50.8251C401.363 49.1735 401.225 47.5134 400.835 45.9041C400.355 44.3198 399.47 42.8883 398.267 41.7513C397.073 40.578 395.584 39.7487 393.958 39.3509C392.286 39.0603 390.587 38.9636 388.893 39.0628H335.158H142.677C140.552 39.0628 138.38 39.0628 136.316 39.0628C134.257 39.2757 132.349 40.241 130.958 41.7737C129.567 43.3064 128.791 45.2987 128.778 47.3684V78.8866C128.778 95.5138 128.778 111.885 128.778 128C128.778 160.19 128.778 191.252 128.778 220.838C128.778 228.24 128.778 235.545 128.778 242.755V253.485C128.692 255.237 128.776 256.994 129.03 258.73C129.511 261.268 130.677 263.628 132.401 265.552C134.125 267.477 136.342 268.895 138.812 269.652C140.441 270.125 142.135 270.332 143.829 270.264H169.034H242.248L348.241 270.36L377.047 270.42H384.536C386.228 270.42 387.093 270.42 387.093 270.42H384.536H377.047H348.241L242.248 270.528H169.034H143.829C142.082 270.591 140.336 270.376 138.656 269.892C136.09 269.11 133.786 267.64 131.994 265.643C130.202 263.646 128.991 261.198 128.49 258.562C128.229 256.79 128.14 254.997 128.226 253.209C128.226 249.608 128.226 246.079 128.226 242.478V220.838C128.226 191.252 128.226 160.19 128.226 128V47.4284C128.246 45.2072 129.08 43.0705 130.572 41.4243C132.063 39.778 134.107 38.7369 136.316 38.4987C138.512 38.3907 140.6 38.4987 142.749 38.4987H335.23H391.485C392.367 38.4916 393.245 38.5924 394.102 38.7988C395.811 39.2161 397.381 40.0772 398.651 41.2952C399.913 42.5054 400.847 44.0172 401.363 45.6881C401.757 47.3497 401.899 49.0613 401.783 50.7651V60.715C401.783 87.0242 401.783 111.533 401.783 133.929C401.783 178.674 401.699 214.885 401.675 239.922C401.675 246.175 401.675 251.744 401.675 256.557C401.62 258.607 401.128 260.621 400.232 262.466C399.336 264.31 398.056 265.941 396.478 267.251C395.351 268.172 394.098 268.928 392.758 269.496C391.783 269.889 390.769 270.179 389.733 270.36L388.629 270.516H387.825L387.033 270.528Z" fill="#032930"/>
<path d="M415.277 159.587C416.87 152.805 412.664 146.016 405.882 144.422C399.1 142.829 392.31 147.036 390.717 153.818C389.124 160.6 393.33 167.389 400.112 168.983C406.894 170.576 413.684 166.37 415.277 159.587Z" fill="#91D4C4"/>
<path d="M390.405 156.71C390.508 157.735 390.677 158.754 390.909 159.758C391.345 161.435 392.128 163.002 393.206 164.358C394.284 165.715 395.634 166.831 397.169 167.634C398.704 168.438 400.39 168.912 402.119 169.025C403.848 169.138 405.581 168.888 407.208 168.292C409.502 167.457 411.496 165.957 412.933 163.983C414.485 161.876 415.322 159.327 415.322 156.71C415.322 154.092 414.485 151.544 412.933 149.436C412.212 148.429 411.333 147.545 410.329 146.82C409.385 146.096 408.332 145.529 407.208 145.139C405.271 144.426 403.187 144.209 401.144 144.509C399.102 144.809 397.168 145.616 395.518 146.856C393.265 148.546 391.642 150.942 390.909 153.661C390.679 154.666 390.51 155.684 390.405 156.71C390.323 155.665 390.416 154.615 390.681 153.601C391.333 150.779 392.945 148.272 395.242 146.508C396.946 145.192 398.955 144.328 401.082 143.994C403.21 143.66 405.387 143.869 407.412 144.599C408.588 145.006 409.693 145.593 410.689 146.34C411.737 147.105 412.66 148.028 413.425 149.076C415.062 151.287 415.945 153.965 415.945 156.716C415.945 159.466 415.062 162.144 413.425 164.355C412.66 165.403 411.737 166.326 410.689 167.092C409.691 167.834 408.586 168.421 407.412 168.832C405.244 169.613 402.906 169.795 400.643 169.36C398.242 168.893 396.026 167.745 394.26 166.053C392.493 164.361 391.251 162.197 390.681 159.818C390.416 158.805 390.323 157.754 390.405 156.71Z" fill="#032930"/>
<path d="M401.099 160.286C400.976 160.283 400.857 160.242 400.758 160.169C400.659 160.096 400.585 159.995 400.546 159.878C400.506 159.762 400.504 159.636 400.539 159.518C400.573 159.4 400.643 159.295 400.739 159.218L403.98 156.686L400.703 154.213C400.578 154.116 400.496 153.973 400.476 153.815C400.455 153.658 400.498 153.499 400.595 153.373C400.642 153.31 400.702 153.257 400.769 153.217C400.837 153.177 400.912 153.15 400.99 153.139C401.068 153.128 401.148 153.132 401.224 153.152C401.3 153.171 401.372 153.206 401.435 153.253L405.324 156.206C405.397 156.26 405.457 156.331 405.498 156.412C405.54 156.493 405.562 156.582 405.564 156.674C405.565 156.766 405.544 156.857 405.505 156.94C405.465 157.023 405.408 157.096 405.336 157.154L401.471 160.166C401.364 160.247 401.233 160.289 401.099 160.286Z" fill="#032930"/>
<path d="M138.697 160.354C140.29 153.572 136.084 146.783 129.302 145.189C122.52 143.596 115.73 147.803 114.137 154.585C112.544 161.367 116.75 168.157 123.532 169.75C130.314 171.343 137.104 167.137 138.697 160.354Z" fill="#91D4C4"/>
<path d="M139.04 157.478C138.928 156.452 138.755 155.434 138.524 154.429C137.796 151.707 136.173 149.31 133.915 147.624C132.382 146.465 130.597 145.683 128.706 145.343C126.535 144.946 124.297 145.137 122.225 145.895C121.107 146.297 120.055 146.863 119.104 147.576C118.106 148.31 117.231 149.197 116.511 150.204C114.96 152.312 114.122 154.86 114.122 157.478C114.122 160.095 114.96 162.644 116.511 164.751C117.232 165.755 118.107 166.638 119.104 167.368C120.049 168.089 121.102 168.656 122.225 169.048C124.296 169.811 126.534 170.005 128.706 169.612C130.597 169.272 132.382 168.491 133.915 167.332C136.168 165.641 137.79 163.246 138.524 160.526C138.753 159.521 138.926 158.503 139.04 157.478C139.114 158.522 139.021 159.571 138.764 160.586C138.197 162.965 136.956 165.13 135.189 166.821C133.421 168.511 131.204 169.656 128.802 170.116C126.536 170.556 124.194 170.378 122.021 169.6C119.622 168.726 117.535 167.165 116.019 165.111C114.376 162.903 113.488 160.224 113.488 157.472C113.488 154.719 114.376 152.04 116.019 149.832C116.779 148.779 117.703 147.855 118.756 147.096C119.75 146.354 120.851 145.767 122.021 145.355C124.194 144.58 126.535 144.398 128.802 144.827C130.761 145.197 132.606 146.019 134.191 147.228C136.488 148.994 138.104 151.5 138.764 154.321C139.026 155.351 139.119 156.417 139.04 157.478Z" fill="#032930"/>
<path d="M128.37 161.055C128.24 161.057 128.113 161.015 128.01 160.935L124.109 157.982C124.036 157.927 123.977 157.857 123.935 157.776C123.894 157.695 123.871 157.605 123.869 157.514C123.868 157.421 123.889 157.328 123.931 157.245C123.973 157.161 124.034 157.089 124.109 157.034L127.962 154.021C128.024 153.967 128.096 153.926 128.174 153.901C128.252 153.876 128.334 153.867 128.415 153.875C128.497 153.883 128.576 153.908 128.648 153.948C128.719 153.987 128.782 154.041 128.832 154.106C128.882 154.171 128.919 154.245 128.939 154.325C128.959 154.404 128.963 154.487 128.95 154.568C128.937 154.648 128.908 154.726 128.864 154.795C128.82 154.864 128.762 154.923 128.694 154.969L125.453 157.502L128.73 159.974C128.831 160.05 128.905 160.155 128.943 160.276C128.98 160.396 128.979 160.525 128.939 160.644C128.9 160.764 128.823 160.868 128.721 160.941C128.619 161.015 128.496 161.055 128.37 161.055Z" fill="#032930"/>
<path d="M474.89 478.709C490.889 471.915 509.42 458.557 517.678 442.174C499.916 449.529 484.938 462.318 474.89 478.709Z" fill="#032930"/>
<path d="M478.298 453.3C494.297 446.506 512.817 433.136 521.086 416.753C503.325 424.116 488.348 436.909 478.298 453.3Z" fill="#032930"/>
<path d="M482.919 428.563C498.93 421.77 517.45 408.411 525.719 392.028C507.956 399.387 492.975 412.175 482.919 428.563Z" fill="#032930"/>
<path d="M488.728 402.674C503.826 393.72 520.654 377.901 526.919 360.534C510.147 370.305 496.807 385.024 488.728 402.674Z" fill="#032930"/>
<path d="M494.933 382.858C505.927 368.455 516.189 347.067 516.045 328.511C503.824 344.161 496.481 363.062 494.933 382.858Z" fill="#032930"/>
<path d="M491.849 392.292C489.64 372.824 482.067 348.363 469.236 333.768C471.394 354.95 479.204 375.162 491.849 392.292Z" fill="#032930"/>
<path d="M486.688 413.56C482.763 393.504 472.861 368.695 458.278 354.628C462.273 376.471 472.088 396.83 486.688 413.56Z" fill="#032930"/>
<path d="M480.734 439.509C476.822 419.453 466.92 394.644 452.337 380.578C456.333 402.417 466.143 422.776 480.734 439.509Z" fill="#032930"/>
<path d="M475.97 471.375C472.057 451.319 462.155 426.51 447.572 412.432C451.568 434.275 461.378 454.637 475.97 471.375Z" fill="#032930"/>
<path d="M495.641 379.089C495.641 379.089 495.641 379.185 495.521 379.389C495.401 379.593 495.341 379.917 495.209 380.277L494.105 383.758C493.145 386.771 491.837 391.163 490.312 396.613C488.788 402.062 487.096 408.615 485.355 415.816C483.615 423.018 481.911 431.143 480.302 439.629C478.694 448.115 477.422 456.24 476.366 463.634C475.309 471.027 474.553 477.736 473.965 483.365C473.377 488.995 473.017 493.555 472.825 496.712C472.729 498.26 472.645 499.473 472.597 500.313C472.597 500.697 472.597 501.009 472.597 501.261C472.576 501.368 472.576 501.478 472.597 501.585C472.597 501.585 472.597 501.477 472.597 501.261C472.597 501.045 472.669 500.709 472.705 500.325C472.789 499.449 472.909 498.236 473.053 496.724C473.329 493.567 473.773 489.019 474.397 483.401C475.021 477.784 475.837 471.099 476.894 463.694C477.95 456.288 479.294 448.187 480.866 439.689C482.439 431.191 484.191 423.174 485.871 415.888C487.552 408.603 489.22 402.086 490.672 396.685C492.125 391.283 493.373 386.819 494.273 383.782L495.269 380.289C495.377 379.905 495.449 379.605 495.521 379.365C495.573 379.279 495.613 379.186 495.641 379.089Z" fill="#032930"/>
<path d="M467.087 489.319C473.881 475.108 478.814 455.124 475.489 439.521C467.904 454.95 464.985 472.256 467.087 489.319Z" fill="#065363"/>
<path d="M455.805 470.919C462.586 456.696 467.531 436.724 464.207 421.121C456.617 436.548 453.697 453.856 455.805 470.919Z" fill="#065363"/>
<path d="M445.688 452.208C452.469 437.985 457.402 418.013 454.09 402.41C446.499 417.837 443.579 435.144 445.688 452.208Z" fill="#065363"/>
<path d="M435.714 432.019C440.755 416.98 443.287 396.48 438.114 381.478C432.431 397.736 431.597 415.296 435.714 432.019Z" fill="#065363"/>
<path d="M429.22 415.504C428.728 399.493 424.011 379.497 414.073 367.639C414.298 384.738 419.567 401.389 429.22 415.504Z" fill="#065363"/>
<path d="M432.221 423.498C420.447 412.384 402.551 401.354 386.456 399.913C399.048 412.121 414.972 420.327 432.221 423.498Z" fill="#065363"/>
<path d="M440.154 440.301C426.952 429.847 407.364 420.041 390.429 420.005C404.629 431.544 421.935 438.607 440.154 440.301Z" fill="#065363"/>
<path d="M450.033 460.573C436.83 450.119 417.242 440.301 400.295 440.265C414.493 451.817 431.806 458.886 450.033 460.573Z" fill="#065363"/>
<path d="M463.895 483.942C450.692 473.488 431.104 463.67 414.169 463.634C428.363 475.186 445.672 482.255 463.895 483.942Z" fill="#065363"/>
<path d="M427.685 412.6C427.685 412.6 427.685 412.684 427.757 412.864L428.021 413.608C428.297 414.316 428.669 415.276 429.125 416.489C430.085 418.985 431.525 422.574 433.446 426.967C437.214 435.764 442.783 447.767 449.721 460.633C453.19 467.054 456.67 473.092 459.935 478.517C463.199 483.942 466.26 488.731 468.925 492.715C471.589 496.7 473.726 499.917 475.334 502.065L477.134 504.562L477.614 505.21C477.667 505.284 477.727 505.353 477.794 505.414C477.794 505.414 477.794 505.318 477.662 505.174L477.23 504.49L475.514 501.933C474.014 499.725 471.913 496.496 469.273 492.487C466.632 488.479 463.656 483.642 460.403 478.229C457.15 472.816 453.718 466.766 450.237 460.345C443.324 447.503 437.695 435.5 433.83 426.799C431.897 422.43 430.373 418.877 429.341 416.405L428.141 413.572C428.009 413.272 427.901 413.032 427.805 412.84C427.775 412.755 427.735 412.674 427.685 412.6Z" fill="#032930"/>
<path d="M434.777 491.035H502.194V504.021H495.269L489.436 541.085H447.752L441.751 504.021H434.777V491.035Z" fill="#3EA089"/>
<path d="M434.777 503.757C434.777 503.577 449.756 503.445 468.24 503.445C486.723 503.445 501.714 503.577 501.714 503.757C501.714 503.937 486.723 504.069 468.24 504.069C449.756 504.069 434.777 503.913 434.777 503.757Z" fill="#032930"/>
<path d="M167.642 369.739C170.362 369.882 173.089 369.737 175.779 369.307C177.708 368.803 179.544 367.992 181.216 366.907C181.216 366.907 187.133 367.723 188.082 366.403C188.655 365.569 188.965 364.582 188.97 363.57L193.315 363.03L197.251 363.774L199.424 366.427C199.424 366.427 201.056 366.427 201.128 365.443C201.128 365.443 203.301 364.458 203.097 363.774C202.892 363.09 201.692 359.837 201.692 359.837L200.036 356.285C200.036 356.285 189.306 355.613 188.898 355.877C188.49 356.141 174.903 362.478 174.903 362.478L169.874 363.678L167.642 369.739Z" fill="#EB996E"/>
<path d="M173.211 352.204L190.23 348.387L202.112 347.751C202.112 347.751 212.242 352.456 211.954 356.669L214.079 357.809C214.079 357.809 213.899 360.954 211.366 360.209C210.133 359.854 208.93 359.405 207.765 358.865L210.49 363.018C209.919 363.341 209.277 363.517 208.621 363.529C207.965 363.542 207.316 363.391 206.733 363.09C205.881 362.682 199.904 358.157 199.904 358.157L194.851 358.013C194.851 358.013 185.465 364.47 181.108 365.214C176.751 365.959 169.334 364.422 169.334 364.422L173.211 352.204Z" fill="#FFBE9D"/>
<path d="M211.365 360.257C211.365 360.185 211.798 360.329 212.494 360.257C212.693 360.213 212.88 360.127 213.044 360.005C213.207 359.883 213.343 359.728 213.442 359.549C213.688 359.051 213.788 358.494 213.73 357.941L213.826 358.109L206.48 353.308L204.272 351.868C203.588 351.424 202.82 350.908 202.268 350.668H201.271H200.179H198.223C196.938 350.735 195.649 350.699 194.37 350.56C195.631 350.34 196.907 350.228 198.187 350.224L200.107 350.127H201.187H201.752H202.172C202.259 350.116 202.348 350.116 202.436 350.127C203.193 350.516 203.926 350.949 204.632 351.424L206.853 352.864C209.685 354.748 212.242 356.465 214.054 357.845L214.15 357.917V358.025C214.193 358.667 214.042 359.306 213.718 359.861C213.588 360.071 213.413 360.249 213.205 360.382C212.998 360.515 212.763 360.6 212.518 360.63C212.219 360.667 211.916 360.638 211.629 360.545C211.461 360.317 211.365 360.281 211.365 360.257Z" fill="#EB996E"/>
<path d="M210.31 362.79C209.641 362.172 209.045 361.479 208.533 360.725C207.489 359.405 206.133 357.545 204.56 355.468H204.62L204.416 355.312C203.9 354.916 203.384 354.532 202.88 354.196L202.112 353.728C201.881 353.602 201.629 353.52 201.368 353.488C200.383 353.328 199.389 353.228 198.391 353.188C197.454 353.208 196.518 353.135 195.595 352.972C196.516 352.769 197.461 352.693 198.403 352.744C199.43 352.718 200.458 352.774 201.476 352.912C201.797 352.958 202.109 353.055 202.4 353.2C202.676 353.344 202.94 353.512 203.204 353.68C203.744 354.028 204.272 354.412 204.801 354.82L205.005 354.988C206.529 357.077 207.873 358.973 208.821 360.365C209.412 361.112 209.911 361.926 210.31 362.79Z" fill="#EB996E"/>
<path d="M276.899 490.123L277.295 521.617C277.295 521.617 309.293 529.514 309.941 535.324L249.042 540.569L246.413 491.515L276.899 490.123Z" fill="#3EA089"/>
<g opacity="0.6">
<path d="M258.295 519.889C257.717 520.096 257.236 520.51 256.943 521.05C256.651 521.59 256.568 522.22 256.711 522.817C256.897 523.403 257.301 523.895 257.839 524.192C258.377 524.489 259.008 524.568 259.603 524.413C260.215 524.192 260.723 523.752 261.029 523.178C261.335 522.603 261.417 521.936 261.26 521.305C261.003 520.713 260.527 520.244 259.931 519.996C259.336 519.748 258.668 519.739 258.067 519.973" fill="white"/>
</g>
<g opacity="0.6">
<path d="M249.041 540.569L248.777 535.624L307.757 532.611C308.405 532.881 308.976 533.309 309.416 533.856C309.857 534.404 310.153 535.052 310.277 535.744L249.041 540.569Z" fill="white"/>
</g>
<path d="M278.267 521.257C278.267 521.557 276.791 521.761 275.374 522.793C273.958 523.825 273.226 525.122 272.974 525.014C272.722 524.906 273.034 523.117 274.798 521.917C276.563 520.717 278.327 520.981 278.267 521.257Z" fill="#032930"/>
<path d="M284.808 523.597C284.88 523.885 283.608 524.449 282.672 525.758C281.736 527.066 281.472 528.422 281.196 528.422C280.92 528.422 280.62 526.742 281.832 525.146C283.044 523.549 284.784 523.309 284.808 523.597Z" fill="#032930"/>
<path d="M288.805 531.087C288.541 531.159 288.061 529.695 288.745 528.026C289.429 526.358 290.785 525.626 290.929 525.878C291.073 526.13 290.245 527.078 289.729 528.41C289.213 529.743 289.105 531.039 288.805 531.087Z" fill="#032930"/>
<path d="M277.39 514.091C277.27 514.368 275.89 514.031 274.21 514.223C272.529 514.416 271.245 515.016 271.077 514.764C270.909 514.512 272.121 513.395 274.102 513.191C276.082 512.987 277.522 513.851 277.39 514.091Z" fill="#032930"/>
<g opacity="0.3">
<path d="M276.971 496.364L277.055 501.969L247.157 505.174L246.749 498.104L276.971 496.364Z" fill="black"/>
</g>
<path d="M277.199 507.742C276.209 508.059 275.152 508.105 274.138 507.874C273.029 507.729 271.941 507.451 270.897 507.046C270.278 506.804 269.677 506.519 269.097 506.194C268.742 506.024 268.418 505.797 268.137 505.522C267.932 505.321 267.799 505.057 267.76 504.773C267.721 504.488 267.778 504.198 267.921 503.949C268.058 503.733 268.245 503.553 268.467 503.423C268.688 503.294 268.937 503.219 269.193 503.205C269.596 503.181 270 503.213 270.393 503.301C272.159 503.65 273.809 504.434 275.194 505.582C276.671 506.782 277.211 507.91 277.115 507.982C277.019 508.054 276.25 507.19 274.714 506.182C273.846 505.595 272.906 505.123 271.918 504.778C271.336 504.572 270.738 504.42 270.129 504.322C269.481 504.178 268.929 504.202 268.773 504.502C268.773 504.61 268.713 504.658 268.857 504.838C269.07 505.032 269.308 505.198 269.565 505.33C270.101 505.641 270.654 505.921 271.222 506.17C272.192 506.596 273.201 506.929 274.234 507.166C275.236 507.279 276.227 507.471 277.199 507.742Z" fill="#032930"/>
<path d="M276.827 508.186C276.196 507.345 275.859 506.321 275.867 505.27C275.762 504.143 275.851 503.006 276.131 501.909C276.296 501.256 276.526 500.621 276.815 500.013C276.96 499.601 277.208 499.233 277.536 498.946C277.864 498.658 278.26 498.459 278.687 498.368C278.96 498.36 279.229 498.431 279.463 498.571C279.697 498.712 279.886 498.916 280.007 499.16C280.181 499.51 280.307 499.881 280.38 500.265C280.518 500.944 280.55 501.64 280.476 502.329C280.356 503.486 279.943 504.593 279.275 505.546C278.159 507.19 276.935 507.61 276.875 507.502C276.815 507.394 277.775 506.734 278.615 505.174C279.099 504.273 279.381 503.278 279.443 502.257C279.479 501.665 279.43 501.071 279.299 500.493C279.167 499.845 278.903 499.292 278.663 499.412C278.423 499.532 277.871 499.929 277.643 500.469C277.366 501.01 277.141 501.577 276.971 502.161C276.675 503.158 276.525 504.193 276.527 505.234C276.611 507.034 276.983 508.138 276.827 508.186Z" fill="#032930"/>
<path d="M124.385 382.066C124.385 382.066 223.524 365.61 227.941 364.926C244.936 362.31 264.332 364.386 270.801 376.581C274.183 385.606 276.115 395.109 276.527 404.738C277.343 419.729 283.296 508.534 283.296 508.534L242.392 515.34L228.925 417.076L205.833 421.409C207.129 421.253 145.821 432.211 127.313 434.144C113.019 435.596 96.5394 427.891 93.2508 415.144C91.0904 406.814 86.3975 383.626 86.3975 383.626L124.385 382.066Z" fill="#032930"/>
<path d="M238.611 403.502C236.631 405.397 234.797 407.439 233.126 409.611C231.634 411.913 230.31 414.32 229.165 416.813C229.249 415.981 229.473 415.17 229.825 414.412C230.535 412.573 231.475 410.831 232.622 409.227C233.765 407.619 235.099 406.156 236.594 404.87C237.186 404.306 237.868 403.843 238.611 403.502Z" fill="#065363"/>
<path d="M39.9724 213.901C38.5185 216.292 37.816 219.064 37.956 221.858C37.956 224.583 39.8283 230.104 44.6533 230.38C43.369 238.17 48.362 243.919 56.6556 243.931C64.9492 243.943 74.4551 229.708 82.1486 226.587L104.473 220.682C106.429 220.226 107.233 217.838 107.197 215.881C107.161 213.925 106.645 211.777 107.354 209.88C108.326 207.3 111.326 205.919 112.346 203.351C113.547 200.434 111.71 197.194 109.634 194.841C107.558 192.489 105.037 190.244 104.377 187.184C103.765 184.363 104.857 181.183 103.441 178.662C101.712 175.565 97.1635 175.169 95.0391 172.325C94.0189 170.933 93.6948 169.132 92.6386 167.74C90.9223 165.339 87.6096 164.751 84.6931 165.063C81.7765 165.375 78.98 166.444 76.0634 166.66C72.0546 166.948 67.9138 165.651 64.0611 166.816C59.8122 168.088 57.2317 171.857 54.4592 175.505L50.8585 179.73C50.1227 180.458 49.3188 181.113 48.458 181.687C46.8537 182.514 45.3307 183.491 43.9091 184.603C43.2516 185.298 42.7413 186.118 42.4089 187.015C42.0765 187.911 41.9288 188.866 41.9748 189.821C42.0208 190.776 42.2594 191.712 42.6764 192.573C43.0934 193.434 43.6801 194.201 44.4012 194.829C42.8634 195.358 41.5373 196.369 40.6204 197.712C39.7034 199.055 39.2446 200.658 39.3122 202.283C39.3122 202.283 38.9161 205.979 41.2566 207.624C40.3575 208.366 39.7396 209.393 39.5059 210.536C39.2723 211.678 39.4369 212.865 39.9724 213.901Z" fill="#032930"/>
<path d="M54.9277 221.45C52.9289 215.839 51.4229 210.064 50.4268 204.191C49.4301 198.291 49.9168 192.236 51.8431 186.572C52.1551 185.731 54.8437 180.054 55.7318 180.138C56.38 180.21 54.7236 185.503 55.0477 186.056C58.1443 191.373 58.9965 197.782 58.4924 203.915C57.9485 209.876 56.7408 215.758 54.8917 221.45" fill="#032930"/>
<path d="M69.6301 273.384C56.4275 271.728 54.9392 250.58 54.9392 250.58L54.3391 198.754C53.859 183.835 62.1406 171.149 77.0715 171.041L78.4518 171.113C85.1405 171.481 91.4459 174.352 96.1154 179.155C100.785 183.957 103.477 190.341 103.657 197.038C104.005 209.976 104.221 224.283 103.765 231.184C102.829 245.479 88.4017 246.943 88.4017 246.943C88.4017 246.943 88.0177 259.774 88.0657 264.191C88.2217 279.41 73.2788 273.721 69.5821 273.396L69.6301 273.384Z" fill="#FFBE9D"/>
<path d="M88.4499 246.931C81.8405 246.561 75.4757 244.304 70.1104 240.426C70.1104 240.426 73.9631 251.684 88.3179 251.156L88.4499 246.931Z" fill="#EB996E"/>
<path d="M99.9363 208.764C99.9144 209.297 99.6849 209.8 99.2968 210.165C98.9087 210.531 98.393 210.73 97.8599 210.72C97.5989 210.727 97.3394 210.681 97.0964 210.585C96.8535 210.49 96.6321 210.347 96.4453 210.164C96.2586 209.982 96.1101 209.764 96.0088 209.524C95.9075 209.283 95.8554 209.025 95.8555 208.764C95.8773 208.231 96.1069 207.728 96.4949 207.362C96.883 206.997 97.3988 206.798 97.9319 206.807C98.1928 206.801 98.4524 206.847 98.6953 206.942C98.9382 207.038 99.1596 207.181 99.3464 207.363C99.5332 207.546 99.6816 207.763 99.7829 208.004C99.8842 208.244 99.9363 208.503 99.9363 208.764Z" fill="#032930"/>
<path d="M100.333 202.811C100.057 203.063 98.5803 201.827 96.3719 201.719C94.1634 201.611 92.5071 202.619 92.2791 202.331C92.051 202.043 92.4591 201.743 93.1912 201.275C94.1731 200.66 95.3239 200.37 96.4799 200.446C97.6247 200.505 98.7213 200.926 99.6125 201.647C100.261 202.199 100.465 202.655 100.333 202.811Z" fill="#032930"/>
<path d="M79.2683 208.764C79.2464 209.297 79.0169 209.8 78.6288 210.165C78.2408 210.531 77.725 210.73 77.1919 210.72C76.931 210.727 76.6714 210.681 76.4285 210.585C76.1855 210.49 75.9642 210.347 75.7774 210.164C75.5906 209.982 75.4422 209.764 75.3409 209.524C75.2396 209.283 75.1874 209.025 75.1875 208.764C75.2094 208.231 75.4389 207.728 75.827 207.362C76.215 206.997 76.7308 206.798 77.2639 206.807C77.5248 206.801 77.7844 206.847 78.0273 206.942C78.2703 207.038 78.4916 207.181 78.6784 207.363C78.8652 207.546 79.0136 207.763 79.1149 208.004C79.2162 208.244 79.2684 208.503 79.2683 208.764Z" fill="#032930"/>
<path d="M78.7517 202.535C78.4757 202.799 76.9874 201.562 74.791 201.454C72.5945 201.346 70.9262 202.355 70.6982 202.066C70.4701 201.778 70.8662 201.478 71.5983 201.01C72.5846 200.395 73.7392 200.105 74.899 200.182C76.0438 200.241 77.1404 200.661 78.0316 201.382C78.6677 201.934 78.8718 202.427 78.7517 202.535Z" fill="#032930"/>
<path d="M85.7257 219.854C86.9032 219.559 88.1125 219.41 89.3264 219.41C89.8905 219.41 90.4186 219.29 90.5266 218.918C90.6064 218.338 90.5059 217.747 90.2386 217.226C89.7825 215.845 89.3144 214.393 88.8103 212.869C86.8299 206.652 85.4256 201.563 85.6777 201.491C85.9297 201.419 87.7421 206.375 89.7225 212.593C90.1906 214.117 90.6467 215.581 91.0788 216.974C91.3973 217.67 91.4569 218.457 91.2468 219.194C91.1562 219.387 91.0226 219.557 90.8561 219.69C90.6896 219.823 90.4948 219.916 90.2866 219.962C89.9717 220.033 89.6488 220.061 89.3264 220.046C88.1229 220.138 86.9126 220.074 85.7257 219.854Z" fill="#032930"/>
<path d="M79.1607 221.03C79.5208 221.03 79.4007 223.431 81.3451 225.219C83.2895 227.007 85.858 226.899 85.858 227.235C85.858 227.379 85.2699 227.668 84.1897 227.632C82.7909 227.583 81.4549 227.039 80.4209 226.095C79.4266 225.19 78.8239 223.933 78.7406 222.591C78.7166 221.582 79.0167 221.006 79.1607 221.03Z" fill="#032930"/>
<path d="M79.1595 193.617C78.9195 194.193 76.759 193.797 74.1425 193.965C71.526 194.133 69.4136 194.733 69.1016 194.181C68.9695 193.917 69.3536 193.377 70.2298 192.837C71.3908 192.185 72.6853 191.808 74.0145 191.733C75.3437 191.658 76.6724 191.888 77.8993 192.405C78.7634 192.837 79.1595 193.329 79.1595 193.617Z" fill="#032930"/>
<path d="M99.816 195.453C99.3959 195.921 97.9076 195.333 96.0953 195.201C94.2829 195.069 92.7106 195.357 92.3866 194.817C92.2425 194.553 92.5066 194.073 93.2147 193.617C94.1424 193.087 95.2125 192.861 96.2753 192.969C97.3505 193.048 98.3722 193.469 99.1919 194.169C99.816 194.685 99.996 195.213 99.816 195.453Z" fill="#032930"/>
<path d="M54.9393 209.4C54.6993 209.28 45.2654 205.967 45.0494 215.761C44.8333 225.555 54.7233 223.755 54.7473 223.467C54.7713 223.179 54.9393 209.4 54.9393 209.4Z" fill="#FFBE9D"/>
<path d="M51.831 219.698C51.831 219.698 51.663 219.806 51.3629 219.938C50.9538 220.098 50.4998 220.098 50.0907 219.938C49.0585 219.53 48.2303 217.874 48.2183 216.097C48.2208 215.269 48.4008 214.45 48.7464 213.697C48.8442 213.391 49.0157 213.114 49.246 212.89C49.4762 212.666 49.7581 212.502 50.0667 212.413C50.2641 212.364 50.4722 212.387 50.6543 212.477C50.8365 212.567 50.9812 212.719 51.0629 212.905C51.1829 213.181 51.0629 213.373 51.1709 213.385C51.2789 213.397 51.3869 213.229 51.3149 212.821C51.2658 212.576 51.1345 212.356 50.9429 212.197C50.6775 211.989 50.3413 211.894 50.0067 211.933C49.6016 212.002 49.2212 212.174 48.9018 212.433C48.5823 212.691 48.3346 213.027 48.1823 213.409C47.7544 214.253 47.5323 215.187 47.5342 216.133C47.5342 218.102 48.5304 219.974 49.9347 220.418C50.1951 220.5 50.4707 220.522 50.7409 220.483C51.0111 220.443 51.2689 220.343 51.495 220.19C51.807 219.926 51.867 219.71 51.831 219.698Z" fill="#EB996E"/>
<path d="M97.5716 180.714C99.1679 179.862 94.475 174.713 90.5982 172.841C84.7411 170.104 75.7753 168.34 70.3263 169.804C63.761 171.581 58.3239 174.761 54.9272 180.666C51.7002 186.677 50.1225 193.436 50.3544 200.254C50.2553 202.335 50.7065 204.405 51.6626 206.255C53.0069 208.44 55.6114 209.856 55.4554 212.821C55.3755 213.912 55.7292 214.99 56.4395 215.821C58.2039 217.754 60.4243 215.989 61.4565 214.213C63.665 210.396 63.953 205.811 64.2051 201.419C64.5437 198.303 64.3735 195.153 63.701 192.093C63.2449 190.46 62.5007 188.9 62.1287 187.292C61.8934 186.471 61.8392 185.61 61.9698 184.766C62.1004 183.923 62.4126 183.118 62.8848 182.407C63.1286 182.119 63.3977 181.854 63.689 181.615C65.0714 180.44 66.7416 179.654 68.5281 179.337C70.3146 179.021 72.1531 179.186 73.8549 179.814C79.352 181.831 88.7378 184.867 91.2223 183.031C94.823 180.378 95.6632 178.638 95.6632 178.638L97.5716 180.714Z" fill="#032930"/>
<path d="M70.8546 168.484C73.5492 167.572 76.3973 167.201 79.2356 167.393C82.0738 167.584 84.8463 168.335 87.3939 169.6C88.7573 170.251 89.9756 171.17 90.9758 172.302C91.976 173.434 92.7376 174.756 93.215 176.19C93.9951 179.094 92.7109 182.659 89.9023 183.751L89.7103 183.871C85.5215 185.227 82.809 184.627 78.6562 183.139C75.1635 181.879 72.0669 179.67 68.5742 178.434C64.8258 177.11 60.7666 176.938 56.9199 177.942C60.6532 173.62 65.4595 170.358 70.8546 168.484Z" fill="#032930"/>
<path d="M52.2148 178.17C52.2989 178.242 53.091 177.306 54.6873 176.201C55.6091 175.557 56.6043 175.026 57.6519 174.617C58.9123 174.095 60.2747 173.865 61.6367 173.945C64.1352 174.216 66.5044 175.194 68.466 176.765C69.9903 177.966 70.6864 178.974 70.7825 178.902C70.8785 178.83 70.6744 178.602 70.3504 178.146C69.8897 177.508 69.3582 176.924 68.7661 176.405C66.7895 174.66 64.3187 173.574 61.6967 173.297C60.2365 173.206 58.7757 173.465 57.4359 174.053C56.3501 174.502 55.3321 175.1 54.4113 175.829C53.5237 176.447 52.7754 177.245 52.2148 178.17Z" fill="#065363"/>
<path d="M82.0771 167.596C82.9236 167.965 83.789 168.29 84.6696 168.568C88.8007 170.218 92.316 173.112 94.7276 176.85C95.6398 178.278 96.0839 179.25 96.1799 179.25C95.9945 178.323 95.6362 177.44 95.1237 176.646C92.8651 172.638 89.1932 169.617 84.8257 168.172C83.953 167.812 83.0211 167.616 82.0771 167.596Z" fill="#065363"/>
<path d="M53.0672 238.662L51.3389 246.115L91.5107 271.068L89.7104 258.634C86.0552 254.882 81.9373 251.611 77.456 248.9C69.7375 244.58 61.5561 241.146 53.0672 238.662Z" fill="#F5F5F5"/>
<path d="M49.8382 248.264C49.8382 248.264 37.4758 274.465 36.6357 284.415C35.7955 294.365 39.1322 327.479 39.1322 327.479L94.895 391.091L150.55 394.788C150.55 394.788 124.205 339.385 118.312 328.583C112.418 317.781 92.6026 268.824 92.6026 268.824C91.0601 264.772 88.6798 261.091 85.6172 258.022C78.0677 250.016 63.4249 245.083 50.2463 242.418L49.8382 248.264Z" fill="#3EA089"/>
<path d="M71.0702 259.45C79.3399 260.422 89.9619 266.651 93.6466 281.186L97.2474 299.19L115.071 335.365L173.462 352.024L165.877 374.9C165.877 374.9 107.965 370.303 100.464 368.287C92.9625 366.271 61.8284 322.114 61.8284 322.114C61.8284 322.114 46.2254 295.217 50.2462 275.401C52.2386 265.511 60.8683 258.25 71.0702 259.45Z" fill="#3EA089"/>
<path d="M71.0711 259.45H69.6789C68.316 259.416 66.9532 259.516 65.6101 259.75C63.4443 260.183 61.372 260.996 59.4889 262.15C56.9393 263.734 54.7909 265.887 53.2116 268.44C52.278 269.941 51.5361 271.554 51.0032 273.24C50.8539 273.685 50.7297 274.138 50.6312 274.597C50.4984 275.061 50.402 275.534 50.3431 276.013C50.2111 276.985 50.079 277.969 49.935 278.978C49.6496 283.397 49.936 287.834 50.7872 292.18C51.7485 297.148 53.1503 302.02 54.976 306.739C56.9598 312.018 59.3266 317.144 62.0574 322.078C66.5703 328.427 71.4792 335.125 76.7602 342.05C82.2002 349.339 88.0131 356.341 94.1756 363.03C95.7815 364.755 97.5911 366.279 99.5647 367.567C100.628 368.066 101.768 368.379 102.937 368.491C104.138 368.671 105.338 368.875 106.538 369.007C111.339 369.643 116.344 370.147 121.373 370.651C131.407 371.636 141.777 372.548 152.267 373.436L165.878 374.54L165.566 374.756C168.134 366.979 170.659 359.353 173.139 351.88L173.355 352.276L114.976 335.581H114.856V335.473L97.0802 299.262C96.2801 295.309 95.5479 291.56 94.8838 288.015C94.3576 284.669 93.5955 281.364 92.6033 278.125C90.8929 272.982 87.7591 268.429 83.5656 264.995C80.9005 262.829 77.827 261.22 74.5278 260.266C73.6829 260.024 72.8255 259.827 71.9593 259.678L71.0711 259.51C71.0711 259.51 71.3832 259.51 71.9713 259.618C72.8464 259.735 73.7125 259.912 74.5638 260.146C77.8629 261.062 80.9417 262.638 83.6136 264.779C87.8709 268.219 91.0634 272.797 92.8194 277.981C93.8586 281.228 94.6608 284.545 95.2198 287.907C95.932 291.444 96.6801 295.189 97.4643 299.142L115.336 335.293L115.168 335.161L173.571 351.784L173.871 351.868L173.775 352.168C171.303 359.633 168.778 367.263 166.202 375.056L166.118 375.284H165.878L152.267 374.18C141.729 373.28 131.407 372.38 121.361 371.384C116.332 370.88 111.375 370.363 106.514 369.727C105.314 369.595 104.114 369.391 102.913 369.211C102.313 369.127 101.713 368.983 101.113 368.863C100.484 368.765 99.8809 368.545 99.3366 368.215C97.329 366.869 95.4913 365.285 93.8636 363.498C87.6877 356.789 81.8666 349.762 76.4242 342.446C71.1552 335.509 66.2582 328.799 61.7453 322.426C59.0169 317.464 56.6542 312.309 54.6759 307.003C52.7949 302.21 51.3488 297.257 50.3551 292.204C49.5132 287.829 49.2429 283.363 49.5509 278.918C49.695 277.897 49.839 276.889 49.971 275.917C50.038 275.434 50.1424 274.956 50.2831 274.489C50.3841 274.022 50.5123 273.561 50.6672 273.108C51.2131 271.391 51.9754 269.749 52.9356 268.224C54.546 265.649 56.7369 263.487 59.3328 261.91C61.2411 260.746 63.3428 259.933 65.5381 259.51C66.8935 259.28 68.2704 259.204 69.6429 259.282C70.603 259.39 71.0711 259.45 71.0711 259.45Z" fill="#032930"/>
<path d="M104.989 349.335C105.169 348.493 105.476 347.683 105.901 346.935C106.8 345.064 107.869 343.28 109.094 341.606C110.322 339.932 111.7 338.373 113.211 336.949C113.797 336.316 114.477 335.778 115.227 335.353C115.359 335.497 112.419 338.101 109.598 341.978C106.778 345.855 105.169 349.419 104.989 349.335Z" fill="#032930"/>
<path d="M94.7636 273.469C94.2518 273.012 93.7781 272.514 93.3473 271.98C92.9153 271.476 92.3872 270.876 91.727 270.216C91.0669 269.556 90.3588 268.764 89.4706 267.971C87.4795 266.072 85.371 264.301 83.1574 262.666C80.4324 260.681 77.5775 258.881 74.6117 257.277C69.1646 254.434 63.4522 252.131 57.5564 250.4C55.2999 249.728 53.4516 249.2 52.1793 248.9C51.5074 248.761 50.8488 248.564 50.2109 248.312C50.8948 248.377 51.5728 248.494 52.2393 248.66C53.5356 248.912 55.3959 249.356 57.6764 249.968C63.6441 251.567 69.4195 253.813 74.8997 256.665C77.8947 258.276 80.767 260.106 83.4934 262.138C85.7114 263.809 87.8089 265.634 89.7706 267.599C90.6348 268.404 91.331 269.232 91.9671 269.916C92.6032 270.6 93.1673 271.236 93.5274 271.764C93.9842 272.299 94.3976 272.868 94.7636 273.469Z" fill="#032930"/>
<path d="M265.832 289.659C265.579 289.584 265.312 289.559 265.049 289.586C264.786 289.613 264.53 289.692 264.297 289.818C264.064 289.944 263.858 290.115 263.691 290.32C263.524 290.526 263.4 290.762 263.324 291.016L243.016 358.925L174.987 369.487C173.932 369.653 172.986 370.229 172.356 371.091C171.726 371.953 171.464 373.029 171.626 374.084L246.149 362.466L267.165 292.156C267.315 291.648 267.259 291.102 267.01 290.635C266.761 290.168 266.338 289.817 265.832 289.659Z" fill="#91D4C4"/>
<path d="M265.832 289.66C266.3 289.774 266.708 290.061 266.973 290.464C267.136 290.71 267.245 290.989 267.292 291.28C267.34 291.572 267.325 291.871 267.249 292.156L266.589 294.449L262.208 309.38L246.425 362.55V362.478V362.742H246.149L246.365 362.55L246.281 362.814L246.029 362.73H246.137L173.066 374.288L171.674 374.504H171.374V374.192C171.232 373.273 171.389 372.333 171.821 371.51C172.253 370.687 172.938 370.024 173.775 369.619C174.188 369.422 174.629 369.289 175.083 369.223L176.343 369.031L178.851 368.635L188.801 367.087L208.005 364.098L242.98 358.685L242.764 358.877C249.173 337.597 254.502 319.882 258.247 307.459L262.628 293.056C262.876 292.256 263.104 291.524 263.312 290.86C263.416 290.586 263.576 290.338 263.783 290.131C263.99 289.924 264.238 289.763 264.512 289.66C264.948 289.488 265.433 289.488 265.868 289.66C265.428 289.56 264.967 289.598 264.548 289.768C264.299 289.873 264.075 290.028 263.889 290.225C263.703 290.421 263.56 290.654 263.468 290.908C263.276 291.548 263.06 292.28 262.82 293.104L258.583 307.507C254.898 319.942 249.629 337.681 243.316 358.985V359.141H243.148L208.053 364.686L188.849 367.687L178.9 369.235L176.391 369.631C175.57 369.702 174.763 369.884 173.991 370.171C173.274 370.518 172.688 371.085 172.316 371.789C171.945 372.493 171.808 373.297 171.926 374.084L171.566 373.832L172.958 373.616L246.101 362.286H246.161L245.825 362.466V362.298H245.993L245.765 362.61V362.502C252.366 340.55 257.887 322.234 261.752 309.38C263.696 302.982 265.232 297.953 266.289 294.497L266.985 292.216C267.06 291.947 267.079 291.665 267.04 291.388C267.001 291.111 266.904 290.845 266.757 290.608C266.548 290.208 266.227 289.879 265.832 289.66Z" fill="#032930"/>
<path d="M246.161 362.514C246.017 362.61 245.297 361.77 244.409 360.762C243.52 359.753 242.812 358.901 242.932 358.769C243.052 358.637 243.976 359.297 244.889 360.353C245.801 361.41 246.305 362.418 246.161 362.514Z" fill="#065363"/>
<path d="M234.938 361.494C234.938 361.422 235.238 361.194 235.718 361.494C235.87 361.574 235.996 361.695 236.081 361.844C236.166 361.993 236.207 362.163 236.199 362.334C236.189 362.55 236.112 362.757 235.978 362.926C235.843 363.095 235.659 363.217 235.45 363.274C235.242 363.332 235.021 363.321 234.819 363.245C234.617 363.169 234.445 363.031 234.326 362.85C234.224 362.714 234.162 362.552 234.147 362.382C234.132 362.212 234.165 362.042 234.242 361.89C234.53 361.386 234.962 361.47 234.938 361.542C234.914 361.614 234.71 361.746 234.65 362.058C234.637 362.142 234.644 362.228 234.671 362.308C234.699 362.389 234.745 362.462 234.806 362.521C234.867 362.58 234.942 362.623 235.023 362.647C235.105 362.671 235.191 362.675 235.274 362.658C235.362 362.633 235.442 362.583 235.503 362.516C235.565 362.448 235.606 362.364 235.622 362.274C235.635 362.198 235.627 362.121 235.6 362.049C235.572 361.977 235.526 361.914 235.466 361.866C235.19 361.566 234.974 361.566 234.938 361.494Z" fill="#065363"/>
<path d="M239.283 360.822C239.283 360.749 239.583 360.521 240.063 360.822C240.216 360.9 240.343 361.021 240.428 361.17C240.513 361.32 240.553 361.49 240.543 361.662C240.529 361.875 240.448 362.079 240.312 362.244C240.177 362.41 239.993 362.529 239.787 362.586C239.582 362.636 239.366 362.624 239.167 362.551C238.968 362.479 238.796 362.349 238.671 362.178C238.569 362.042 238.507 361.879 238.492 361.71C238.477 361.54 238.51 361.369 238.587 361.218C238.887 360.713 239.307 360.785 239.283 360.858C239.259 360.93 239.055 361.074 238.995 361.374C238.979 361.453 238.982 361.535 239.005 361.612C239.029 361.69 239.07 361.76 239.127 361.818C239.188 361.886 239.265 361.937 239.351 361.966C239.437 361.996 239.53 362.003 239.619 361.986C239.706 361.958 239.784 361.908 239.845 361.841C239.906 361.773 239.948 361.691 239.967 361.602C239.982 361.524 239.975 361.444 239.948 361.37C239.92 361.296 239.873 361.231 239.811 361.182C239.559 360.906 239.319 360.906 239.283 360.822Z" fill="#065363"/>
<path d="M71.4426 450.263L43.8252 540.989L53.8952 541.085L91.2104 449.315L71.4426 450.263Z" fill="#032930"/>
<path d="M190.205 437.901C190.133 437.901 221.411 540.833 221.411 540.833L231.397 540.977L212.145 435.836L190.205 437.901Z" fill="#032930"/>
<path d="M28.2822 306.127C26.7754 304.736 24.8993 303.809 22.879 303.458C20.8586 303.107 18.7799 303.346 16.892 304.146C9.15048 307.447 -2.17973 314.216 0.364764 324.911C3.54538 338.281 40.1525 425.49 51.9628 453.504C53.0412 456.057 54.8531 458.234 57.1692 459.757C59.4853 461.281 62.2013 462.082 64.9734 462.061L218.387 460.765C219.991 460.75 221.574 460.394 223.03 459.722C224.486 459.05 225.784 458.077 226.836 456.867C227.889 455.656 228.673 454.237 229.137 452.701C229.6 451.165 229.733 449.549 229.525 447.959L223.788 404.39C222.866 397.39 219.586 390.914 214.49 386.029C209.393 381.144 202.783 378.141 195.751 377.517L96.5395 368.707L28.2822 306.127Z" fill="#065363"/>
<path d="M46.9462 439.953C46.906 439.848 46.8778 439.74 46.8622 439.629C46.8622 439.389 46.7542 439.089 46.6702 438.705C46.5021 437.84 46.2741 436.64 45.986 435.104C45.4219 431.935 44.6058 427.446 43.5856 421.901C42.5654 416.356 41.4251 409.671 40.1289 402.301C39.4928 398.617 38.8086 394.74 38.1125 390.731C37.7644 388.715 37.4043 386.674 37.0443 384.598C36.5609 382.474 36.5038 380.275 36.8762 378.129C37.1389 377.038 37.6434 376.021 38.3525 375.152C39.0852 374.299 39.9782 373.597 40.981 373.088C42.8716 372.185 44.9 371.604 46.9822 371.371C51.063 370.915 54.9758 370.687 58.7205 370.411C66.198 369.895 72.9313 369.559 78.5964 369.331C84.2615 369.103 88.8464 369.007 92.015 368.959H95.6157H96.5639H96.888C96.7803 368.972 96.6715 368.972 96.5639 368.959H95.6157L92.015 369.103L78.6204 369.679C72.9553 369.955 66.222 370.339 58.7565 370.879C55.0358 371.167 51.087 371.419 47.0662 371.876C45.0377 372.09 43.0608 372.651 41.2211 373.532C40.2963 373.979 39.4808 374.624 38.8317 375.42C38.1827 376.216 37.716 377.145 37.4644 378.141C37.1101 380.209 37.1713 382.326 37.6444 384.37C37.9965 386.45 38.3445 388.491 38.6886 390.491C39.3847 394.492 40.0449 398.353 40.669 402.073C41.8692 409.455 43.0695 416.092 43.9936 421.697C44.9178 427.302 45.662 431.755 46.1781 434.9C46.4181 436.424 46.6101 437.636 46.7422 438.501C46.7422 438.885 46.8382 439.197 46.8742 439.449C46.9313 439.61 46.9558 439.782 46.9462 439.953Z" fill="#032930"/>
<path d="M222.564 435.836C222.564 436.004 182.957 436.148 134.071 436.148C85.1854 436.148 45.5537 436.004 45.5537 435.836C45.5537 435.668 85.1614 435.524 134.059 435.524C182.957 435.524 222.564 435.668 222.564 435.836Z" fill="#032930"/>
<path d="M64.577 370.099C64.445 370.219 52.3347 356.285 37.5238 338.989C22.7129 321.694 10.8066 307.579 10.9386 307.459C11.0706 307.339 23.181 321.274 37.9919 338.581C52.8028 355.888 64.7571 369.991 64.577 370.099Z" fill="#032930"/>
</svg>
