<svg width="185" height="8" viewBox="0 0 185 8" fill="none" xmlns="http://www.w3.org/2000/svg">
<path d="M167.616 7.94062C167.44 7.94062 167.289 7.93072 167.164 7.91093C167.038 7.89113 166.9 7.87134 166.749 7.85155C166.523 7.81196 166.373 7.7031 166.297 7.52496C166.147 7.24785 166.184 6.86188 166.41 6.36705C166.636 5.87221 166.988 5.22893 167.465 4.43719C167.641 4.19967 167.791 3.96215 167.917 3.72463C168.042 3.48711 168.155 3.26938 168.256 3.07145C168.381 2.85372 168.457 2.69538 168.482 2.59641C168.507 2.49744 168.532 2.41827 168.557 2.35889C168.005 2.25992 167.402 2.36879 166.749 2.68548C166.122 2.98238 165.481 3.34856 164.829 3.78401C164.653 3.88298 164.477 3.86318 164.301 3.72463C164.251 3.68504 164.226 3.62566 164.226 3.54649C164.226 3.44752 164.276 3.37825 164.377 3.33866C165.13 2.84383 165.871 2.42817 166.599 2.09168C167.327 1.7354 168.068 1.63643 168.821 1.79478C168.997 1.87395 169.122 1.96302 169.197 2.06199C169.323 2.27971 169.285 2.60631 169.085 3.04176C168.909 3.45742 168.607 4.01163 168.181 4.7044C168.005 5.0013 167.829 5.29821 167.653 5.59511C167.503 5.87221 167.365 6.13942 167.239 6.39674C167.063 6.71343 166.975 6.93116 166.975 7.04992C166.975 7.16868 166.988 7.23795 167.013 7.25775C167.365 7.33692 167.854 7.32703 168.482 7.22806C169.135 7.12909 169.976 6.86188 171.005 6.42643C172.035 5.99097 173.29 5.3081 174.772 4.37781C175.701 3.8038 176.542 3.24959 177.295 2.71517C178.073 2.16095 178.689 1.70571 179.141 1.34943C179.593 0.973353 179.819 0.775419 179.819 0.755626C179.919 0.676452 180.045 0.656659 180.195 0.696246C180.245 0.716039 180.296 0.74573 180.346 0.785316C180.421 0.80511 180.471 0.8348 180.497 0.874387C180.597 1.01294 180.572 1.25046 180.421 1.58695C180.296 1.90364 180.045 2.40837 179.668 3.10114C179.492 3.39804 179.329 3.69494 179.178 3.99184C179.028 4.26895 178.89 4.54606 178.764 4.82316C178.664 5.13986 178.601 5.36748 178.576 5.50604C178.551 5.6248 178.538 5.70397 178.538 5.74356C179.241 5.88211 180.132 5.70397 181.212 5.20913C181.739 4.99141 182.267 4.7143 182.794 4.37781C183.321 4.02153 183.849 3.67515 184.376 3.33866C184.552 3.20011 184.727 3.21 184.903 3.36835C185.054 3.5267 185.029 3.66525 184.828 3.78401C184.125 4.27885 183.397 4.75389 182.643 5.20913C181.915 5.64459 181.187 5.97118 180.459 6.18891C179.731 6.40663 179.015 6.44622 178.312 6.30767C178.136 6.24829 177.986 6.15922 177.86 6.04046C177.709 5.76335 177.735 5.36748 177.935 4.85285C178.161 4.31843 178.5 3.64546 178.952 2.83393C179.053 2.67558 179.141 2.51724 179.216 2.35889C179.316 2.18075 179.417 2.01251 179.517 1.85416C179.04 2.19065 178.425 2.636 177.672 3.19021C176.944 3.72463 176.128 4.26895 175.224 4.82316C171.985 6.90147 169.449 7.94062 167.616 7.94062Z" fill="#91D4C4"/>
<path d="M147.57 7.94062C147.394 7.94062 147.244 7.93072 147.118 7.91093C146.993 7.89113 146.854 7.87134 146.704 7.85155C146.478 7.81196 146.327 7.7031 146.252 7.52496C146.101 7.24785 146.139 6.86188 146.365 6.36705C146.591 5.87221 146.942 5.22893 147.419 4.43719C147.595 4.19967 147.746 3.96215 147.871 3.72463C147.997 3.48711 148.11 3.26938 148.21 3.07145C148.336 2.85372 148.411 2.69538 148.436 2.59641C148.461 2.49744 148.487 2.41827 148.512 2.35889C147.959 2.25992 147.357 2.36879 146.704 2.68548C146.076 2.98238 145.436 3.34856 144.783 3.78401C144.607 3.88298 144.432 3.86318 144.256 3.72463C144.206 3.68504 144.18 3.62566 144.18 3.54649C144.18 3.44752 144.231 3.37825 144.331 3.33866C145.084 2.84383 145.825 2.42817 146.553 2.09168C147.281 1.7354 148.022 1.63643 148.775 1.79478C148.951 1.87395 149.077 1.96302 149.152 2.06199C149.278 2.27971 149.24 2.60631 149.039 3.04176C148.863 3.45742 148.562 4.01163 148.135 4.7044C147.959 5.0013 147.784 5.29821 147.608 5.59511C147.457 5.87221 147.319 6.13942 147.193 6.39674C147.018 6.71343 146.93 6.93116 146.93 7.04992C146.93 7.16868 146.942 7.23795 146.968 7.25775C147.319 7.33692 147.809 7.32703 148.436 7.22806C149.089 7.12909 149.93 6.86188 150.96 6.42643C151.989 5.99097 153.245 5.3081 154.726 4.37781C155.655 3.8038 156.496 3.24959 157.25 2.71517C158.028 2.16095 158.643 1.70571 159.095 1.34943C159.547 0.973353 159.773 0.775419 159.773 0.755626C159.874 0.676452 159.999 0.656659 160.15 0.696246C160.2 0.716039 160.25 0.74573 160.3 0.785316C160.376 0.80511 160.426 0.8348 160.451 0.874387C160.551 1.01294 160.526 1.25046 160.376 1.58695C160.25 1.90364 159.999 2.40837 159.622 3.10114C159.447 3.39804 159.283 3.69494 159.133 3.99184C158.982 4.26895 158.844 4.54606 158.718 4.82316C158.618 5.13986 158.555 5.36748 158.53 5.50604C158.505 5.6248 158.493 5.70397 158.493 5.74356C159.196 5.88211 160.087 5.70397 161.167 5.20913C161.694 4.99141 162.221 4.7143 162.748 4.37781C163.276 4.02153 163.803 3.67515 164.33 3.33866C164.506 3.20011 164.682 3.21 164.858 3.36835C165.008 3.5267 164.983 3.66525 164.782 3.78401C164.079 4.27885 163.351 4.75389 162.598 5.20913C161.87 5.64459 161.142 5.97118 160.413 6.18891C159.685 6.40663 158.97 6.44622 158.267 6.30767C158.091 6.24829 157.94 6.15922 157.815 6.04046C157.664 5.76335 157.689 5.36748 157.89 4.85285C158.116 4.31843 158.455 3.64546 158.907 2.83393C159.007 2.67558 159.095 2.51724 159.17 2.35889C159.271 2.18075 159.371 2.01251 159.472 1.85416C158.995 2.19065 158.38 2.636 157.626 3.19021C156.898 3.72463 156.082 4.26895 155.178 4.82316C151.939 6.90147 149.403 7.94062 147.57 7.94062Z" fill="#91D4C4"/>
<path d="M138.468 6.24827C138.367 6.24827 138.292 6.22848 138.242 6.18889C138.091 6.08992 138.041 5.98106 138.091 5.8623C138.669 4.63511 139.121 3.58606 139.447 2.71515C139.774 1.84425 139.949 1.24055 139.974 0.904061C139.522 1.04261 138.744 1.28014 137.639 1.61662C136.56 1.93332 135.342 2.2896 133.986 2.68547C132.655 3.08133 131.35 3.4673 130.069 3.84338C129.793 3.88296 129.617 3.82358 129.542 3.66524C129.491 3.4871 129.567 3.34854 129.768 3.24958C130.898 2.91309 132.065 2.5766 133.27 2.24011C134.501 1.88383 135.631 1.55724 136.66 1.26034C137.69 0.963442 138.531 0.716025 139.184 0.518091C139.836 0.320158 140.163 0.221191 140.163 0.221191H140.426C140.577 0.260778 140.665 0.320157 140.69 0.39933C140.765 0.478503 140.803 0.607162 140.803 0.785302C140.803 0.963443 140.74 1.25045 140.615 1.64631C140.514 1.90363 140.414 2.19063 140.313 2.50732C140.213 2.80423 140.075 3.14071 139.899 3.51679C139.799 3.83348 139.673 4.16007 139.522 4.49656C139.397 4.81325 139.271 5.09036 139.146 5.32788C139.698 5.09036 140.426 4.79346 141.33 4.43718C142.259 4.0611 143.289 3.67513 144.419 3.27927C144.645 3.20009 144.82 3.24958 144.946 3.42772C144.996 3.50689 144.996 3.58606 144.946 3.66524C144.921 3.74441 144.858 3.79389 144.758 3.81369C143.603 4.20955 142.561 4.59553 141.632 4.9716C140.728 5.32788 140 5.62478 139.447 5.8623C138.92 6.08003 138.656 6.19879 138.656 6.21858C138.631 6.21858 138.606 6.22848 138.581 6.24827C138.556 6.24827 138.518 6.24827 138.468 6.24827Z" fill="#91D4C4"/>
<path d="M112.886 7.94062C112.71 7.94062 112.559 7.93072 112.434 7.91093C112.308 7.89113 112.17 7.87134 112.02 7.85155C111.794 7.81196 111.643 7.7031 111.568 7.52496C111.417 7.24785 111.455 6.86188 111.681 6.36705C111.907 5.87221 112.258 5.22893 112.735 4.43719C112.911 4.19967 113.062 3.96215 113.187 3.72463C113.313 3.48711 113.426 3.26938 113.526 3.07145C113.652 2.85372 113.727 2.69538 113.752 2.59641C113.777 2.49744 113.802 2.41827 113.828 2.35889C113.275 2.25992 112.673 2.36879 112.02 2.68548C111.392 2.98238 110.752 3.34856 110.099 3.78401C109.923 3.88298 109.747 3.86318 109.572 3.72463C109.521 3.68504 109.496 3.62566 109.496 3.54649C109.496 3.44752 109.546 3.37825 109.647 3.33866C110.4 2.84383 111.141 2.42817 111.869 2.09168C112.597 1.7354 113.338 1.63643 114.091 1.79478C114.267 1.87395 114.392 1.96302 114.468 2.06199C114.593 2.27971 114.556 2.60631 114.355 3.04176C114.179 3.45742 113.878 4.01163 113.451 4.7044C113.275 5.0013 113.099 5.29821 112.924 5.59511C112.773 5.87221 112.635 6.13942 112.509 6.39674C112.334 6.71343 112.246 6.93116 112.246 7.04992C112.246 7.16868 112.258 7.23795 112.283 7.25775C112.635 7.33692 113.124 7.32703 113.752 7.22806C114.405 7.12909 115.246 6.86188 116.276 6.42643C117.305 5.99097 118.561 5.3081 120.042 4.37781C120.971 3.8038 121.812 3.24959 122.565 2.71517C123.344 2.16095 123.959 1.70571 124.411 1.34943C124.863 0.973353 125.089 0.775419 125.089 0.755626C125.189 0.676452 125.315 0.656659 125.466 0.696246C125.516 0.716039 125.566 0.74573 125.616 0.785316C125.691 0.80511 125.742 0.8348 125.767 0.874387C125.867 1.01294 125.842 1.25046 125.692 1.58695C125.566 1.90364 125.315 2.40837 124.938 3.10114C124.762 3.39804 124.599 3.69494 124.449 3.99184C124.298 4.26895 124.16 4.54606 124.034 4.82316C123.934 5.13986 123.871 5.36748 123.846 5.50604C123.821 5.6248 123.808 5.70397 123.808 5.74356C124.511 5.88211 125.403 5.70397 126.482 5.20913C127.01 4.99141 127.537 4.7143 128.064 4.37781C128.592 4.02153 129.119 3.67515 129.646 3.33866C129.822 3.20011 129.998 3.21 130.173 3.36835C130.324 3.5267 130.299 3.66525 130.098 3.78401C129.395 4.27885 128.667 4.75389 127.914 5.20913C127.185 5.64459 126.457 5.97118 125.729 6.18891C125.001 6.40663 124.285 6.44622 123.582 6.30767C123.407 6.24829 123.256 6.15922 123.13 6.04046C122.98 5.76335 123.005 5.36748 123.206 4.85285C123.432 4.31843 123.771 3.64546 124.223 2.83393C124.323 2.67558 124.411 2.51724 124.486 2.35889C124.587 2.18075 124.687 2.01251 124.788 1.85416C124.311 2.19065 123.695 2.636 122.942 3.19021C122.214 3.72463 121.398 4.26895 120.494 4.82316C117.255 6.90147 114.719 7.94062 112.886 7.94062Z" fill="#91D4C4"/>
<path d="M104.472 5.35757H104.397C104.196 5.31798 104.045 5.2586 103.945 5.17943C103.845 5.08046 103.769 4.99139 103.719 4.91222C103.619 4.63511 103.706 4.30852 103.983 3.93245C104.259 3.53658 104.598 3.11102 105 2.65577C105.2 2.43805 105.389 2.23022 105.564 2.03228C105.74 1.81456 105.878 1.61662 105.979 1.43848C106.155 1.22076 106.242 1.06241 106.242 0.963442C106.268 0.844682 106.268 0.765507 106.242 0.72592C106.242 0.72592 106.23 0.716025 106.205 0.696231C106.18 0.656645 106.104 0.626954 105.979 0.607161C105.527 0.508194 105 0.587367 104.397 0.844681C103.819 1.0822 103.192 1.41869 102.514 1.85414C101.861 2.2896 101.196 2.74484 100.518 3.21989C100.417 3.29906 100.292 3.38813 100.141 3.4871C100.015 3.58606 99.8773 3.68503 99.7266 3.784C99.5258 3.90276 99.35 3.88296 99.1994 3.72462C99.1491 3.68503 99.124 3.62565 99.124 3.54648C99.124 3.44751 99.1743 3.37823 99.2747 3.33865C99.4003 3.23968 99.5258 3.14071 99.6513 3.04174C99.7769 2.94278 99.9024 2.85371 100.028 2.77454C100.806 2.24011 101.547 1.74528 102.25 1.29003C102.978 0.834785 103.669 0.4884 104.322 0.25088C104.974 -0.00643371 105.59 -0.0658126 106.167 0.072741C106.443 0.112327 106.632 0.181603 106.732 0.28057C106.832 0.359744 106.895 0.448815 106.92 0.547781C107.071 0.844682 106.996 1.21086 106.694 1.64631C106.393 2.06197 106.029 2.50732 105.602 2.98237C105.426 3.1803 105.251 3.37823 105.075 3.57617C104.924 3.7741 104.786 3.95224 104.661 4.11059C104.535 4.32831 104.46 4.48666 104.435 4.58563C104.435 4.6648 104.435 4.71428 104.435 4.73408C104.435 4.73408 104.447 4.74398 104.472 4.76377C104.497 4.76377 104.522 4.76377 104.548 4.76377C104.648 4.74398 104.861 4.69449 105.188 4.61532C105.514 4.51635 106.042 4.358 106.77 4.14028C107.498 3.92255 108.515 3.62565 109.82 3.24958C110.072 3.20999 110.222 3.26937 110.272 3.42772C110.323 3.50689 110.323 3.58606 110.272 3.66524C110.247 3.74441 110.185 3.80379 110.084 3.84338C109.256 4.0611 108.527 4.26893 107.9 4.46687C107.272 4.64501 106.732 4.79346 106.28 4.91222C105.602 5.11015 105.15 5.23881 104.924 5.29819C104.698 5.33778 104.548 5.35757 104.472 5.35757Z" fill="#91D4C4"/>
<path d="M90.5417 5.95139C90.4664 5.95139 90.4036 5.95139 90.3534 5.95139C90.3032 5.93159 90.253 5.9217 90.2028 5.9217C89.9768 5.90191 89.8261 5.79304 89.7508 5.59511C89.6504 5.37738 89.688 5.11017 89.8638 4.79348C90.0647 4.47678 90.366 4.07102 90.7677 3.57618C90.9435 3.35846 91.1193 3.14073 91.295 2.923C91.4708 2.70528 91.6089 2.49744 91.7093 2.29951C91.86 2.0422 91.9478 1.85416 91.9729 1.7354C91.9981 1.61664 91.9981 1.53747 91.9729 1.49788C91.9729 1.49788 91.9478 1.48798 91.8976 1.46819C91.8725 1.4484 91.8349 1.4286 91.7846 1.40881C91.0816 1.27026 90.1149 1.21088 88.8846 1.23067C87.6793 1.25046 86.1477 1.45829 84.2896 1.85416C82.4315 2.23023 80.1592 2.88342 77.4725 3.8137C77.3721 3.8335 77.2717 3.8335 77.1712 3.8137C77.0708 3.79391 77.008 3.74443 76.9829 3.66525C76.8825 3.48711 76.9452 3.35846 77.1712 3.27928C78.5773 2.80424 79.9081 2.38858 81.1635 2.0323C82.419 1.65623 83.6117 1.35933 84.7416 1.1416C87.7044 0.547797 90.1149 0.448831 91.9729 0.844699C92.1738 0.864492 92.3245 0.923872 92.4249 1.02284C92.5505 1.12181 92.6258 1.21088 92.6509 1.29005C92.8267 1.60674 92.7639 1.99271 92.4626 2.44796C92.1864 2.90321 91.8474 3.37825 91.4457 3.87308C91.295 4.07102 91.1569 4.24916 91.0314 4.40751C90.9058 4.56585 90.7928 4.7242 90.6924 4.88255C90.592 5.0211 90.5292 5.12996 90.5041 5.20914C90.479 5.26852 90.4664 5.318 90.4664 5.35759C90.5417 5.35759 90.7175 5.34769 90.9937 5.3279C91.2699 5.28831 91.7219 5.20914 92.3496 5.09038C92.9773 4.95182 93.8436 4.74399 94.9484 4.46688C96.0532 4.16998 97.4844 3.76422 99.242 3.24959C99.5182 3.21001 99.694 3.26939 99.7693 3.42773C99.8195 3.64546 99.7442 3.78401 99.5433 3.84339C97.4844 4.4174 95.8397 4.86275 94.6094 5.17945C93.3791 5.47635 92.45 5.68418 91.8223 5.80294C91.2197 5.9019 90.7928 5.95139 90.5417 5.95139Z" fill="#91D4C4"/>
<path d="M60.2895 7.94062C60.1137 7.94062 59.9631 7.93072 59.8375 7.91093C59.712 7.89113 59.5739 7.87134 59.4232 7.85155C59.1973 7.81196 59.0466 7.7031 58.9713 7.52496C58.8206 7.24785 58.8583 6.86188 59.0843 6.36705C59.3102 5.87221 59.6618 5.22893 60.1388 4.43719C60.3146 4.19967 60.4653 3.96215 60.5908 3.72463C60.7163 3.48711 60.8293 3.26938 60.9298 3.07145C61.0553 2.85372 61.1306 2.69538 61.1558 2.59641C61.1809 2.49744 61.206 2.41827 61.2311 2.35889C60.6787 2.25992 60.0761 2.36879 59.4232 2.68548C58.7955 2.98238 58.1552 3.34856 57.5024 3.78401C57.3266 3.88298 57.1509 3.86318 56.9751 3.72463C56.9249 3.68504 56.8998 3.62566 56.8998 3.54649C56.8998 3.44752 56.95 3.37825 57.0504 3.33866C57.8037 2.84383 58.5444 2.42817 59.2726 2.09168C60.0007 1.7354 60.7415 1.63643 61.4947 1.79478C61.6705 1.87395 61.796 1.96302 61.8714 2.06199C61.9969 2.27971 61.9593 2.60631 61.7584 3.04176C61.5826 3.45742 61.2813 4.01163 60.8545 4.7044C60.6787 5.0013 60.5029 5.29821 60.3271 5.59511C60.1765 5.87221 60.0384 6.13942 59.9129 6.39674C59.7371 6.71343 59.6492 6.93116 59.6492 7.04992C59.6492 7.16868 59.6618 7.23795 59.6869 7.25775C60.0384 7.33692 60.528 7.32703 61.1558 7.22806C61.8086 7.12909 62.6497 6.86188 63.6792 6.42643C64.7087 5.99097 65.9641 5.3081 67.4456 4.37781C68.3746 3.8038 69.2157 3.24959 69.969 2.71517C70.7474 2.16095 71.3626 1.70571 71.8145 1.34943C72.2665 0.973353 72.4924 0.775419 72.4924 0.755626C72.5929 0.676452 72.7184 0.656659 72.8691 0.696246C72.9193 0.716039 72.9695 0.74573 73.0197 0.785316C73.0951 0.80511 73.1453 0.8348 73.1704 0.874387C73.2708 1.01294 73.2457 1.25046 73.0951 1.58695C72.9695 1.90364 72.7184 2.40837 72.3418 3.10114C72.166 3.39804 72.0028 3.69494 71.8522 3.99184C71.7015 4.26895 71.5634 4.54606 71.4379 4.82316C71.3374 5.13986 71.2747 5.36748 71.2496 5.50604C71.2245 5.6248 71.2119 5.70397 71.2119 5.74356C71.915 5.88211 72.8063 5.70397 73.886 5.20913C74.4133 4.99141 74.9406 4.7143 75.4679 4.37781C75.9952 4.02153 76.5224 3.67515 77.0497 3.33866C77.2255 3.20011 77.4013 3.21 77.577 3.36835C77.7277 3.5267 77.7026 3.66525 77.5017 3.78401C76.7986 4.27885 76.0705 4.75389 75.3172 5.20913C74.589 5.64459 73.8609 5.97118 73.1327 6.18891C72.4046 6.40663 71.689 6.44622 70.9859 6.30767C70.8102 6.24829 70.6595 6.15922 70.534 6.04046C70.3833 5.76335 70.4084 5.36748 70.6093 4.85285C70.8353 4.31843 71.1742 3.64546 71.6262 2.83393C71.7266 2.67558 71.8145 2.51724 71.8898 2.35889C71.9903 2.18075 72.0907 2.01251 72.1912 1.85416C71.7141 2.19065 71.0989 2.636 70.3456 3.19021C69.6175 3.72463 68.8014 4.26895 67.8975 4.82316C64.6585 6.90147 62.1224 7.94062 60.2895 7.94062Z" fill="#91D4C4"/>
<path d="M48.3175 5.95139C48.2421 5.95139 48.1794 5.95139 48.1292 5.95139C48.0789 5.93159 48.0287 5.9217 47.9785 5.9217C47.7525 5.90191 47.6019 5.79304 47.5265 5.59511C47.4261 5.37738 47.4638 5.11017 47.6395 4.79348C47.8404 4.47678 48.1417 4.07102 48.5435 3.57618C48.7192 3.35846 48.895 3.14073 49.0707 2.923C49.2465 2.70528 49.3846 2.49744 49.485 2.29951C49.6357 2.0422 49.7236 1.85416 49.7487 1.7354C49.7738 1.61664 49.7738 1.53747 49.7487 1.49788C49.7487 1.49788 49.7236 1.48798 49.6734 1.46819C49.6482 1.4484 49.6106 1.4286 49.5604 1.40881C48.8573 1.27026 47.8906 1.21088 46.6603 1.23067C45.4551 1.25046 43.9234 1.45829 42.0653 1.85416C40.2073 2.23023 37.9349 2.88342 35.2482 3.8137C35.1478 3.8335 35.0474 3.8335 34.9469 3.8137C34.8465 3.79391 34.7837 3.74443 34.7586 3.66525C34.6582 3.48711 34.721 3.35846 34.9469 3.27928C36.353 2.80424 37.6838 2.38858 38.9393 2.0323C40.1947 1.65623 41.3874 1.35933 42.5173 1.1416C45.4802 0.547797 47.8906 0.448831 49.7487 0.844699C49.9495 0.864492 50.1002 0.923872 50.2006 1.02284C50.3262 1.12181 50.4015 1.21088 50.4266 1.29005C50.6024 1.60674 50.5396 1.99271 50.2383 2.44796C49.9621 2.90321 49.6231 3.37825 49.2214 3.87308C49.0707 4.07102 48.9326 4.24916 48.8071 4.40751C48.6815 4.56585 48.5685 4.7242 48.4681 4.88255C48.3677 5.0211 48.3049 5.12996 48.2798 5.20914C48.2547 5.26852 48.2421 5.318 48.2421 5.35759C48.3175 5.35759 48.4932 5.34769 48.7694 5.3279C49.0456 5.28831 49.4976 5.20914 50.1253 5.09038C50.753 4.95182 51.6193 4.74399 52.7241 4.46688C53.8289 4.16998 55.2601 3.76422 57.0177 3.24959C57.2939 3.21001 57.4697 3.26939 57.545 3.42773C57.5952 3.64546 57.5199 3.78401 57.319 3.84339C55.2601 4.4174 53.6155 4.86275 52.3851 5.17945C51.1548 5.47635 50.2258 5.68418 49.598 5.80294C48.9954 5.9019 48.5686 5.95139 48.3175 5.95139Z" fill="#91D4C4"/>
<path d="M25.1677 7.99998C24.9919 7.99998 24.8036 7.98019 24.6027 7.9406C24.4521 7.88122 24.3642 7.81194 24.3391 7.73277C24.2638 7.6338 24.2387 7.44577 24.2638 7.16866C24.2889 6.89155 24.4646 6.28785 24.7911 5.35757C24.9919 4.82314 25.2054 4.28872 25.4313 3.7543C25.6824 3.20009 25.8959 2.73495 26.0716 2.35887C26.0716 2.31928 26.0716 2.28959 26.0716 2.2698C26.0967 2.23021 26.1093 2.20052 26.1093 2.18073C25.5569 2.33908 24.7785 2.5766 23.7741 2.89329C22.7949 3.19019 21.7278 3.50689 20.5727 3.84337C20.2965 3.88296 20.1208 3.82358 20.0455 3.66523C19.9952 3.48709 20.0706 3.34854 20.2715 3.24957C21.3762 2.93288 22.4057 2.63598 23.3598 2.35887C24.314 2.08176 25.0798 1.85414 25.6573 1.676C26.2599 1.49786 26.5738 1.40879 26.5989 1.40879C26.624 1.40879 26.6491 1.39889 26.6742 1.3791C26.7244 1.3593 26.7747 1.3692 26.8249 1.40879C26.9253 1.40879 27.0006 1.45827 27.0509 1.55724C27.1011 1.59683 27.1136 1.64631 27.0885 1.70569C27.0885 1.76507 27.0634 1.86404 27.0132 2.00259C26.963 2.08176 26.9253 2.16094 26.9002 2.24011C26.8751 2.31928 26.8375 2.41825 26.7872 2.53701C26.6115 2.91308 26.4106 3.35844 26.1846 3.87306C25.9837 4.38769 25.7829 4.90232 25.582 5.41695C25.3309 6.05033 25.1677 6.51548 25.0924 6.81238C25.017 7.08949 24.9794 7.27752 24.9794 7.37649C25.356 7.41608 25.7703 7.37649 26.2223 7.25773C26.5236 7.17856 26.8374 7.08949 27.1639 6.99052C27.5154 6.87176 27.9046 6.71341 28.3314 6.51548C29.1098 6.19878 29.9384 5.81281 30.8172 5.35757C31.7211 4.90232 32.6502 4.43717 33.6043 3.96213C33.8052 3.84337 34.006 3.73451 34.2069 3.63554C34.4078 3.51678 34.6087 3.39802 34.8095 3.27926C34.91 3.23968 35.0104 3.22978 35.1108 3.24957C35.2364 3.26937 35.3117 3.31885 35.3368 3.39802C35.5126 3.53658 35.4875 3.67513 35.2615 3.81368C35.0355 3.89286 34.8221 3.99182 34.6212 4.11058C34.4203 4.22934 34.2195 4.33821 34.0186 4.43717C33.0645 4.93201 32.1354 5.40705 31.2315 5.8623C30.3276 6.31754 29.4739 6.71341 28.6704 7.0499C27.1388 7.68329 25.9712 7.99998 25.1677 7.99998Z" fill="#91D4C4"/>
<path d="M3.38971 7.94062C3.21394 7.94062 3.06329 7.93072 2.93775 7.91093C2.8122 7.89113 2.67412 7.87134 2.52346 7.85155C2.29748 7.81196 2.14683 7.7031 2.0715 7.52496C1.92085 7.24785 1.95851 6.86188 2.18449 6.36705C2.41047 5.87221 2.76199 5.22893 3.23906 4.43719C3.41482 4.19967 3.56548 3.96215 3.69102 3.72463C3.81657 3.48711 3.92956 3.26938 4.03 3.07145C4.15554 2.85372 4.23086 2.69538 4.25597 2.59641C4.28108 2.49744 4.30618 2.41827 4.33129 2.35889C3.7789 2.25992 3.1763 2.36879 2.52346 2.68548C1.89574 2.98238 1.25544 3.34856 0.60261 3.78401C0.426847 3.88298 0.251087 3.86318 0.0753238 3.72463C0.0251059 3.68504 0 3.62566 0 3.54649C0 3.44752 0.050231 3.37825 0.150667 3.33866C0.903936 2.84383 1.64464 2.42817 2.3728 2.09168C3.10096 1.7354 3.84168 1.63643 4.59495 1.79478C4.77071 1.87395 4.89626 1.96302 4.97158 2.06199C5.09713 2.27971 5.05947 2.60631 4.8586 3.04176C4.68284 3.45742 4.38153 4.01163 3.95467 4.7044C3.77891 5.0013 3.60313 5.29821 3.42737 5.59511C3.27672 5.87221 3.13863 6.13942 3.01309 6.39674C2.83733 6.71343 2.74944 6.93116 2.74944 7.04992C2.74944 7.16868 2.76199 7.23795 2.7871 7.25775C3.13862 7.33692 3.62825 7.32703 4.25597 7.22806C4.9088 7.12909 5.74997 6.86188 6.77943 6.42643C7.8089 5.99097 9.06435 5.3081 10.5458 4.37781C11.4748 3.8038 12.316 3.24959 13.0692 2.71517C13.8476 2.16095 14.4628 1.70571 14.9147 1.34943C15.3667 0.973353 15.5927 0.775419 15.5927 0.755626C15.6931 0.676452 15.8187 0.656659 15.9693 0.696246C16.0195 0.716039 16.0697 0.74573 16.12 0.785316C16.1953 0.80511 16.2455 0.8348 16.2706 0.874387C16.3711 1.01294 16.346 1.25046 16.1953 1.58695C16.0698 1.90364 15.8187 2.40837 15.442 3.10114C15.2663 3.39804 15.1031 3.69494 14.9524 3.99184C14.8017 4.26895 14.6636 4.54606 14.5381 4.82316C14.4377 5.13986 14.3749 5.36748 14.3498 5.50604C14.3247 5.6248 14.3121 5.70397 14.3121 5.74356C15.0152 5.88211 15.9065 5.70397 16.9862 5.20913C17.5135 4.99141 18.0408 4.7143 18.5681 4.37781C19.0954 4.02153 19.6227 3.67515 20.15 3.33866C20.3257 3.20011 20.5015 3.21 20.6772 3.36835C20.8279 3.5267 20.8028 3.66525 20.6019 3.78401C19.8989 4.27885 19.1707 4.75389 18.4174 5.20913C17.6893 5.64459 16.9611 5.97118 16.233 6.18891C15.5048 6.40663 14.7892 6.44622 14.0861 6.30767C13.9104 6.24829 13.7597 6.15922 13.6342 6.04046C13.4835 5.76335 13.5086 5.36748 13.7095 4.85285C13.9355 4.31843 14.2745 3.64546 14.7264 2.83393C14.8269 2.67558 14.9147 2.51724 14.9901 2.35889C15.0905 2.18075 15.1909 2.01251 15.2914 1.85416C14.8143 2.19065 14.1991 2.636 13.4459 3.19021C12.7177 3.72463 11.9017 4.26895 10.9977 4.82316C7.75868 6.90147 5.22266 7.94062 3.38971 7.94062Z" fill="#91D4C4"/>
</svg>
